<svg width="97" height="97" viewBox="0 0 97 97" fill="none" xmlns="http://www.w3.org/2000/svg">
    <path d="M68.5 24.0364V45.7743C68.0153 44.168 67.4404 42.3717 66.9654 41.1626C66.1438 39.0712 63.9151 35.4666 62.9183 33.9443L62.7703 33.7182H62.5C62.0277 33.7182 61.0559 33.9883 60.5512 35.016C60.4814 35.1581 60.4611 35.3215 60.4524 35.4427C60.4427 35.5797 60.4438 35.7387 60.4521 35.9109C60.4688 36.2564 60.5164 36.696 60.586 37.1996C60.7254 38.2089 60.9587 39.5147 61.2343 40.9199C61.7577 43.5882 62.4385 46.6408 62.9346 48.7613L61.8463 49.5H30C29.18 49.5 28.5 48.8207 28.5 47.9636V24.0364C28.5 23.1793 29.18 22.5 30 22.5H67C67.82 22.5 68.5 23.1793 68.5 24.0364Z" fill="url(#paint0_linear)" stroke="url(#paint1_linear)"/>
    <path d="M62 32V28M60 34H57M64 34H67" stroke="white" stroke-linecap="round" stroke-linejoin="round"/>
    <path d="M7.55173 65.6741V13.0048C7.55173 11.8976 8.44716 11 9.55173 11H87.4483C88.5528 11 89.4483 11.8976 89.4483 13.0048V65.6741M7.55173 65.6741H1.5C1.22385 65.6741 1 65.8985 1 66.1754V67.1354C1 68.2426 1.89543 69.1402 3 69.1402H16M7.55173 65.6741H17.5M89.4483 65.6741H95.5C95.7761 65.6741 96 65.8985 96 66.1754V67.1354C96 68.2426 95.1046 69.1402 94 69.1402H81.417M89.4483 65.6741H80.5806M42.7163 69.1402H60.5077M33.5 69.1402H37M38.5 63.1257H38M42 63.1257H55.9774M19 63.1257H12.5C11.3954 63.1257 10.5 62.2281 10.5 61.1209V16.5133C10.5 15.4061 11.3954 14.5085 12.5 14.5085H84.5C85.6046 14.5085 86.5 15.4061 86.5 16.5133V61.1209C86.5 62.2281 85.6046 63.1257 84.5 63.1257H79.7896M36 65.6741H57.8369M22.6212 60.3304C19.812 61.0344 19.5779 62.2077 17.4709 66.4318C15.7854 69.811 13.5 80.2772 2.5 80.668C0.492803 86.6234 5.76528 96.0074 8.82076 96C8.89528 94.7697 17.0027 88.96 21.4507 87.3173C25.8986 85.6746 34.3263 83.0933 35.965 80.2772C37.6038 77.4612 42.754 69.9518 42.9881 68.0745C43.2222 66.1972 39.9448 66.1972 38.3061 68.0745C36.6673 69.9518 32.6876 74.4105 32.2194 73.9412C31.7512 73.4719 32.4535 71.1252 33.624 68.7785C34.5604 66.9012 37.1355 63.9287 38.3061 62.6771C38.4621 62.8336 38.9615 63.2873 39.7107 63.8505C40.6471 64.5545 42.2858 64.0851 42.0517 62.2078C41.8584 60.6574 39.5895 58.787 38.0139 58.1825M21.4507 62.4424C22.4651 60.5651 24.7749 56.6696 25.8986 56.1064C27.0223 55.5432 28.5685 55.3349 29.1928 55.4131M29.1928 55.4131C28.3288 56.4764 27.4649 57.9446 26.6009 59.157C25.6645 60.4712 25 62.1233 25 62.1233M29.1928 55.4131C29.4993 55.0358 29.8059 54.7095 30.1124 54.4637C31.283 53.525 36.9014 54.4637 38.7742 56.8103C39.5716 57.8095 39.011 58.128 38.0139 58.1825M38.0139 58.1825C37.6816 58.055 37.3802 57.9838 37.1356 57.9838C36.9598 57.9838 36.7321 58.0374 36.4674 58.1319M36.4674 58.1319C35.3921 58.0429 34.3033 57.8945 33.8581 57.9838C32.9217 58.1715 31.7512 60.2522 31.283 61.2691C32.5338 60.3453 35.0396 58.6421 36.4674 58.1319ZM24 58.2392V18.0169H73V52.9242M29 48.0895L32.8338 41.6399C33.1746 41.0932 33.9341 41.0065 34.3889 41.4623L36.6375 43.7164C37.0837 44.1637 37.8266 44.0899 38.1766 43.5636L41.5442 38.5001C41.9701 37.8597 42.9272 37.9194 43.2706 38.6078L44.6556 41.3845C45.0146 42.1041 46.0304 42.128 46.4225 41.426L51.7265 31.9317C52.071 31.315 52.9517 31.3018 53.3144 31.9078C53.6453 32.4606 54.4259 32.5098 54.8232 32.0029L59.1997 26.4194C59.3893 26.1775 59.6792 26.0363 59.986 26.0363H63.6795C63.888 26.0363 64.0912 25.971 64.2608 25.8496L67.5 23.5302M29 51.5979H51M32 54.104H53.3144M38.5 56.61H48.5M58.3319 58.0993C56.9751 54.6589 53.3633 55.3906 54.0974 57.9663C54.8316 60.5421 55.0481 61.8605 56.2935 63.5896C57.5388 65.3188 60.5893 69.3448 63.283 72.5763C65.9767 75.8077 71.5083 78.803 74.3421 81.5106L76.275 87.8815C76.4344 88.4069 76.8897 88.7931 77.4389 88.86C82.9371 89.5306 87.3679 89.3739 91.4666 86.479C92.1124 86.0228 92.1713 85.113 91.646 84.5241C89.0818 81.65 82.2554 73.8977 82.0619 72.6112C81.762 70.6177 80.4773 63.6949 78.6539 60.5533C78.566 60.4018 78.5134 60.2344 78.4891 60.0612C78.3721 59.2272 77.9238 57.8276 76.8176 56.9734C76.5472 56.7646 76.3406 56.4698 76.1736 56.1728C75.2856 54.5932 71.5676 51.766 69.5753 50.1168C69.4233 49.991 69.3128 49.8289 69.251 49.6423C67.509 44.3897 63.8614 34.3563 62.4756 34.1018C60.8675 33.8066 59.5792 34.5275 63.7635 48.456M58.3319 58.0993C58.2411 57.3746 58.1787 55.4801 58.6552 53.6994C59.1317 51.9186 62.2593 49.4618 63.7635 48.456M58.3319 58.0993C58.484 58.4849 58.6572 58.8585 58.8468 59.2158M63.7635 48.456C64.1685 49.8039 64.6246 51.2755 65.1367 52.8817M65.1367 52.8817C64.4296 53.3965 62.8081 54.9881 61.9787 57.2366C61.6295 58.1833 61.143 58.7328 60.6446 59.0311M65.1367 52.8817C65.4568 54.0353 65.5781 55.5886 65.5189 57.1289M58.8468 59.2158C60.3488 62.0462 62.881 63.857 64.1119 62.5631C64.9415 61.691 65.4306 59.4243 65.5189 57.1289M58.8468 59.2158C59.2512 59.3763 59.9591 59.4412 60.6446 59.0311M60.6446 59.0311C60.3517 59.5937 60.0123 60.7558 60.9977 60.9029C61.6942 61.0069 62.4466 60.9016 63.1058 60.4718M65.5189 57.1289C65.3957 57.1158 64.9981 57.4423 64.393 58.8529C64.0642 59.6192 63.6126 60.1413 63.1058 60.4718M63.1058 60.4718C63.2787 60.8894 63.8665 61.5652 64.8345 60.9265M5.00001 33.0532L2.85715 31.0484M5.00001 36.0604H2.00001M5.00001 39.0677L2.85715 41.0725M92 33.0532L94.1429 31.0484M92 36.0604H95M92 39.0677L94.1429 41.0725" stroke="#31477B" stroke-linecap="round" stroke-linejoin="round"/>
    <path d="M39 43.5C39 44.3284 38.3284 45 37.5 45C36.6716 45 36 44.3284 36 43.5C36 42.6716 36.6716 42 37.5 42C38.3284 42 39 42.6716 39 43.5Z" fill="url(#paint2_linear)"/>
    <path d="M54 31.5C54 32.3284 53.3284 33 52.5 33C51.6716 33 51 32.3284 51 31.5C51 30.6716 51.6716 30 52.5 30C53.3284 30 54 30.6716 54 31.5Z" fill="url(#paint3_linear)"/>
    <defs>
        <linearGradient id="paint0_linear" x1="28" y1="36" x2="69" y2="36" gradientUnits="userSpaceOnUse">
            <stop stop-color="#16A7D8"/>
            <stop offset="1" stop-color="#1290B4"/>
        </linearGradient>
        <linearGradient id="paint1_linear" x1="29.025" y1="36" x2="69" y2="36" gradientUnits="userSpaceOnUse">
            <stop stop-color="#FEB43F"/>
            <stop offset="1" stop-color="#FECB3E"/>
        </linearGradient>
        <linearGradient id="paint2_linear" x1="36.45" y1="37.5" x2="54" y2="37.5" gradientUnits="userSpaceOnUse">
            <stop stop-color="#FEB43F"/>
            <stop offset="1" stop-color="#FECB3E"/>
        </linearGradient>
        <linearGradient id="paint3_linear" x1="36.45" y1="37.5" x2="54" y2="37.5" gradientUnits="userSpaceOnUse">
            <stop stop-color="#FEB43F"/>
            <stop offset="1" stop-color="#FECB3E"/>
        </linearGradient>
    </defs>
</svg>
