<svg width="762" height="575" viewBox="0 0 762 575" fill="none" xmlns="http://www.w3.org/2000/svg">
    <path d="M651.446 441.937C732.838 375.897 783.315 273.649 751.905 203.064C719.536 132.229 605.524 93.5896 507.352 60.0182C408.464 26.7292 325.414 -1.49178 231.575 0.3138C138.208 1.30431 34.0513 32.3214 -37.3557 88.7663C-109.006 144.679 -148.623 226.301 -155.01 301.106C-162.114 376.193 -136.705 444.744 -87.0447 490.532C-37.3841 536.319 36.299 560.691 112.506 570.239C188.712 579.787 267.443 574.511 362.603 557.099C458.236 538.872 570.298 508.509 651.446 441.937Z" fill="url(#paint0_linear)"/>
    <defs>
        <linearGradient id="paint0_linear" x1="-128.22" y1="439.408" x2="689.214" y2="65.8719" gradientUnits="userSpaceOnUse">
            <stop stop-color="#16A7D8"/>
            <stop offset="1" stop-color="#1290B4"/>
        </linearGradient>
    </defs>
</svg>
