<svg id="Слой_1" data-name="Слой 1" xmlns="http://www.w3.org/2000/svg" xmlns:xlink="http://www.w3.org/1999/xlink" viewBox="0 0 441 410"><defs><style>.cls-1{fill-opacity:0.2;fill:url(#Безымянный_градиент);}</style><linearGradient id="Безымянный_градиент" x1="-1" y1="204" x2="440" y2="204" gradientUnits="userSpaceOnUse"><stop offset="0" stop-color="#16a7d8"/><stop offset="1" stop-color="#1290b4"/></linearGradient></defs><path class="cls-1" d="M-1-1H10A11,11,0,0,0-1,10V398a11,11,0,0,0,11,11H429a11,11,0,0,0,11-11V10A11,11,0,0,0,429-1Zm439,399a9,9,0,0,1-9,9H10a9,9,0,0,1-9-9V10a9,9,0,0,1,9-9H429a9,9,0,0,1,9,9Z" transform="translate(1 1)"/></svg>