<svg width="97" height="96" viewBox="0 0 97 96" fill="none" xmlns="http://www.w3.org/2000/svg">
    <path d="M18 21H53" stroke="url(#paint0_linear)" stroke-width="2.18605" stroke-linecap="round" stroke-linejoin="round"/>
    <path d="M18 30H53" stroke="url(#paint1_linear)" stroke-width="2.18605" stroke-linecap="round" stroke-linejoin="round"/>
    <path d="M18 38H53" stroke="url(#paint2_linear)" stroke-width="2.18605" stroke-linecap="round" stroke-linejoin="round"/>
    <path d="M18 25H53" stroke="url(#paint3_linear)" stroke-width="2.18605" stroke-linecap="round" stroke-linejoin="round"/>
    <path d="M18 34H53" stroke="url(#paint4_linear)" stroke-width="2.18605" stroke-linecap="round" stroke-linejoin="round"/>
    <path d="M18 43H53" stroke="url(#paint5_linear)" stroke-width="2.18605" stroke-linecap="round" stroke-linejoin="round"/>
    <path d="M73.5706 22.8327C75.9892 19.9206 76.3574 18.2109 76.5 13C76.6426 18.2109 77.0108 19.9206 79.4294 22.8327C79.75 23.2187 79.75 23.7813 79.4294 24.1673C77.0108 27.0794 76.6426 28.7891 76.5 34C76.3574 28.7891 75.9892 27.0794 73.5706 24.1673C73.25 23.7813 73.25 23.2187 73.5706 22.8327Z" fill="url(#paint6_linear)" stroke="url(#paint7_linear)" stroke-linecap="round" stroke-linejoin="round"/>
    <path d="M11.4751 9.15521L11.1221 8.80116L10.9751 8.94769V9.15521H11.4751ZM19.6534 1V0.5H19.4467L19.3004 0.645948L19.6534 1ZM68.5502 75.813L68.2754 76.2308L68.5502 75.813ZM82.082 85.2579L81.7607 85.641L82.082 85.2579ZM88.9114 92.1666L88.5239 92.4826L88.9114 92.1666ZM92.9661 91.4713L92.4858 91.3322L92.9661 91.4713ZM95.9215 81.2642L96.4017 81.4033L95.9215 81.2642ZM95.34 79.1907L95.6856 78.8294L95.6856 78.8294L95.34 79.1907ZM88.6829 70.2764L89.1463 70.0886L88.6829 70.2764ZM81.752 51.061L81.5307 51.5094C81.5431 51.5155 81.5556 51.521 81.5684 51.5261L81.752 51.061ZM66.9 45.8501L66.9577 45.3534H66.9577L66.9 45.8501ZM58.3639 48.4507L58.6377 48.869L58.3639 48.4507ZM57.6259 53.3407L57.4754 53.8175L57.6259 53.3407ZM60.9592 55.9462L61.3816 55.6786L60.9592 55.9462ZM60.2005 54.9691L59.8372 55.3126L60.2005 54.9691ZM66.9 52.5072L66.7275 52.0379L66.9 52.5072ZM61.9494 57.2471L61.5706 57.5736L61.9494 57.2471ZM68.9391 53.6664L69.2215 53.2538H69.2215L68.9391 53.6664ZM71.1906 56.2719L71.6836 56.1886L71.1906 56.2719ZM66.1418 61.2915L65.8173 61.6718L66.1418 61.2915ZM68.7599 61.0696L68.37 60.7566V60.7566L68.7599 61.0696ZM89.0174 44.3794L89.1899 44.8487L89.0174 44.3794ZM76.8273 48.8591L76.6548 48.3897L76.8273 48.8591ZM88.0423 41.7846L88.2198 42.252L88.0423 41.7846ZM52.3781 56.2719L52.0624 55.8841C51.8983 56.0177 51.8361 56.2401 51.907 56.4394C51.9779 56.6387 52.1665 56.7719 52.3781 56.7719V56.2719ZM57.9888 62.4599L58.4031 62.18L58.4031 62.18L57.9888 62.4599ZM89.8362 42.5883L90.3036 42.4107L90.3036 42.4107L89.8362 42.5883ZM58.1982 62.7711L58.6136 62.4927L58.6136 62.4927L58.1982 62.7711ZM83.8035 7.46633L84.3033 7.45261C84.2959 7.18191 84.0743 6.96633 83.8035 6.96633C83.5327 6.96633 83.3111 7.18191 83.3037 7.45261L83.8035 7.46633ZM82.86 11.2667L82.4578 10.9698V10.9698L82.86 11.2667ZM84.747 11.2667L84.3448 11.5637L84.747 11.2667ZM83.8035 16.4197L83.3037 16.4334C83.3111 16.7041 83.5327 16.9197 83.8035 16.9197C84.0743 16.9197 84.2959 16.7041 84.3033 16.4334L83.8035 16.4197ZM82.86 12.6193L83.2622 12.3223L82.86 12.6193ZM84.747 12.6193L84.3448 12.3223L84.747 12.6193ZM37.447 54.7013C37.3594 54.4394 37.0761 54.298 36.8142 54.3856C36.5523 54.4731 36.411 54.7564 36.4985 55.0183L37.447 54.7013ZM37.8729 57.5529L38.3471 57.3944L37.8729 57.5529ZM38.0575 57.5911L38.4293 57.9255L38.0575 57.5911ZM42.4367 52.7226L42.065 52.3882L42.4367 52.7226ZM42.8221 58.7851L43.2163 59.0926L42.8221 58.7851ZM45.9413 54.7861L45.547 54.4785L45.547 54.4785L45.9413 54.7861ZM46.1067 54.7783L46.4703 54.4351V54.4351L46.1067 54.7783ZM48.306 57.108L48.6696 56.7648H48.6696L48.306 57.108ZM48.4766 57.0931L48.0587 56.8186L48.4766 57.0931ZM51.2176 53.8294C51.3691 53.5985 51.3048 53.2886 51.074 53.137C50.8432 52.9854 50.5332 53.0497 50.3816 53.2805L51.2176 53.8294ZM50.6832 56.2237C50.4146 56.288 50.249 56.5578 50.3133 56.8264C50.3776 57.0949 50.6475 57.2605 50.916 57.1962L50.6832 56.2237ZM52.9933 56.6988C53.2619 56.6345 53.4275 56.3646 53.3632 56.0961C53.2988 55.8275 53.029 55.662 52.7605 55.7263L52.9933 56.6988ZM3.18087 70.5822H45.209V69.5822H3.18087V70.5822ZM0.5 9.14365V67.9074H1.5V9.14365H0.5ZM45.209 70.5822C46.6883 70.5822 47.8899 69.386 47.8899 67.9074H46.8899C46.8899 68.831 46.1387 69.5822 45.209 69.5822V70.5822ZM3.18087 69.5822C2.25122 69.5822 1.5 68.831 1.5 67.9074H0.5C0.5 69.386 1.7016 70.5822 3.18087 70.5822V69.5822ZM1.5 9.14365C1.5 8.22005 2.25122 7.46892 3.18087 7.46892V6.46892C1.7016 6.46892 0.5 7.66511 0.5 9.14365H1.5ZM51.1948 67.5977C52.6741 67.5977 53.8757 66.4015 53.8757 64.923H52.8757C52.8757 65.8466 52.1245 66.5977 51.1948 66.5977V67.5977ZM8.66785 66.5977C7.7382 66.5977 6.98698 65.8466 6.98698 64.923H5.98698C5.98698 66.4015 7.18858 67.5977 8.66785 67.5977V66.5977ZM6.98698 5.66177C6.98698 4.73818 7.7382 3.98705 8.66785 3.98705V2.98705C7.18858 2.98705 5.98698 4.18324 5.98698 5.66177H6.98698ZM17.4725 8.65521H11.4751V9.65521H17.4725V8.65521ZM10.9751 9.15521V61.9383H11.9751V9.15521H10.9751ZM56.183 0.5H19.6534V1.5H56.183V0.5ZM19.1534 1V6.98049H20.1534V1H19.1534ZM13.656 63.613C12.7264 63.613 11.9751 62.8619 11.9751 61.9383H10.9751C10.9751 63.4168 12.1767 64.613 13.656 64.613V63.613ZM17.4725 9.65521C18.9518 9.65521 20.1534 8.45903 20.1534 6.98049H19.1534C19.1534 7.90408 18.4022 8.65521 17.4725 8.65521V9.65521ZM58.8639 3.17472C58.8639 1.69618 57.6623 0.5 56.183 0.5V1.5C57.1127 1.5 57.8639 2.25113 57.8639 3.17472H58.8639ZM68.2754 76.2308C73.264 79.5126 75.1894 80.1291 81.7607 85.641L82.4034 84.8748C75.7729 79.3134 73.7378 78.6272 68.825 75.3953L68.2754 76.2308ZM81.7607 85.641C84.6191 88.0385 86.8917 90.4811 88.5239 92.4826L89.2989 91.8506C87.6327 89.8075 85.3165 87.3183 82.4034 84.8748L81.7607 85.641ZM93.4464 91.6104L96.4017 81.4033L95.4412 81.1252L92.4858 91.3322L93.4464 91.6104ZM95.6856 78.8294C93.6207 76.8541 90.4605 73.3307 89.1463 70.0886L88.2195 70.4642C89.6178 73.9136 92.9111 77.5592 94.9944 79.552L95.6856 78.8294ZM89.1463 70.0886C88.6724 68.9194 88.3085 67.2764 87.952 65.3947C87.5993 63.5338 87.2548 61.4456 86.8197 59.4624C86.3842 57.4773 85.8484 55.5488 85.0956 53.984C84.346 52.4261 83.3447 51.1521 81.9356 50.5959L81.5684 51.5261C82.6346 51.9469 83.4897 52.9528 84.1945 54.4176C84.8959 55.8756 85.4121 57.7128 85.843 59.6767C86.2742 61.6424 86.6104 63.6862 86.9695 65.5809C87.3245 67.4548 87.7033 69.1907 88.2195 70.4642L89.1463 70.0886ZM66.9577 45.3534C64.0759 45.0188 60.6246 46.3734 58.0901 48.0323L58.6377 48.869C61.0881 47.2652 64.2979 46.0513 66.8423 46.3467L66.9577 45.3534ZM58.0901 48.0323C56.7302 48.9224 55.5837 49.9322 54.9034 50.8788C54.5648 51.3498 54.316 51.8404 54.2413 52.3187C54.1631 52.8198 54.2786 53.3131 54.6672 53.6966L55.3696 52.9848C55.2469 52.8637 55.1921 52.7112 55.2293 52.473C55.2701 52.2121 55.4224 51.87 55.7154 51.4624C56.2979 50.6519 57.3355 49.7214 58.6377 48.869L58.0901 48.0323ZM57.7764 52.8639C56.6791 52.5176 55.5667 52.5126 54.7972 52.8923L55.2396 53.7891C55.6954 53.5642 56.5194 53.5158 57.4754 53.8175L57.7764 52.8639ZM61.3816 55.6786C61.1342 55.288 60.8588 54.9375 60.5639 54.6256L59.8372 55.3126C60.0886 55.5785 60.3243 55.8783 60.5368 56.2137L61.3816 55.6786ZM60.5639 54.6256C59.725 53.7383 58.7305 53.165 57.7764 52.8639L57.4754 53.8175C58.2758 54.0701 59.1212 54.5553 59.8372 55.3126L60.5639 54.6256ZM66.7275 52.0379L60.0281 54.4998L60.373 55.4384L67.0725 52.9765L66.7275 52.0379ZM62.3281 56.9206C61.9417 56.4725 61.6183 56.0524 61.3816 55.6786L60.5368 56.2137C60.809 56.6435 61.1661 57.1043 61.5706 57.5736L62.3281 56.9206ZM66.6921 52.9619C67.2054 53.1965 67.9454 53.5922 68.6567 54.079L69.2215 53.2538C68.4582 52.7314 67.6675 52.3083 67.1079 52.0524L66.6921 52.9619ZM68.6567 54.079C69.1775 54.4354 69.6683 54.8307 70.0424 55.2365C70.4234 55.6497 70.6426 56.03 70.6976 56.3551L71.6836 56.1886C71.5818 55.5857 71.2139 55.0319 70.7776 54.5586C70.3345 54.078 69.778 53.6346 69.2215 53.2538L68.6567 54.079ZM62.3237 57.5786C62.9223 56.9026 63.985 55.9113 65.2033 55.1575C66.4387 54.3932 67.7347 53.9344 68.8406 54.1566L69.0376 53.1762C67.5502 52.8773 65.976 53.5035 64.6772 54.3071C63.3613 55.1213 62.2258 56.1809 61.575 56.9156L62.3237 57.5786ZM66.4664 60.9111C65.9828 60.4985 65.4571 60.0362 64.928 59.5501L64.2514 60.2865C64.7907 60.7819 65.3256 61.2523 65.8173 61.6718L66.4664 60.9111ZM64.928 59.5501C63.9964 58.6943 63.0617 57.7716 62.3281 56.9206L61.5706 57.5736C62.3398 58.4658 63.3059 59.4179 64.2514 60.2865L64.928 59.5501ZM70.6976 56.3551C70.7267 56.5274 70.7047 56.7746 70.6054 57.1021L71.5624 57.3921C71.6842 56.9905 71.7488 56.5744 71.6836 56.1886L70.6976 56.3551ZM70.6054 57.1021C70.2871 58.1526 69.325 59.5672 68.37 60.7566L69.1498 61.3827C70.1062 60.1915 71.1828 58.6451 71.5624 57.3921L70.6054 57.1021ZM65.0325 60.1505C65.4058 59.4388 66.1591 58.4582 67.1776 57.8461C68.1721 57.2484 69.4148 56.9992 70.8672 57.6977L71.3006 56.7965C69.4993 55.9302 67.8994 56.2455 66.6625 56.989C65.4495 57.718 64.5826 58.8554 64.1469 59.686L65.0325 60.1505ZM88.8449 43.91L76.6548 48.3897L76.9997 49.3284L89.1899 44.8487L88.8449 43.91ZM76.6548 48.3897L66.7275 52.0379L67.0725 52.9765L76.9997 49.3284L76.6548 48.3897ZM81.9732 50.6126C80.7966 50.0321 79.0179 49.2156 77.0167 48.3963L76.6378 49.3218C78.618 50.1324 80.3754 50.9394 81.5307 51.5094L81.9732 50.6126ZM73.2883 46.98C71.0544 46.2043 68.7931 45.5665 66.9577 45.3534L66.8423 46.3467C68.5681 46.5471 70.7475 47.1563 72.9602 47.9247L73.2883 46.98ZM57.8035 53.8081L73.3018 47.9198L72.9467 46.985L57.4483 52.8733L57.8035 53.8081ZM73.3018 47.9198L88.2198 42.252L87.8647 41.3172L72.9467 46.985L73.3018 47.9198ZM54.7972 52.8923C54.4863 53.0457 54.1822 53.2635 53.965 53.5985C53.7456 53.9369 53.6447 54.3489 53.6614 54.8373L54.6609 54.803C54.6496 54.4754 54.7177 54.2757 54.8041 54.1425C54.8928 54.0057 55.0313 53.8919 55.2396 53.7891L54.7972 52.8923ZM53.8455 54.4324L52.0624 55.8841L52.6938 56.6596L54.4768 55.2079L53.8455 54.4324ZM53.6614 54.8373C53.677 55.291 53.794 55.8195 54.0177 56.4411L54.9586 56.1026C54.7559 55.5392 54.6717 55.1179 54.6609 54.803L53.6614 54.8373ZM54.0177 56.4411C54.5247 57.8503 55.6219 59.8495 57.5745 62.7398L58.4031 62.18C56.4607 59.3047 55.4218 57.3899 54.9586 56.1026L54.0177 56.4411ZM52.3781 56.7719H54.4881V55.7719H52.3781V56.7719ZM89.3689 42.7659C89.5433 43.225 89.3094 43.7394 88.8449 43.91L89.1899 44.8487C90.1748 44.4867 90.6765 43.392 90.3036 42.4107L89.3689 42.7659ZM90.3036 42.4107C89.9329 41.4352 88.8399 40.9467 87.8647 41.3172L88.2198 42.252C88.6806 42.0769 89.195 42.3085 89.3689 42.7659L90.3036 42.4107ZM96.4017 81.4033C96.6718 80.4707 96.371 79.4851 95.6856 78.8294L94.9944 79.552C95.4278 79.9667 95.6012 80.5725 95.4412 81.1252L96.4017 81.4033ZM88.5239 92.4826C89.2133 93.328 90.2963 93.6156 91.2536 93.4589C92.2133 93.3018 93.1365 92.6806 93.4464 91.6104L92.4858 91.3322C92.306 91.9535 91.7588 92.3629 91.092 92.4721C90.4229 92.5816 89.7233 92.3711 89.2989 91.8506L88.5239 92.4826ZM65.8173 61.6718C66.8121 62.5206 68.3159 62.4211 69.1498 61.3827L68.37 60.7566C67.9046 61.3362 67.051 61.4099 66.4664 60.9111L65.8173 61.6718ZM8.66785 67.5977H47.3899V66.5977H8.66785V67.5977ZM47.3899 67.5977H51.1948V66.5977H47.3899V67.5977ZM47.8899 67.9074V67.0977H46.8899V67.9074H47.8899ZM13.656 64.613H53.3757V63.613H13.656V64.613ZM53.3757 64.613H56.183V63.613H53.3757V64.613ZM53.8757 64.923V64.113H52.8757V64.923H53.8757ZM5.98698 5.66177V6.96892H6.98698V5.66177H5.98698ZM5.98698 6.96892V64.923H6.98698V6.96892H5.98698ZM6.48698 6.46892H3.18087V7.46892H6.48698V6.46892ZM17.1593 2.98705H8.66785V3.98705H17.1593V2.98705ZM11.8282 9.50926L17.5124 3.8411L16.8063 3.133L11.1221 8.80116L11.8282 9.50926ZM17.5124 3.8411L20.0065 1.35405L19.3004 0.645948L16.8063 3.133L17.5124 3.8411ZM58.8639 48.4507V3.17472H57.8639V48.4507H58.8639ZM57.5745 62.7398C57.6448 62.8438 57.7142 62.9471 57.7829 63.0495L58.6136 62.4927C58.5443 62.3893 58.4741 62.2851 58.4031 62.18L57.5745 62.7398ZM57.7829 63.0495C62.1654 69.5879 63.2886 72.9501 68.2754 76.2308L68.825 75.3953C64.0619 72.2618 63.1159 69.21 58.6136 62.4927L57.7829 63.0495ZM56.183 64.613C57.2999 64.613 58.257 63.9315 58.6599 62.9632L57.7366 62.579C57.4839 63.1863 56.8833 63.613 56.183 63.613V64.613ZM83.3037 7.45261C83.2765 8.44277 83.2304 9.08992 83.1089 9.60947C82.9922 10.1086 82.8025 10.5028 82.4578 10.9698L83.2622 11.5637C83.6759 11.0035 83.9308 10.4867 84.0827 9.83712C84.2298 9.20791 84.2762 8.46847 84.3033 7.48005L83.3037 7.45261ZM83.3037 7.48005C83.3308 8.46847 83.3772 9.20792 83.5243 9.83712C83.6762 10.4867 83.9311 11.0035 84.3448 11.5637L85.1493 10.9698C84.8045 10.5028 84.6148 10.1086 84.4981 9.60947C84.3766 9.08992 84.3305 8.44277 84.3033 7.45261L83.3037 7.48005ZM84.3033 16.406C84.2762 15.4176 84.2298 14.6781 84.0827 14.0489C83.9308 13.3993 83.6759 12.8826 83.2622 12.3223L82.4578 12.9163C82.8025 13.3832 82.9922 13.7774 83.1089 14.2766C83.2304 14.7961 83.2765 15.4433 83.3037 16.4334L84.3033 16.406ZM84.3033 16.4334C84.3305 15.4433 84.3766 14.7961 84.4981 14.2766C84.6148 13.7774 84.8045 13.3832 85.1493 12.9163L84.3448 12.3223C83.9311 12.8826 83.6762 13.3993 83.5243 14.0489C83.3772 14.6781 83.3308 15.4176 83.3037 16.406L84.3033 16.4334ZM84.3448 11.5637C84.5112 11.7891 84.5112 12.0969 84.3448 12.3223L85.1493 12.9163C85.5764 12.3378 85.5764 11.5483 85.1493 10.9698L84.3448 11.5637ZM82.4578 10.9698C82.0306 11.5483 82.0306 12.3378 82.4578 12.9163L83.2622 12.3223C83.0958 12.0969 83.0958 11.7891 83.2622 11.5637L82.4578 10.9698ZM36.4985 55.0183L37.3987 57.7114L38.3471 57.3944L37.447 54.7013L36.4985 55.0183ZM38.4293 57.9255L42.8085 53.0569L42.065 52.3882L37.6858 57.2568L38.4293 57.9255ZM42.1269 52.7952V58.7183H43.1269V52.7952H42.1269ZM43.2163 59.0926L46.3355 55.0936L45.547 54.4785L42.4278 58.4776L43.2163 59.0926ZM45.7432 55.1215L47.9424 57.4513L48.6696 56.7648L46.4703 54.4351L45.7432 55.1215ZM48.8946 57.3675L51.2176 53.8294L50.3816 53.2805L48.0587 56.8186L48.8946 57.3675ZM50.916 57.1962L52.9933 56.6988L52.7605 55.7263L50.6832 56.2237L50.916 57.1962ZM47.9424 57.4513C48.2122 57.737 48.6786 57.6965 48.8946 57.3675L48.0587 56.8186C48.1974 56.6073 48.4965 56.5815 48.6696 56.7648L47.9424 57.4513ZM46.3355 55.0936C46.1881 55.2825 45.9074 55.2955 45.7432 55.1215L46.4703 54.4351C46.2143 54.1639 45.7766 54.1843 45.547 54.4785L46.3355 55.0936ZM42.1269 58.7183C42.1269 59.3008 42.8619 59.5469 43.2163 59.0926L42.4278 58.4776C42.6547 58.1867 43.1269 58.343 43.1269 58.7183H42.1269ZM42.8085 53.0569C42.5708 53.3211 42.1269 53.1568 42.1269 52.7952H43.1269C43.1269 52.234 42.4362 51.9755 42.065 52.3882L42.8085 53.0569ZM37.3987 57.7114C37.547 58.155 38.1179 58.2717 38.4293 57.9255L37.6858 57.2568C37.8854 57.0348 38.2518 57.1091 38.3471 57.3944L37.3987 57.7114Z" fill="#31477B"/>
    <defs>
        <linearGradient id="paint0_linear" x1="18" y1="21.5" x2="53" y2="21.5" gradientUnits="userSpaceOnUse">
            <stop stop-color="#16A7D8"/>
            <stop offset="1" stop-color="#1290B4"/>
        </linearGradient>
        <linearGradient id="paint1_linear" x1="18" y1="30.5" x2="53" y2="30.5" gradientUnits="userSpaceOnUse">
            <stop stop-color="#16A7D8"/>
            <stop offset="1" stop-color="#1290B4"/>
        </linearGradient>
        <linearGradient id="paint2_linear" x1="18" y1="38.5" x2="53" y2="38.5" gradientUnits="userSpaceOnUse">
            <stop stop-color="#16A7D8"/>
            <stop offset="1" stop-color="#1290B4"/>
        </linearGradient>
        <linearGradient id="paint3_linear" x1="18" y1="25.5" x2="53" y2="25.5" gradientUnits="userSpaceOnUse">
            <stop stop-color="#16A7D8"/>
            <stop offset="1" stop-color="#1290B4"/>
        </linearGradient>
        <linearGradient id="paint4_linear" x1="18" y1="34.5" x2="53" y2="34.5" gradientUnits="userSpaceOnUse">
            <stop stop-color="#16A7D8"/>
            <stop offset="1" stop-color="#1290B4"/>
        </linearGradient>
        <linearGradient id="paint5_linear" x1="18" y1="43.5" x2="53" y2="43.5" gradientUnits="userSpaceOnUse">
            <stop stop-color="#16A7D8"/>
            <stop offset="1" stop-color="#1290B4"/>
        </linearGradient>
        <linearGradient id="paint6_linear" x1="73.175" y1="23.5" x2="80" y2="23.5" gradientUnits="userSpaceOnUse">
            <stop stop-color="#FEB43F"/>
            <stop offset="1" stop-color="#FECB3E"/>
        </linearGradient>
        <linearGradient id="paint7_linear" x1="73.175" y1="23.5" x2="80" y2="23.5" gradientUnits="userSpaceOnUse">
            <stop stop-color="#FEB43F"/>
            <stop offset="1" stop-color="#FECB3E"/>
        </linearGradient>
    </defs>
</svg>
