<svg width="96" height="96" viewBox="0 0 96 96" fill="none" xmlns="http://www.w3.org/2000/svg">
    <path d="M33 17C21.9543 17 13 25.9543 13 37C13 42.0722 14.8882 46.7035 18 50.2291L21 28C21 27.6667 21.3 27 22.5 27C23.7 27 42.6134 29.3333 51.92 30.5C49.2221 22.6451 41.7703 17 33 17Z" fill="url(#paint0_linear)"/>
    <path d="M66 76.5C66 79.5376 63.5376 82 60.5 82C57.4624 82 55 79.5376 55 76.5C55 73.4624 57.4624 71 60.5 71C63.5376 71 66 73.4624 66 76.5Z" fill="url(#paint1_linear)"/>
    <path d="M64.9951 35.5467L20.4561 30.074L19.7194 36.0696L64.2584 41.5424L64.9951 35.5467Z" fill="url(#paint2_linear)"/>
    <path d="M26.8115 49.1132C26.9277 48.1671 26.255 47.3059 25.3089 47.1897C24.3628 47.0734 23.5016 47.7462 23.3854 48.6922C23.2691 49.6383 23.9418 50.4995 24.8879 50.6158C25.834 50.732 26.6952 50.0593 26.8115 49.1132Z" fill="url(#paint3_linear)"/>
    <path d="M24.2419 48.7974C24.3582 47.8513 23.6854 46.9901 22.7394 46.8739C21.7933 46.7576 20.9321 47.4303 20.8158 48.3764C20.6996 49.3225 21.3723 50.1837 22.3184 50.3C23.2645 50.4162 24.1256 49.7435 24.2419 48.7974Z" fill="url(#paint4_linear)"/>
    <path d="M43.5443 66.7891L43.5705 67.2885H43.5705L43.5443 66.7891ZM59.9817 56.5081L59.626 56.1567L59.6264 56.1563L59.9817 56.5081ZM65.5443 49.6679L65.1288 49.3897L65.5443 49.6679ZM68.3181 41.8801L67.9294 42.1946L67.9293 42.1944L68.3181 41.8801ZM65.0803 41.4761L65.2167 41.9572L65.2166 41.9572L65.0803 41.4761ZM62.1712 43.9747L61.7237 43.7514L61.7291 43.7411L62.1712 43.9747ZM56.4851 52.0822L56.1361 51.7242L56.4851 52.0822ZM47.9048 57.0268L48.0367 57.5092L48.0263 57.5118L47.9048 57.0268ZM35.0691 52.8339L34.7511 53.2197L35.0691 52.8339ZM34.6648 52.5544L34.907 52.117L34.6648 52.5544ZM29.2097 51.2093L29.2257 51.709L29.2247 51.7091L29.2097 51.2093ZM21.9366 55.1394C21.7502 55.3431 21.4339 55.357 21.2302 55.1705C21.0266 54.984 21.0126 54.6677 21.1991 54.4641L21.9366 55.1394ZM4.01019 64.5255L3.51243 64.5728V64.5728L4.01019 64.5255ZM5.65166 69.3642L5.23042 69.6336L5.2304 69.6336L5.65166 69.3642ZM11.9958 73.9885L12.1405 73.5098L11.9958 73.9885ZM15.1136 72.3793L14.6685 72.1514L15.1136 72.3793ZM19.2791 67.2883L18.9768 66.8901L18.9772 66.8898L19.2791 67.2883ZM47.2784 66.3436L47.186 65.8522L47.1866 65.8521L47.2784 66.3436ZM76.0097 44.764L76.4554 44.5374L76.4571 44.5408L76.0097 44.764ZM75.3336 44.1736L75.1096 44.6206L75.3336 44.1736ZM56.5163 51.5759C56.7909 51.5462 57.0375 51.7446 57.0673 52.0192C57.097 52.2937 56.8985 52.5404 56.624 52.5701L56.5163 51.5759ZM61.4953 61.2963C61.2518 61.4266 60.9489 61.3347 60.8186 61.0912C60.6884 60.8477 60.7802 60.5448 61.0237 60.4145L61.4953 61.2963ZM80.2586 49.6679L80.5721 50.0574L80.571 50.0583L80.2586 49.6679ZM81.983 47.0015L81.4894 47.0812L81.489 47.0789L81.983 47.0015ZM80.2586 45.3545L80.0941 45.8266L80.0905 45.8253L80.2586 45.3545ZM76.1725 47.0673C75.9714 47.2566 75.655 47.2469 75.4657 47.0458C75.2765 46.8447 75.2861 46.5283 75.4872 46.3391L76.1725 47.0673ZM79.9859 45.0576C80.04 45.3284 79.8642 45.5918 79.5934 45.6458C79.3226 45.6999 79.0593 45.5241 79.0052 45.2533L79.9859 45.0576ZM78.1806 43.3033L77.9535 43.7488L77.9522 43.7481L78.1806 43.3033ZM75.3384 44.3721C75.1532 44.5769 74.837 44.5928 74.6322 44.4076C74.4274 44.2224 74.4115 43.9062 74.5967 43.7014L75.3384 44.3721ZM4.68546 62.6095L4.31411 62.2747L4.68546 62.6095ZM17.8337 51.5903C18.0662 51.4413 18.3755 51.5091 18.5244 51.7416C18.6734 51.9741 18.6057 52.2833 18.3732 52.4323L17.8337 51.5903ZM63.7032 31.9101L63.7642 31.4138L63.7032 31.9101ZM22.5903 26.8583L22.6512 26.362L22.5903 26.8583ZM20.6667 28.3608L21.163 28.4218L20.6667 28.3608ZM17.9304 50.6303L17.4341 50.5693L17.9304 50.6303ZM65.2057 33.8336L64.7095 33.7726L65.2057 33.8336ZM19.4329 52.5539L19.4939 52.0576L19.4329 52.5539ZM56.6698 46.6961L56.6088 47.1924L56.6698 46.6961ZM47.2481 45.5384L47.3091 45.0421L47.2481 45.5384ZM47.6691 42.1123L47.7301 41.6161L47.6691 42.1123ZM57.0908 43.27L57.0298 43.7663H57.0298L57.0908 43.27ZM41.2525 44.8017L41.3135 44.3055L41.2525 44.8017ZM23.2656 42.5916L23.2046 43.0879L23.2656 42.5916ZM23.6866 39.1655L23.7475 38.6692L23.6866 39.1655ZM41.6735 41.3757L41.6125 41.8719L41.6735 41.3757ZM43.3478 66.3294C53.5286 61.9759 56.5682 59.2513 59.626 56.1567L60.3373 56.8596C57.18 60.0548 54.0293 62.8494 43.7409 67.2489L43.3478 66.3294ZM59.6264 56.1563C61.5357 54.2279 63.5424 51.7595 65.1288 49.3897L65.9598 49.946C64.3399 52.3658 62.2934 54.884 60.337 56.8599L59.6264 56.1563ZM65.1288 49.3897C66.2618 47.6972 67.1669 46.075 67.6728 44.7494C67.9262 44.0852 68.0702 43.5191 68.1028 43.0691C68.1359 42.6131 68.0506 42.3444 67.9294 42.1946L68.7069 41.5656C69.0542 41.9949 69.1422 42.5623 69.1002 43.1414C69.0578 43.7267 68.8784 44.3948 68.6071 45.1059C68.0633 46.5308 67.1129 48.2235 65.9598 49.946L65.1288 49.3897ZM67.9293 42.1944C67.761 41.9862 67.3802 41.8295 66.8068 41.79C66.2595 41.7524 65.6598 41.8315 65.2167 41.9572L64.9439 40.9951C65.487 40.8411 66.2023 40.7461 66.8754 40.7924C67.5225 40.8369 68.2674 41.0219 68.707 41.5658L67.9293 42.1944ZM65.2166 41.9572C63.6303 42.4066 62.8274 43.803 62.6133 44.2082L61.7291 43.7411C61.9616 43.3011 62.9327 41.5649 64.944 40.9951L65.2166 41.9572ZM62.6186 44.1979C61.0626 47.3163 59.1876 50.1457 56.8342 52.4402L56.1361 51.7242C58.3867 49.53 60.2014 46.8024 61.7238 43.7514L62.6186 44.1979ZM56.8342 52.4402C54.4423 54.7722 51.5618 56.5458 48.0366 57.5091L47.773 56.5445C51.1213 55.6295 53.8553 53.9478 56.1361 51.7242L56.8342 52.4402ZM48.0263 57.5118C42.9049 58.7948 38.4577 56.2755 34.7511 53.2197L35.3872 52.4481C39.039 55.4587 43.1488 57.7028 47.7833 56.5418L48.0263 57.5118ZM34.4225 52.9918C33.4664 52.4622 31.6238 51.6322 29.2257 51.709L29.1937 50.7095C31.8401 50.6248 33.8658 51.5403 34.907 52.117L34.4225 52.9918ZM29.2247 51.7091C25.0829 51.8332 22.4684 54.5586 21.9366 55.1394L21.1991 54.4641C21.7714 53.8391 24.6278 50.8464 29.1947 50.7095L29.2247 51.7091ZM4.50794 64.4782C4.62365 65.6956 4.98937 67.4001 6.07292 69.0949L5.2304 69.6336C4.0371 67.7671 3.63823 65.8964 3.51243 64.5728L4.50794 64.4782ZM6.07291 69.0949C7.76428 71.74 10.3041 72.9548 12.1405 73.5098L11.8511 74.4671C9.88823 73.8738 7.09795 72.5541 5.23042 69.6336L6.07291 69.0949ZM14.6685 72.1514C15.5725 70.3866 16.9259 68.4472 18.9768 66.8901L19.5815 67.6865C17.6816 69.129 16.4149 70.9355 15.5586 72.6073L14.6685 72.1514ZM18.9772 66.8898C22.5134 64.2104 26.1739 64.2428 30.1481 64.83C34.1471 65.4209 38.4302 66.556 43.5182 66.2898L43.5705 67.2885C38.3496 67.5616 33.8722 66.3912 30.0019 65.8193C26.1068 65.2437 22.7892 65.2561 19.5811 67.6868L18.9772 66.8898ZM43.5182 66.2898C44.6986 66.2281 45.9197 66.0904 47.186 65.8522L47.3709 66.835C46.0582 67.0819 44.7926 67.2245 43.5705 67.2885L43.5182 66.2898ZM47.1866 65.8521C54.2209 64.5371 60.7778 60.9773 65.836 57.0855C68.3631 55.1412 70.5077 53.1204 72.1435 51.2674C73.7866 49.4062 74.8914 47.7425 75.3715 46.5142L76.3029 46.8783C75.7604 48.266 74.5673 50.0328 72.8931 51.9293C71.2116 53.834 69.0194 55.898 66.4458 57.8781C61.3028 61.8351 54.6029 65.483 47.3703 66.8351L47.1866 65.8521ZM75.3715 46.5142C75.6858 45.7105 75.6809 45.225 75.5623 44.9873L76.4571 44.5408C76.7773 45.1826 76.6359 46.0265 76.3029 46.8783L75.3715 46.5142ZM75.564 44.9906C75.4782 44.822 75.3108 44.7214 75.1096 44.6206L75.5575 43.7266C75.7533 43.8246 76.2062 44.0473 76.4554 44.5374L75.564 44.9906ZM75.1096 44.6206C75.02 44.5757 74.9268 44.5391 74.8298 44.5101L75.1156 43.5518C75.2667 43.5969 75.4143 43.6548 75.5575 43.7266L75.1096 44.6206ZM74.8298 44.5101C74.1616 44.3108 73.2897 44.4761 72.2837 44.9406C71.2926 45.3982 70.255 46.1072 69.3022 46.8632C68.3527 47.6167 67.5043 48.4031 66.8922 49.0026C66.5866 49.3019 66.3409 49.5537 66.172 49.7301C66.0876 49.8182 66.0225 49.8875 65.9788 49.9344C65.9569 49.9579 65.9404 49.9757 65.9295 49.9876C65.9241 49.9935 65.92 49.9979 65.9174 50.0007C65.9161 50.0021 65.9152 50.0032 65.9146 50.0038C65.9143 50.0041 65.9141 50.0043 65.914 50.0044C65.914 50.0045 65.914 50.0045 65.9139 50.0045C65.914 50.0045 65.914 50.0045 65.5443 49.6679C65.1746 49.3313 65.1746 49.3312 65.1747 49.3311C65.1748 49.331 65.1749 49.3309 65.1751 49.3307C65.1753 49.3304 65.1757 49.33 65.1761 49.3295C65.177 49.3286 65.1783 49.3272 65.1799 49.3254C65.1831 49.3219 65.1878 49.3168 65.1939 49.3101C65.2061 49.2969 65.224 49.2776 65.2473 49.2526C65.2938 49.2027 65.362 49.1302 65.4496 49.0386C65.6248 48.8556 65.8781 48.5961 66.1925 48.2882C66.8203 47.6733 67.6954 46.8616 68.6806 46.0799C69.6627 45.3007 70.771 44.5375 71.8645 44.0327C72.9431 43.5347 74.0945 43.2473 75.1156 43.5518L74.8298 44.5101ZM56.4313 51.5851L56.5163 51.5759L56.624 52.5701L56.539 52.5793L56.4313 51.5851ZM61.0237 60.4145C62.0803 59.8495 65.8782 57.8132 69.8843 55.54C73.9059 53.258 78.0886 50.7641 79.9462 49.2775L80.571 50.0583C78.6387 51.6047 74.3795 54.139 70.3778 56.4097C66.3606 58.6892 62.5539 60.7302 61.4953 61.2963L61.0237 60.4145ZM79.9451 49.2784C80.5121 48.8221 80.9339 48.4028 81.1961 48.0181C81.4569 47.6356 81.53 47.3328 81.4894 47.0812L82.4766 46.9218C82.5724 47.5155 82.3665 48.0766 82.0224 48.5814C81.6798 49.0839 81.1713 49.5752 80.5721 50.0574L79.9451 49.2784ZM81.489 47.0789C81.437 46.7471 81.1791 46.4509 80.8267 46.2067C80.4863 45.9708 80.1439 45.844 80.0941 45.8266L80.4232 44.8823C80.516 44.9147 80.9521 45.0769 81.3963 45.3848C81.8286 45.6844 82.3615 46.187 82.477 46.9241L81.489 47.0789ZM80.0905 45.8253C79.2142 45.5125 78.3049 45.7444 77.5423 46.1262C76.786 46.5047 76.2517 46.9931 76.179 47.0612L75.4954 46.3313C75.5997 46.2336 76.215 45.6722 77.0947 45.2319C77.968 44.7948 79.1808 44.4387 80.4267 44.8836L80.0905 45.8253ZM76.1799 47.0604L76.1725 47.0673L75.4872 46.3391L75.4946 46.3321L76.1799 47.0604ZM79.0052 45.2533C78.9747 45.1005 78.7722 44.1662 77.9535 43.7488L78.4077 42.8579C79.6855 43.5094 79.9544 44.8997 79.9859 45.0576L79.0052 45.2533ZM77.9522 43.7481C77.1783 43.3508 76.0878 43.5453 75.3432 44.3668L74.6023 43.6952C75.607 42.5868 77.1772 42.2261 78.4089 42.8585L77.9522 43.7481ZM75.3436 44.3664L75.3384 44.3721L74.5967 43.7014L74.6019 43.6956L75.3436 44.3664ZM5.05682 62.9443C4.66193 63.3823 4.45608 63.9324 4.50795 64.4782L3.51243 64.5728C3.43026 63.7082 3.76028 62.889 4.31411 62.2747L5.05682 62.9443ZM12.1405 73.5098C13.1024 73.8006 14.1273 73.2079 14.6685 72.1514L15.5586 72.6073C14.8853 73.9216 13.4391 74.947 11.8511 74.4671L12.1405 73.5098ZM34.7511 53.2197C34.642 53.1297 34.5337 53.0534 34.4225 52.9918L34.907 52.117C35.0835 52.2148 35.2425 52.3288 35.3872 52.4481L34.7511 53.2197ZM18.3732 52.4323C12.3613 56.2843 7.84846 59.8479 5.05682 62.9443L4.31411 62.2747C7.19304 59.0815 11.7918 55.4615 17.8337 51.5903L18.3732 52.4323ZM63.6422 32.4063L22.5293 27.3545L22.6512 26.362L63.7642 31.4138L63.6422 32.4063ZM21.163 28.4218L18.4266 50.6913L17.4341 50.5693L20.1705 28.2998L21.163 28.4218ZM63.7345 41.7074L64.7095 33.7726L65.702 33.8946L64.727 41.8293L63.7345 41.7074ZM37.6749 54.2916L50.3566 55.8499L50.2347 56.8424L37.5529 55.2841L37.6749 54.2916ZM19.4939 52.0576L23.5298 52.5535L23.4078 53.546L19.3719 53.0501L19.4939 52.0576ZM18.4266 50.6913C18.344 51.3633 18.8219 51.975 19.4939 52.0576L19.3719 53.0501C18.1518 52.9002 17.2842 51.7895 17.4341 50.5693L18.4266 50.6913ZM22.5293 27.3545C21.8573 27.272 21.2456 27.7498 21.163 28.4218L20.1705 28.2998C20.3204 27.0797 21.4311 26.2121 22.6512 26.362L22.5293 27.3545ZM63.7642 31.4138C64.9843 31.5637 65.8519 32.6744 65.702 33.8946L64.7095 33.7726C64.792 33.1006 64.3142 32.4889 63.6422 32.4063L63.7642 31.4138ZM57.0298 43.7663L47.6081 42.6086L47.7301 41.6161L57.1518 42.7738L57.0298 43.7663ZM47.3091 45.0421L56.7308 46.1998L56.6088 47.1924L47.1871 46.0347L47.3091 45.0421ZM56.7308 46.1998C57.4028 46.2824 58.0145 45.8046 58.0971 45.1326L59.0896 45.2545C58.9397 46.4747 57.829 47.3423 56.6088 47.1924L56.7308 46.1998ZM46.2418 43.6758C46.1592 44.3479 46.6371 44.9596 47.3091 45.0421L47.1871 46.0347C45.967 45.8847 45.0994 44.7741 45.2493 43.5539L46.2418 43.6758ZM47.6081 42.6086C46.9361 42.526 46.3244 43.0038 46.2418 43.6758L45.2493 43.5539C45.3992 42.3337 46.5099 41.4661 47.7301 41.6161L47.6081 42.6086ZM57.1518 42.7738C58.3719 42.9237 59.2395 44.0344 59.0896 45.2545L58.0971 45.1326C58.1796 44.4606 57.7018 43.8489 57.0298 43.7663L57.1518 42.7738ZM41.6125 41.8719L23.6256 39.6618L23.7475 38.6692L41.7344 40.8794L41.6125 41.8719ZM23.3266 42.0953L41.3135 44.3055L41.1915 45.298L23.2046 43.0879L23.3266 42.0953ZM41.3135 44.3055C41.9855 44.388 42.5972 43.9102 42.6797 43.2382L43.6723 43.3602C43.5223 44.5803 42.4117 45.4479 41.1915 45.298L41.3135 44.3055ZM22.2593 40.729C22.1767 41.401 22.6545 42.0127 23.3266 42.0953L23.2046 43.0879C21.9844 42.9379 21.1168 41.8272 21.2668 40.6071L22.2593 40.729ZM23.6256 39.6618C22.9536 39.5792 22.3419 40.057 22.2593 40.729L21.2668 40.6071C21.4167 39.3869 22.5274 38.5193 23.7475 38.6692L23.6256 39.6618ZM41.7344 40.8794C42.9546 41.0293 43.8222 42.14 43.6723 43.3602L42.6797 43.2382C42.7623 42.5662 42.2845 41.9545 41.6125 41.8719L41.7344 40.8794Z" fill="url(#paint5_linear)"/>
    <defs>
        <linearGradient id="paint0_linear" x1="14.325" y1="49.5" x2="66" y2="49.5" gradientUnits="userSpaceOnUse">
            <stop stop-color="#FEB43F"/>
            <stop offset="1" stop-color="#FECB3E"/>
        </linearGradient>
        <linearGradient id="paint1_linear" x1="14.325" y1="49.5" x2="66" y2="49.5" gradientUnits="userSpaceOnUse">
            <stop stop-color="#FEB43F"/>
            <stop offset="1" stop-color="#FECB3E"/>
        </linearGradient>
        <linearGradient id="paint2_linear" x1="64.9951" y1="40.3514" x2="19.7194" y2="40.3514" gradientUnits="userSpaceOnUse">
            <stop stop-color="#16A7D8"/>
            <stop offset="1" stop-color="#1290B4"/>
        </linearGradient>
        <linearGradient id="paint3_linear" x1="64.9951" y1="40.3514" x2="19.7194" y2="40.3514" gradientUnits="userSpaceOnUse">
            <stop stop-color="#16A7D8"/>
            <stop offset="1" stop-color="#1290B4"/>
        </linearGradient>
        <linearGradient id="paint4_linear" x1="64.9951" y1="40.3514" x2="19.7194" y2="40.3514" gradientUnits="userSpaceOnUse">
            <stop stop-color="#16A7D8"/>
            <stop offset="1" stop-color="#1290B4"/>
        </linearGradient>
        <linearGradient id="paint5_linear" x1="82" y1="50.4653" x2="4" y2="50.4653" gradientUnits="userSpaceOnUse">
            <stop stop-color="#16A7D8"/>
            <stop offset="1" stop-color="#1290B4"/>
        </linearGradient>
    </defs>
</svg>
