<svg width="76" height="98" viewBox="0 0 76 98" fill="none" xmlns="http://www.w3.org/2000/svg">
    <path fill-rule="evenodd" clip-rule="evenodd" d="M41.6158 23.212C42.3566 23.6565 42.6116 24.6083 42.1923 25.3636C41.6052 26.4212 42.357 27.723 43.5664 27.7434C44.4302 27.7579 45.127 28.4546 45.1415 29.3184C45.1619 30.5278 46.4637 31.2793 47.5212 30.6922C48.2766 30.2729 49.2284 30.528 49.6729 31.2688C50.2952 32.306 51.7985 32.306 52.4208 31.2689C52.8652 30.5281 53.817 30.2731 54.5724 30.6924C55.63 31.2795 56.9321 30.5278 56.9524 29.3183C56.967 28.4545 57.6637 27.7577 58.5275 27.7432C59.7369 27.7228 60.4885 26.421 59.9014 25.3635C59.4821 24.6082 59.7371 23.6564 60.4779 23.2119C61.5151 22.5896 61.515 21.0864 60.4778 20.4641C59.737 20.0196 59.4819 19.0677 59.9013 18.3124C60.4883 17.2548 59.7368 15.953 58.5274 15.9326C57.6636 15.9181 56.9668 15.2212 56.9523 14.3574C56.932 13.148 55.6301 12.3962 54.5725 12.9833C53.8171 13.4026 52.8653 13.1476 52.4208 12.4067C51.7985 11.3695 50.2951 11.3697 49.6728 12.4069C49.2283 13.1477 48.2751 13.402 47.5198 12.9827C46.4641 12.3966 45.162 13.1456 45.1417 14.3529C45.1272 15.2136 44.4305 15.9085 43.5699 15.9253C42.36 15.9488 41.6046 17.2533 42.1919 18.3113C42.6113 19.0667 42.3567 20.0195 41.6158 20.464C40.5786 21.0864 40.5785 22.5897 41.6158 23.212ZM51.0466 28.5355C54.7457 28.5355 57.7443 25.5369 57.7443 21.8379C57.7443 18.1388 54.7457 15.1402 51.0466 15.1402C47.3476 15.1402 44.349 18.1388 44.349 21.8379C44.349 25.5369 47.3476 28.5355 51.0466 28.5355Z" fill="url(#paint0_linear)"/>
    <path d="M57.244 21.8378C57.244 25.2607 54.4692 28.0355 51.0463 28.0355C47.6234 28.0355 44.8486 25.2607 44.8486 21.8378C44.8486 18.4149 47.6234 15.6401 51.0463 15.6401C54.4692 15.6401 57.244 18.4149 57.244 21.8378Z" fill="url(#paint1_linear)" stroke="url(#paint2_linear)" stroke-linecap="round" stroke-linejoin="round"/>
    <path d="M39.3254 49.9885C39.0493 49.9885 38.8254 50.2123 38.8254 50.4885C38.8254 50.7646 39.0493 50.9885 39.3254 50.9885V49.9885ZM62.7673 50.9885C63.0435 50.9885 63.2673 50.7646 63.2673 50.4885C63.2673 50.2123 63.0435 49.9885 62.7673 49.9885V50.9885ZM46.0102 26.0357C46.1056 25.7766 45.973 25.4892 45.7139 25.3937C45.4548 25.2982 45.1673 25.4308 45.0718 25.6899L46.0102 26.0357ZM40.4027 39.806L39.9336 39.6331L39.9328 39.6351L40.4027 39.806ZM42.0623 41.2044L42.3103 41.6385H42.3103L42.0623 41.2044ZM44.0608 40.0624L43.8128 39.6282H43.8128L44.0608 40.0624ZM45.6965 40.6105L46.1561 40.4136L45.6965 40.6105ZM46.4171 42.292L46.8767 42.0951L46.4171 42.292ZM57.2002 25.6952C57.1077 25.4351 56.8217 25.2992 56.5616 25.3918C56.3014 25.4843 56.1655 25.7703 56.2581 26.0304L57.2002 25.6952ZM61.6902 39.806L61.2192 39.9736L61.2203 39.9769L61.6902 39.806ZM60.0307 41.2044L59.7826 41.6385L60.0307 41.2044ZM58.0321 40.0624L58.2802 39.6282L58.0321 40.0624ZM56.3965 40.6105L56.856 40.8075L56.3965 40.6105ZM55.6758 42.292L55.2162 42.0951L55.6758 42.292ZM53.5023 42.1543L53.9831 42.0169L53.5023 42.1543ZM48.5907 42.1543L49.0714 42.2916L48.5907 42.1543ZM51.5465 29.3729C51.5465 29.0967 51.3226 28.8729 51.0465 28.8729C50.7703 28.8729 50.5465 29.0967 50.5465 29.3729H51.5465ZM37.2207 2.79803C37.2207 2.08128 37.8017 1.50024 38.5185 1.50024V0.500244C37.2495 0.500244 36.2207 1.529 36.2207 2.79803H37.2207ZM63.5741 1.50024C64.2908 1.50024 64.8719 2.08128 64.8719 2.79803H65.8719C65.8719 1.52899 64.8431 0.500244 63.5741 0.500244V1.50024ZM64.8719 2.79803V53.9002H65.8719V2.79803H64.8719ZM64.8719 53.9002C64.8719 54.6169 64.2908 55.1979 63.5741 55.1979V56.1979C64.8431 56.1979 65.8719 55.1692 65.8719 53.9002H64.8719ZM63.5741 55.1979H38.5185V56.1979H63.5741V55.1979ZM38.5185 55.1979C37.8017 55.1979 37.2207 54.6169 37.2207 53.9002H36.2207C36.2207 55.1692 37.2495 56.1979 38.5185 56.1979V55.1979ZM37.2207 53.9002V8.45902H36.2207V53.9002H37.2207ZM37.2207 8.45902V2.79803H36.2207V8.45902H37.2207ZM38.5185 1.50024H53.8285V0.500244H38.5185V1.50024ZM53.8285 1.50024H63.5741V0.500244H53.8285V1.50024ZM39.3254 50.9885H62.7673V49.9885H39.3254V50.9885ZM45.0718 25.6899L39.9336 39.6331L40.8719 39.9789L46.0102 26.0357L45.0718 25.6899ZM42.3103 41.6385L44.3089 40.4965L43.8128 39.6282L41.8142 40.7703L42.3103 41.6385ZM45.2369 40.8075L45.9576 42.489L46.8767 42.0951L46.1561 40.4136L45.2369 40.8075ZM56.2581 26.0304L61.2192 39.9736L62.1613 39.6384L57.2002 25.6952L56.2581 26.0304ZM60.2788 40.7703L58.2802 39.6282L57.7841 40.4965L59.7826 41.6385L60.2788 40.7703ZM55.9369 40.4136L55.2162 42.0951L56.1354 42.489L56.856 40.8075L55.9369 40.4136ZM53.9831 42.0169L51.5272 33.4216L50.5657 33.6963L53.0215 42.2916L53.9831 42.0169ZM49.0714 42.2916L51.5272 33.6963L50.5657 33.4216L48.1099 42.0169L49.0714 42.2916ZM51.5465 33.5589V29.3729H50.5465V33.5589H51.5465ZM55.2162 42.0951C54.9732 42.6623 54.1526 42.6102 53.9831 42.0169L53.0215 42.2916C53.4496 43.7898 55.5216 43.9211 56.1354 42.489L55.2162 42.0951ZM61.2203 39.9769C61.429 40.5508 60.809 41.0732 60.2788 40.7703L59.7826 41.6385C61.1214 42.4035 62.6871 41.0842 62.1601 39.6351L61.2203 39.9769ZM45.9576 42.489C46.5713 43.9211 48.6434 43.7898 49.0714 42.2916L48.1099 42.0169C47.9404 42.6102 47.1198 42.6623 46.8767 42.0951L45.9576 42.489ZM44.3089 40.4965C44.649 40.3021 45.0826 40.4474 45.2369 40.8075L46.1561 40.4136C45.7664 39.5044 44.6716 39.1375 43.8128 39.6282L44.3089 40.4965ZM58.2802 39.6282C57.4213 39.1375 56.3266 39.5044 55.9369 40.4136L56.856 40.8075C57.0104 40.4474 57.4439 40.3021 57.7841 40.4965L58.2802 39.6282ZM39.9328 39.6351C39.4059 41.0842 40.9716 42.4035 42.3103 41.6385L41.8142 40.7703C41.284 41.0732 40.6639 40.5508 40.8726 39.9769L39.9328 39.6351Z" fill="url(#paint3_linear)"/>
    <path d="M29.092 67.0563C32.4752 65.2236 35.269 62.3292 36.9606 58.9165C40.9974 50.7641 38.8957 40.1092 44.7266 33.0817C46.4695 30.9835 48.7891 29.4163 50.5448 27.3308C52.3005 25.2453 53.4539 22.2877 52.3005 19.8356C51.3522 17.8133 48.9173 17.371 46.854 18.2683C44.7779 19.1657 43.4579 21.1375 41.8816 22.7427C39.2161 25.4854 35.7047 27.2549 32.4496 29.2772C29.1817 31.2995 25.9779 33.7768 24.4528 37.2653C23.5045 39.4519 23.1969 42.0556 21.4156 43.6735" fill="white"/>
    <path d="M32.0779 22.1737C32.0779 22.1737 24.1837 28.127 21.6335 31.3122C20.6467 32.5508 20.1341 34.0802 19.6599 35.5843C17.7761 41.5501 15.5332 47.7055 14.1364 53.7977C13.0983 58.2973 12.2013 62.8728 10.343 67.107C8.85884 70.499 3.57305 77.7047 1.50529 80.4681C0.984008 81.1647 0.853438 82.074 1.17263 82.8806C4.30091 90.7854 7.18843 94.8891 15.7965 96.9339C17.0767 97.2379 18.3455 96.4619 18.7256 95.2185C20.3379 89.9441 24.5431 76.8376 26.9518 75.3478C29.925 73.5151 32.9494 73.3128 35.9482 71.5053C40.8052 68.5983 41.4641 61.4388 41.5795 55.8269" fill="white"/>
    <path d="M66.2078 28.9925C68.1557 29.6371 73.4484 31.0847 74.0892 32.9806C74.73 34.8765 73.1409 36.5196 71.5261 36.9746C69.9114 37.4296 67.8738 37.1895 66.2078 36.9746" fill="white"/>
    <path d="M66.2078 40.5008C66.2078 40.5008 74.7299 42.4602 74.7299 44.3561C74.7299 46.252 72.8717 47.4526 71.5005 47.6675C70.1293 47.8824 67.5534 47.2123 66.2078 46.8205" fill="white"/>
    <path d="M51.5059 55.8452C51.5059 55.8452 55.9144 60.7998 56.9268 62.5819C57.2728 63.1886 57.5932 63.9344 57.3113 64.579C56.9653 65.4005 55.876 65.6154 54.9917 65.5269C52.5696 65.2868 50.4807 63.7069 48.866 61.8994C47.2513 60.092 45.5015 57.5641 43.8099 55.8452" fill="white"/>
    <path d="M29.092 67.0563C32.4752 65.2236 35.269 62.3292 36.9606 58.9165C40.9974 50.7641 38.8957 40.1092 44.7266 33.0817C46.4695 30.9835 48.7891 29.4163 50.5448 27.3308C52.3005 25.2453 53.4539 22.2877 52.3005 19.8356C51.3522 17.8133 48.9173 17.371 46.854 18.2683C44.7779 19.1657 43.4579 21.1375 41.8816 22.7427C39.2161 25.4854 35.7047 27.2549 32.4496 29.2772C29.1817 31.2995 25.9779 33.7768 24.4528 37.2653C23.5045 39.4519 23.1969 42.0556 21.4156 43.6735M41.5795 55.8269C41.4641 61.4388 40.8052 68.5983 35.9482 71.5053C32.9494 73.3128 29.925 73.5151 26.9518 75.3478C24.5431 76.8376 20.3379 89.9441 18.7256 95.2185C18.3455 96.4619 17.0767 97.2379 15.7965 96.9339C7.18843 94.8891 4.30091 90.7854 1.17263 82.8806C0.853438 82.074 0.984008 81.1647 1.50529 80.4681C3.57305 77.7047 8.85884 70.499 10.343 67.107C12.2013 62.8728 13.0983 58.2973 14.1364 53.7977C15.5332 47.7055 17.7761 41.5501 19.6599 35.5843C20.1341 34.0802 20.6467 32.5508 21.6335 31.3122C24.1837 28.127 32.0779 22.1737 32.0779 22.1737H36.9606M66.2078 28.9925C68.1557 29.6371 73.4484 31.0847 74.0892 32.9806C74.73 34.8765 73.1409 36.5196 71.5261 36.9746C69.9114 37.4296 67.8738 37.1895 66.2078 36.9746M66.2078 40.5008C66.2078 40.5008 74.7299 42.4602 74.7299 44.3561C74.7299 46.252 72.8718 47.4526 71.5005 47.6675C70.1293 47.8824 67.5534 47.2123 66.2078 46.8205M51.5059 55.8452C51.5059 55.8452 55.9144 60.7998 56.9268 62.5819C57.2728 63.1886 57.5932 63.9344 57.3113 64.579C56.9653 65.4005 55.876 65.6154 54.9917 65.5269C52.5696 65.2868 50.4807 63.7069 48.866 61.8994C47.2513 60.092 45.5015 57.5641 43.8099 55.8452" stroke="url(#paint4_linear)" stroke-linecap="round" stroke-linejoin="round"/>
    <defs>
        <linearGradient id="paint0_linear" x1="41.3483" y1="21.8378" x2="61.2557" y2="21.8378" gradientUnits="userSpaceOnUse">
            <stop stop-color="#FEB43F"/>
            <stop offset="1" stop-color="#FECB3E"/>
        </linearGradient>
        <linearGradient id="paint1_linear" x1="44.6835" y1="21.8378" x2="57.744" y2="21.8378" gradientUnits="userSpaceOnUse">
            <stop stop-color="#FEB43F"/>
            <stop offset="1" stop-color="#FECB3E"/>
        </linearGradient>
        <linearGradient id="paint2_linear" x1="44.3486" y1="21.8378" x2="57.744" y2="21.8378" gradientUnits="userSpaceOnUse">
            <stop stop-color="#16A7D8"/>
            <stop offset="1" stop-color="#1290B4"/>
        </linearGradient>
        <linearGradient id="paint3_linear" x1="36.7207" y1="28.3491" x2="65.3719" y2="28.3491" gradientUnits="userSpaceOnUse">
            <stop stop-color="#16A7D8"/>
            <stop offset="1" stop-color="#1290B4"/>
        </linearGradient>
        <linearGradient id="paint4_linear" x1="1" y1="57.413" x2="74.7299" y2="57.413" gradientUnits="userSpaceOnUse">
            <stop stop-color="#16A7D8"/>
            <stop offset="1" stop-color="#1290B4"/>
        </linearGradient>
    </defs>
</svg>
