<svg width="97" height="98" viewBox="0 0 97 98" fill="none" xmlns="http://www.w3.org/2000/svg">
    <path d="M89.4483 66.5423V14C89.4483 12.8954 88.5528 12 87.4483 12H9.55172C8.44715 12 7.55172 12.8954 7.55172 14V66.5423M89.4483 66.5423H95.5C95.7761 66.5423 96 66.7661 96 67.0423V68C96 69.1046 95.1046 70 94 70H81M89.4483 66.5423H79.5M7.55172 66.5423H1.5C1.22386 66.5423 1 66.7661 1 67.0423V68C1 69.1046 1.89543 70 3 70H10M7.55172 66.5423H11M28.5 33H63M28.5 36H68M28.5 39H54.5M28.5 42H63M28.5 45H66M28.5 48H31M54 48H47M54.2837 70H47M63.5 70H60M58.5 64H59M55 64H47M78 64H84.5C85.6046 64 86.5 63.1046 86.5 62V17.5C86.5 16.3954 85.6046 15.5 84.5 15.5H12.5C11.3954 15.5 10.5 16.3954 10.5 17.5V62C10.5 62.7403 10.6407 63.7324 11.5 63.7324C12.3593 63.7324 12 63.7324 12 63.7324M61 66.5423H47M74.3788 61.2114C77.188 61.9137 77.4221 63.0842 79.5291 67.2981C81.2146 70.6691 84.5 81.1101 95.5 81.5C93.4711 87.4306 89.1792 96.795 89.1792 96.795C89.1047 95.5676 79.9973 89.7719 75.5493 88.1332C71.1014 86.4945 62.6737 83.9194 61.035 81.1101C59.3962 78.3009 54.246 70.8097 54.0119 68.9368C53.7778 67.064 57.0552 67.064 58.6939 68.9368C60.3327 70.8097 64.3124 75.2576 64.7806 74.7894C65.2488 74.3212 64.5465 71.9802 63.376 69.6391C62.4396 67.7663 59.8645 64.801 58.6939 63.5525C58.5379 63.7086 58.0385 64.1612 57.2893 64.723C56.3529 65.4253 54.7142 64.9571 54.9483 63.0843C55.1416 61.5377 57.4105 59.6717 58.9861 59.0687M75.5493 63.3183C74.5349 61.4455 72.2251 57.5594 71.1014 56.9976C69.9777 56.4357 68.4315 56.228 67.8072 56.306M67.8072 56.306C68.6712 57.3667 69.5351 58.8313 70.3991 60.0409C71.3355 61.3518 72 63 72 63M67.8072 56.306C67.5007 55.9296 67.1941 55.6041 66.8876 55.3588C65.717 54.4224 60.0986 55.3588 58.2258 57.6999C57.4284 58.6966 57.989 59.0143 58.9861 59.0687M58.9861 59.0687C59.3184 58.9415 59.6198 58.8705 59.8644 58.8705C60.0402 58.8705 60.2679 58.9239 60.5326 59.0183M60.5326 59.0183C61.6079 58.9295 62.6967 58.7814 63.1419 58.8705C64.0783 59.0577 65.2488 61.1334 65.717 62.1479C64.4662 61.2263 61.9604 59.5272 60.5326 59.0183ZM73 59.1252V19H24V50M30 68.5C28.8216 72.9496 25.2186 82.0801 21.1712 81.4345C17.3226 80.8205 12.0454 90.2122 9.55219 95.685C9.38406 96.0541 8.88802 96.1117 8.64307 95.7895" stroke="url(#paint0_linear)" stroke-linecap="round" stroke-linejoin="round"/>
    <path d="M31.6129 65.7845V62.3344C31.9516 61.3078 31.8565 60.4373 31.6129 59.7791V57.7611C31.6129 57.464 31.3745 57.2231 31.0803 57.2231H30.9833C30.9253 56.8376 30.7667 56.5118 30.5478 56.239C30.3152 55.3075 29.6004 53.3651 28.6013 53.0471C28.9164 52.6522 29.1722 52.2438 29.3698 51.8427L30.8085 52.7054C31.1635 52.9183 31.6129 52.6598 31.6129 52.2427V48.6144C31.6129 47 37.4709 46.9999 39.6011 47C41.7314 46.9999 47.5894 47.0001 47.5894 48.6145V73.3642C47.5894 75.5164 41.9977 75.5164 39.6011 75.5164C37.2047 75.5164 31.6129 75.5164 31.6129 73.3642V71.9585C31.6129 71.5913 31.2036 71.2078 30.9865 70.9132C30.8074 70.6702 30.6415 70.2608 30.5478 69.5979C30.5143 69.3613 30.4473 69.1249 30.355 68.8926C29.8602 67.6458 28.641 66.5121 28 66.0422C28.4848 65.8232 28.9972 65.5032 29.4827 65.1164L30.355 65.9068C30.4126 65.9626 30.4767 66.0088 30.5478 66.0422L30.7466 66.2037C31.095 66.4869 31.6129 66.2363 31.6129 65.7845Z" fill="url(#paint1_linear)" stroke="url(#paint2_linear)" stroke-linecap="round" stroke-linejoin="round"/>
    <path d="M27.0987 53.9951C26.6228 54.4053 26.0676 54.7746 25.4315 55.0712C23.4453 55.9973 22.5111 57.3664 22.1259 58.5684M27.0987 53.9951C27.3041 54.214 27.5717 54.6041 27.7174 55.0712M27.0987 53.9951C27.4447 53.6968 27.7489 53.3768 28.0117 53.0474C28.3268 52.6525 28.5826 52.244 28.7802 51.8429C29.4246 50.5348 29.4496 49.3054 28.8931 48.8838C27.828 48.0767 25.9641 49.6908 19.8398 52.112C13.7154 54.5332 10.8835 69.2718 9.55214 72.5C8.53905 74.9565 4.19998 77.6426 1.78033 78.9147C1.56951 79.0255 1.45512 79.2642 1.49976 79.5C3.05324 87.7076 4.43421 90.2533 8.64301 95.7897C8.88797 96.112 9.384 96.0543 9.55214 95.6852C12.0453 90.2124 17.3225 80.8208 21.1711 81.4347M22.1259 58.5684C21.8397 59.4613 21.8565 60.262 21.97 60.7206C22.0133 60.8957 22.0919 61.2205 22.1817 61.6555M22.1259 58.5684C22.4155 59.462 22.8288 59.9013 23.3013 60.0336M27.7174 55.0712C27.87 55.5606 27.8887 56.1347 27.5617 56.6853C26.9524 57.7113 24.8205 60.4588 23.3013 60.0336M27.7174 55.0712C28.393 55.1729 29.3834 55.523 29.9582 56.2393C30.1771 56.512 30.3357 56.8379 30.3937 57.2233C30.4519 57.6096 30.409 58.0558 30.2245 58.5684M22.6275 64.7559C22.8122 67.1287 22.6389 69.9709 21.1711 71.7504M22.6275 64.7559C22.5316 63.5247 22.3394 62.42 22.1817 61.6555M22.6275 64.7559C23.214 64.9939 24.0228 64.8107 24.899 64.3581M23.3013 60.0336C22.9467 60.3478 22.2263 61.1122 22.1817 61.6555M30.2245 58.5684C29.4735 60.6549 26.9936 63.2763 24.899 64.3581M30.2245 58.5684C30.4748 58.7791 30.8074 59.1958 31.0233 59.7794C31.2669 60.4376 31.3621 61.308 31.0233 62.3347C30.7399 63.1938 30.0876 64.053 29.3163 64.7559C29.1786 64.8814 29.037 65.002 28.8931 65.1167C28.4077 65.5035 27.8952 65.8235 27.4104 66.0425C26.576 66.4193 25.8235 66.4969 25.4315 66.101C24.5795 65.2401 24.7215 64.5804 24.899 64.3581" stroke="url(#paint3_linear)" stroke-linecap="round" stroke-linejoin="round"/>
    <rect x="28" y="23" width="41" height="5" rx="2" fill="url(#paint4_linear)"/>
    <path d="M39 9L35 2M48 9V1M56 9L60 2" stroke="url(#paint5_linear)" stroke-linecap="round"/>
    <defs>
        <linearGradient id="paint0_linear" x1="1" y1="54.3975" x2="96" y2="54.3975" gradientUnits="userSpaceOnUse">
            <stop stop-color="#16A7D8"/>
            <stop offset="1" stop-color="#1290B4"/>
        </linearGradient>
        <linearGradient id="paint1_linear" x1="28.4897" y1="61.2582" x2="47.5894" y2="61.2582" gradientUnits="userSpaceOnUse">
            <stop stop-color="#FEB43F"/>
            <stop offset="1" stop-color="#FECB3E"/>
        </linearGradient>
        <linearGradient id="paint2_linear" x1="28" y1="61.2582" x2="47.5894" y2="61.2582" gradientUnits="userSpaceOnUse">
            <stop stop-color="#16A7D8"/>
            <stop offset="1" stop-color="#1290B4"/>
        </linearGradient>
        <linearGradient id="paint3_linear" x1="1.49023" y1="72.3371" x2="31.2431" y2="72.3371" gradientUnits="userSpaceOnUse">
            <stop stop-color="#16A7D8"/>
            <stop offset="1" stop-color="#1290B4"/>
        </linearGradient>
        <linearGradient id="paint4_linear" x1="29.025" y1="25.5" x2="69" y2="25.5" gradientUnits="userSpaceOnUse">
            <stop stop-color="#FEB43F"/>
            <stop offset="1" stop-color="#FECB3E"/>
        </linearGradient>
        <linearGradient id="paint5_linear" x1="35" y1="5" x2="60" y2="5" gradientUnits="userSpaceOnUse">
            <stop stop-color="#16A7D8"/>
            <stop offset="1" stop-color="#1290B4"/>
        </linearGradient>
    </defs>
</svg>
