<svg width="99" height="50" viewBox="0 0 99 50" fill="none" xmlns="http://www.w3.org/2000/svg">
    <path d="M16.5513 10.2483H11L11.6691 7H26.7866L26.1175 10.2483H20.5909L17.7657 24.2259H13.7509L16.5513 10.2483ZM30.8381 24.4228C29.4998 24.4228 28.3185 24.1767 27.2941 23.6846C26.2863 23.1924 25.5015 22.5034 24.9398 21.6174C24.3945 20.7151 24.1219 19.6734 24.1219 18.4922C24.1219 17.0321 24.4689 15.7196 25.1628 14.5548C25.8567 13.39 26.815 12.4713 28.0376 11.7987C29.2602 11.126 30.6398 10.7897 32.1763 10.7897C33.5311 10.7897 34.7124 11.0358 35.7203 11.528C36.7281 12.0201 37.5046 12.7174 38.0499 13.6197C38.6116 14.5056 38.8925 15.5392 38.8925 16.7204C38.8925 18.1805 38.5455 19.4929 37.8516 20.6577C37.1742 21.8225 36.2159 22.7412 34.9768 23.4139C33.7542 24.0865 32.3746 24.4228 30.8381 24.4228ZM31.0859 21.2483C31.8294 21.2483 32.4985 21.0679 33.0933 20.7069C33.6881 20.3296 34.1507 19.8128 34.4811 19.1566C34.8116 18.5004 34.9768 17.7457 34.9768 16.8926C34.9768 15.9903 34.7124 15.2767 34.1837 14.7517C33.655 14.2267 32.9116 13.9642 31.9533 13.9642C31.1933 13.9642 30.5159 14.1529 29.9211 14.5302C29.3263 14.8911 28.8637 15.3997 28.5333 16.0559C28.2028 16.7122 28.0376 17.4668 28.0376 18.3199C28.0376 19.2222 28.302 19.9359 28.8307 20.4608C29.3759 20.9858 30.1276 21.2483 31.0859 21.2483ZM50.2256 10.7897C51.2665 10.7897 52.2248 11.0276 53.1004 11.5034C53.9926 11.9791 54.6948 12.6682 55.2069 13.5705C55.7356 14.4564 56 15.5063 56 16.7204C56 18.1805 55.6696 19.5011 55.0087 20.6823C54.3643 21.8471 53.4804 22.7658 52.3569 23.4385C51.2334 24.0947 49.986 24.4228 48.6147 24.4228C46.5825 24.4228 45.1451 23.7666 44.3025 22.4541L42.989 29H39.1229L42.7412 10.9866H46.409L46.1364 12.2908C47.2434 11.2901 48.6065 10.7897 50.2256 10.7897ZM48.1686 21.2483C48.9286 21.2483 49.606 21.0679 50.2008 20.7069C50.7956 20.3296 51.2582 19.8128 51.5887 19.1566C51.9191 18.5004 52.0843 17.7457 52.0843 16.8926C52.0843 15.9903 51.8117 15.2767 51.2665 14.7517C50.7378 14.2267 49.9943 13.9642 49.036 13.9642C48.2925 13.9642 47.6234 14.1529 47.0286 14.5302C46.4338 14.8911 45.9712 15.3997 45.6408 16.0559C45.3103 16.7122 45.1451 17.4668 45.1451 18.3199C45.1451 19.2222 45.4095 19.9359 45.9382 20.4608C46.4669 20.9858 47.2104 21.2483 48.1686 21.2483Z" fill="#323232"/>
    <path d="M70.8519 15.7265H74.4819L73.0593 22.8867C72.1927 23.5663 71.1871 24.0884 70.0426 24.453C68.898 24.8177 67.7125 25 66.4862 25C64.7693 25 63.2732 24.6851 61.9978 24.0552C60.7224 23.4254 59.7332 22.5387 59.0301 21.395C58.3434 20.2514 58 18.9337 58 17.442C58 15.4696 58.4497 13.6878 59.349 12.0967C60.2483 10.5055 61.5155 9.26243 63.1506 8.3674C64.7857 7.4558 66.6661 7 68.7917 7C70.4268 7 71.8412 7.25691 73.0348 7.77072C74.2448 8.28453 75.2177 9.03867 75.9535 10.0331L73.1084 12.3702C72.5361 11.6906 71.8902 11.2017 71.1708 10.9033C70.4513 10.5884 69.6011 10.4309 68.62 10.4309C67.3119 10.4309 66.1592 10.7293 65.1618 11.326C64.1643 11.9061 63.3877 12.7099 62.8317 13.7376C62.2921 14.7652 62.0224 15.9171 62.0224 17.1934C62.0224 18.5359 62.4475 19.605 63.2977 20.4006C64.1643 21.1796 65.3988 21.5691 67.0012 21.5691C68.015 21.5691 68.9634 21.3619 69.8463 20.9475L70.8519 15.7265ZM83.0289 24.9006C81.7044 24.9006 80.5353 24.6519 79.5216 24.1547C78.5241 23.6575 77.7475 22.9613 77.1915 22.0663C76.6519 21.1547 76.3822 20.1022 76.3822 18.9088C76.3822 17.4337 76.7255 16.1077 77.4123 14.9309C78.099 13.7541 79.0474 12.826 80.2574 12.1464C81.4673 11.4669 82.8326 11.1271 84.3533 11.1271C85.6941 11.1271 86.8632 11.3757 87.8606 11.8729C88.858 12.3702 89.6265 13.0746 90.1661 13.9862C90.722 14.8812 91 15.9254 91 17.1188C91 18.5939 90.6566 19.9199 89.9699 21.0967C89.2995 22.2735 88.3511 23.2017 87.1248 23.8812C85.9148 24.5608 84.5495 24.9006 83.0289 24.9006ZM83.2741 21.6934C84.0099 21.6934 84.6721 21.5111 85.2608 21.1464C85.8494 20.7652 86.3072 20.2431 86.6343 19.5801C86.9613 18.9171 87.1248 18.1547 87.1248 17.2928C87.1248 16.3812 86.8632 15.6602 86.3399 15.1298C85.8167 14.5994 85.0809 14.3343 84.1326 14.3343C83.3804 14.3343 82.71 14.5249 82.1214 14.9061C81.5327 15.2707 81.0749 15.7845 80.7479 16.4475C80.4209 17.1105 80.2574 17.8729 80.2574 18.7348C80.2574 19.6464 80.519 20.3674 81.0422 20.8978C81.5818 21.4282 82.3258 21.6934 83.2741 21.6934Z" fill="#F5C744"/>
    <path d="M1 40.1224C35.9901 31.5915 69.1933 28.8327 99 28C73.4344 31.539 41.4149 41.1289 27.7056 48C16.918 44.2116 7.15938 40.5644 1 40.1224Z" fill="#F5C744"/>
</svg>
