<svg width="233" height="125" viewBox="0 0 233 125" fill="none" xmlns="http://www.w3.org/2000/svg">
<path d="M20.5651 20.6164H9.81306L11.1091 14.2804H40.3891L39.0931 20.6164H28.3891L22.9171 47.8804H15.1411L20.5651 20.6164ZM48.2359 48.2644C45.6439 48.2644 43.3559 47.7844 41.3719 46.8244C39.4199 45.8644 37.8999 44.5204 36.8119 42.7924C35.7559 41.0324 35.2279 39.0004 35.2279 36.6964C35.2279 33.8484 35.8999 31.2884 37.2439 29.0164C38.5879 26.7444 40.4439 24.9524 42.8119 23.6404C45.1799 22.3284 47.8519 21.6724 50.8279 21.6724C53.4519 21.6724 55.7399 22.1524 57.6919 23.1124C59.6439 24.0724 61.1479 25.4324 62.2039 27.1924C63.2919 28.9204 63.8359 30.9364 63.8359 33.2404C63.8359 36.0884 63.1639 38.6484 61.8199 40.9204C60.5079 43.1924 58.6519 44.9844 56.2519 46.2964C53.8839 47.6084 51.2119 48.2644 48.2359 48.2644ZM48.7159 42.0724C50.1559 42.0724 51.4519 41.7204 52.6039 41.0164C53.7559 40.2804 54.6519 39.2724 55.2919 37.9924C55.9319 36.7124 56.2519 35.2404 56.2519 33.5764C56.2519 31.8164 55.7399 30.4244 54.7159 29.4004C53.6919 28.3764 52.2519 27.8644 50.3959 27.8644C48.9239 27.8644 47.6119 28.2324 46.4599 28.9684C45.3079 29.6724 44.4119 30.6644 43.7719 31.9444C43.1319 33.2244 42.8119 34.6964 42.8119 36.3604C42.8119 38.1204 43.3239 39.5124 44.3479 40.5364C45.4039 41.5604 46.8599 42.0724 48.7159 42.0724ZM85.7862 21.6724C87.8022 21.6724 89.6582 22.1364 91.3542 23.0644C93.0822 23.9924 94.4422 25.3364 95.4342 27.0964C96.4582 28.8244 96.9702 30.8724 96.9702 33.2404C96.9702 36.0884 96.3302 38.6644 95.0502 40.9684C93.8022 43.2404 92.0902 45.0324 89.9142 46.3444C87.7382 47.6244 85.3222 48.2644 82.6662 48.2644C78.7302 48.2644 75.9462 46.9844 74.3142 44.4244L71.7702 57.1924H64.2822L71.2902 22.0564H78.3942L77.8662 24.6004C80.0102 22.6484 82.6502 21.6724 85.7862 21.6724ZM81.8022 42.0724C83.2742 42.0724 84.5862 41.7204 85.7382 41.0164C86.8902 40.2804 87.7862 39.2724 88.4262 37.9924C89.0662 36.7124 89.3862 35.2404 89.3862 33.5764C89.3862 31.8164 88.8582 30.4244 87.8022 29.4004C86.7782 28.3764 85.3382 27.8644 83.4822 27.8644C82.0422 27.8644 80.7462 28.2324 79.5942 28.9684C78.4422 29.6724 77.5462 30.6644 76.9062 31.9444C76.2662 33.2244 75.9462 34.6964 75.9462 36.3604C75.9462 38.1204 76.4582 39.5124 77.4822 40.5364C78.5062 41.5604 79.9462 42.0724 81.8022 42.0724Z" fill="#323232"/>
<path d="M120.079 14.2804C124.271 14.2804 127.503 15.2084 129.775 17.0644C132.079 18.8884 133.231 21.4484 133.231 24.7444C133.231 27.5604 132.559 30.0244 131.215 32.1364C129.903 34.2164 128.015 35.8164 125.551 36.9364C123.119 38.0564 120.239 38.6164 116.911 38.6164H109.423L107.599 47.8804H99.7748L106.495 14.2804H120.079ZM117.247 32.2804C119.839 32.2804 121.839 31.6884 123.247 30.5044C124.655 29.3204 125.359 27.6244 125.359 25.4164C125.359 23.8164 124.815 22.6164 123.727 21.8164C122.671 21.0164 121.135 20.6164 119.119 20.6164H113.023L110.671 32.2804H117.247ZM139.118 22.0564H146.558L141.422 47.8804H133.982L139.118 22.0564ZM144.11 18.4564C142.83 18.4564 141.774 18.0884 140.942 17.3524C140.142 16.5844 139.742 15.6564 139.742 14.5684C139.742 13.2884 140.19 12.2324 141.086 11.4004C142.014 10.5364 143.214 10.1044 144.686 10.1044C145.998 10.1044 147.054 10.4724 147.854 11.2084C148.686 11.9124 149.102 12.7924 149.102 13.8484C149.102 15.2244 148.638 16.3444 147.71 17.2084C146.782 18.0404 145.582 18.4564 144.11 18.4564ZM173.429 26.5684L157.493 42.1204H170.741L169.589 47.8804H146.549L147.461 43.3684L163.397 27.8164H150.965L152.117 22.0564H174.293L173.429 26.5684ZM199.491 26.5684L183.555 42.1204H196.803L195.651 47.8804H172.611L173.523 43.3684L189.459 27.8164H177.027L178.179 22.0564H200.355L199.491 26.5684ZM231.514 22.0564L226.378 47.8804H219.274L219.754 45.3364C217.61 47.2884 214.97 48.2644 211.834 48.2644C209.818 48.2644 207.962 47.8004 206.266 46.8724C204.57 45.9444 203.21 44.6164 202.186 42.8884C201.194 41.1284 200.698 39.0644 200.698 36.6964C200.698 33.8484 201.322 31.2884 202.57 29.0164C203.85 26.7124 205.578 24.9204 207.754 23.6404C209.93 22.3284 212.33 21.6724 214.954 21.6724C218.922 21.6724 221.722 22.9684 223.354 25.5604L224.026 22.0564H231.514ZM214.138 42.0724C215.61 42.0724 216.922 41.7204 218.074 41.0164C219.226 40.2804 220.122 39.2724 220.762 37.9924C221.402 36.7124 221.722 35.2404 221.722 33.5764C221.722 31.8164 221.194 30.4244 220.138 29.4004C219.114 28.3764 217.674 27.8644 215.818 27.8644C214.346 27.8644 213.034 28.2324 211.882 28.9684C210.73 29.6724 209.834 30.6644 209.194 31.9444C208.554 33.2244 208.234 34.6964 208.234 36.3604C208.234 38.1204 208.746 39.5124 209.77 40.5364C210.826 41.5604 212.282 42.0724 214.138 42.0724Z" fill="#F04141"/>
<path d="M0.987305 84.6171C82.4329 60.898 159.036 57.7546 227.591 60.898C180.988 69.361 118.271 102.225 85.9083 124.323C61.6206 108.345 15.0753 87.4952 0.987305 84.6171Z" fill="#F5C744"/>
<path d="M102.377 93.7897C103.675 106.984 79.9955 108.1 76.2006 97.6194C71.2666 83.9924 101.159 81.403 102.377 93.7897Z" fill="#BE1515"/>
<path d="M84.5455 92.5815C84.5656 89.8381 87.1345 88.6076 88.5251 89.8882C90.8104 91.9928 84.5284 94.9116 84.5455 92.5815Z" fill="#EE4646"/>
<path d="M94.8967 88.9623C96.5066 89.0333 96.3392 91.5705 95.114 91.117C93.8889 90.6635 94.1075 88.9276 94.8967 88.9623Z" fill="#EE4646"/>
<path d="M89.8698 96.6849C92.8878 95.8787 94.3547 99.545 91.7605 99.658C89.1663 99.7709 87.1806 97.2148 89.8698 96.6849Z" fill="#EE4646"/>
<path d="M80.3297 96.1861C82.8802 95.0983 83.3852 97.9323 82.0815 98.6014C80.7779 99.2704 77.7792 97.2739 80.3297 96.1861Z" fill="#EE4646"/>
<path d="M92.2977 93.0253C93.2246 93.2357 93.9613 94.2802 92.9394 94.4868C91.9174 94.6935 91.3709 92.8149 92.2977 93.0253Z" fill="#EE4646"/>
<path d="M100.599 94.2956C99.468 94.0389 98.972 96.3825 100.067 96.631C101.161 96.8795 101.862 94.5823 100.599 94.2956Z" fill="#EE4646"/>
<path d="M97.3395 100.047C97.785 98.4815 96.1784 98.415 95.6852 99.1453C95.1919 99.8755 96.894 101.613 97.3395 100.047Z" fill="#EE4646"/>
<path d="M79.6826 90.8636C80.8099 89.8037 81.8542 91.4443 81.3185 91.849C80.7827 92.2537 78.555 91.9235 79.6826 90.8636Z" fill="#EE4646"/>
<path d="M86.565 100.786C88.1777 101.152 87.4248 102.358 86.0394 102.219C84.654 102.08 85.0495 100.442 86.565 100.786Z" fill="#EE4646"/>
<path d="M120.061 88.9831C115.49 78.4457 138.224 76.4806 141.472 81.8296C147.699 92.0835 124.121 98.3439 120.061 88.9831Z" fill="#F04141"/>
<path d="M126.326 91.6053C124.755 90.6366 127.503 88.1392 130.714 85.8212C131.762 87.6087 134.663 91.1733 133.019 91.8652C130.965 92.7301 127.897 92.574 126.326 91.6053Z" fill="#C41C1C"/>
<path d="M135.777 90.3344C133.715 90.2513 131.775 87.1013 131.48 85.579C134.394 84.9217 140.178 83.4087 140.665 85.579C141.108 87.551 138 90.4238 135.777 90.3344Z" fill="#C41C1C"/>
<path d="M139.074 82.7956C138.838 83.8697 133.356 84.7019 131.203 85.0485C130.714 83.0881 129.463 80.9476 131.802 80.2858C134.264 79.5894 139.476 80.962 139.074 82.7956Z" fill="#C41C1C"/>
<path d="M128.512 80.687C129.387 80.687 130.231 83.6332 130.714 85.1985C127.719 85.1985 122.622 84.4443 123.299 83.0881C124.145 81.3929 126.531 80.687 128.512 80.687Z" fill="#C41C1C"/>
<path d="M122.088 85.0485C123.298 84.1242 128.108 85.3663 130.231 85.579C128.209 87.2726 125.511 90.2911 123.871 90.161C121.683 89.9877 120.739 86.0781 122.088 85.0485Z" fill="#C41C1C"/>
<path d="M191.025 65.3499C193.114 72.7056 179.231 72.7166 177.609 68.9291C174.498 61.6686 189.168 58.8155 191.025 65.3499Z" fill="#F04141"/>
<path d="M187.397 63.2237C188.286 63.9663 186.462 65.4886 184.37 66.8634C183.851 65.5999 182.324 63.0334 183.363 62.6625C184.662 62.199 186.508 62.4811 187.397 63.2237Z" fill="#C31C1C"/>
<path d="M181.596 63.5337C182.839 63.7086 183.81 65.9406 183.891 66.9822C182.086 67.2565 178.489 67.9411 178.333 66.4522C178.191 65.0995 180.256 63.3453 181.596 63.5337Z" fill="#C31C1C"/>
<path d="M179.117 68.4174C179.329 67.7082 182.7 67.4643 184.025 67.3552C184.195 68.7029 184.815 70.2157 183.357 70.5262C181.822 70.8528 178.756 69.6283 179.117 68.4174Z" fill="#C31C1C"/>
<path d="M185.373 70.4459C184.844 70.3955 184.522 68.3639 184.33 67.2825C186.142 67.4553 189.179 68.257 188.682 69.1307C188.062 70.2229 186.572 70.5602 185.373 70.4459Z" fill="#C31C1C"/>
<path d="M189.541 67.8811C188.749 68.4334 185.918 67.3199 184.647 67.0543C185.979 66.031 187.805 64.1552 188.79 64.3373C190.102 64.5802 190.423 67.266 189.541 67.8811Z" fill="#C31C1C"/>
<path d="M46.4916 82.5952C43.0288 71.8945 67.0961 73.1536 69.8263 78.7136C75.06 89.3719 49.5677 92.1011 46.4916 82.5952Z" fill="#F04141"/>
<path d="M52.7255 85.9658C51.2012 84.8233 54.3953 82.8159 58.0514 81.0438C58.9241 82.8966 61.5155 86.7035 59.7061 87.1379C57.4444 87.6809 54.2498 87.1084 52.7255 85.9658Z" fill="#C31C1C"/>
<path d="M62.7887 86.0555C60.6379 85.6915 59.0023 82.4136 58.8843 80.9181C62.0204 80.692 68.2708 80.0442 68.5087 82.1856C68.7249 84.1313 65.1066 86.4478 62.7887 86.0555Z" fill="#C31C1C"/>
<path d="M67.1913 79.3059C66.8088 80.2998 60.9601 80.3387 58.6609 80.3729C58.3954 78.4319 57.3538 76.2137 59.8882 75.9041C62.5551 75.5783 67.8442 77.6093 67.1913 79.3059Z" fill="#C31C1C"/>
<path d="M56.3904 75.8335C57.3067 75.9542 57.8203 78.8862 58.1298 80.4487C54.9921 80.0355 49.7458 78.6113 50.6256 77.4087C51.7254 75.9054 54.3151 75.5602 56.3904 75.8335Z" fill="#C31C1C"/>
<path d="M49.1101 79.1151C50.4951 78.3989 55.3786 80.2495 57.5754 80.7457C55.2444 82.0853 52.0377 84.5976 50.3349 84.2469C48.065 83.7795 47.5674 79.9129 49.1101 79.1151Z" fill="#C31C1C"/>
<path d="M85.9083 124.147C61.6206 108.169 15.0753 87.3187 0.987305 84.4406C7.92151 82.4212 12.3992 81.2448 19.2612 79.5149C30.8841 81.2883 78.9176 101.548 97.8446 116.261C92.1429 119.741 90.5143 121.002 85.9083 124.147Z" fill="#E7A441"/>
<path d="M125.194 72.1745C125.194 79.1055 106.143 79.9996 106.143 72.1745C106.143 65.728 125.194 63.6714 125.194 72.1745Z" fill="#BE1515"/>
<path d="M110.65 69.2059C111.602 68.1408 113.621 68.5332 113.116 69.5422C112.611 70.5513 109.529 70.4952 110.65 69.2059Z" fill="#EE4646"/>
<path d="M111.543 72.6918C113.957 72.9201 114.12 76.1825 111.543 75.3342C108.966 74.486 109.161 72.496 111.543 72.6918Z" fill="#EE4646"/>
<path d="M117.187 70.6365C115.393 70.8975 114.903 73.0506 116.534 73.1811C118.166 73.3116 118.981 70.3755 117.187 70.6365Z" fill="#EE4646"/>
<path d="M120.025 68.1897C121.004 68.7117 119.699 69.6349 119.34 69.2059C118.981 68.7769 119.177 67.7656 120.025 68.1897Z" fill="#EE4646"/>
<path d="M121.983 73.3768C121.004 73.3768 120.743 74.486 121.722 74.5187C122.7 74.5513 122.896 73.3768 121.983 73.3768Z" fill="#EE4646"/>
<path d="M117.513 75.3342C118.688 75.53 118.492 76.998 117.513 76.6718C116.534 76.3456 116.339 75.3342 117.513 75.3342Z" fill="#EE4646"/>
<path d="M170.087 71.6427C169.122 80.2948 150.569 79.3549 151.659 69.5868C152.557 61.5395 171.271 61.0282 170.087 71.6427Z" fill="#BE1515"/>
<path d="M157.684 66.2938C160.089 65.8261 160.089 68.0977 158.151 68.2313C156.214 68.3649 155.079 66.8283 157.684 66.2938Z" fill="#EE4646"/>
<path d="M164.547 67.6104C166.592 69.4932 165.099 71.6681 163.379 70.2398C161.658 68.8115 162.242 65.5977 164.547 67.6104Z" fill="#EE4646"/>
<path d="M159.97 70.2398C161.171 70.5644 160.1 71.9278 159.548 71.4084C158.996 70.8891 159.061 70.045 159.97 70.2398Z" fill="#EE4646"/>
<path d="M155.523 71.6357C158.151 72.8043 156.302 74.1677 155.133 73.5509C153.965 72.9342 154.355 71.2461 155.523 71.6357Z" fill="#EE4646"/>
<path d="M160.229 74.2326C161.105 74.2326 160.91 75.3688 160.229 75.2714C159.548 75.174 159.385 74.2326 160.229 74.2326Z" fill="#EE4646"/>
<path d="M163.735 73.2912C165.618 73.5509 165.39 75.4662 163.929 75.2714C162.469 75.0767 162.144 73.2912 163.735 73.2912Z" fill="#EE4646"/>
<path d="M168.15 71.0838C167.208 71.0838 166.786 71.9278 167.728 72.0902C168.669 72.2525 168.831 71.0838 168.15 71.0838Z" fill="#EE4646"/>
<path d="M97.9042 72.1388C95.984 69.0752 89.1935 66.2191 84.6907 68.8487C79.8165 71.6946 81.8738 78.0101 86.5879 78.0177C86.4166 78.3919 85.4419 80.3907 85.0337 81.4546C85.5817 81.7239 89.8987 82.6375 90.7627 82.9782C91.2763 82.1705 91.6765 80.8012 92.2195 79.8471C95.7053 83.7029 101.578 78.0001 97.9042 72.1388Z" fill="#E2E2E2"/>
<path d="M92.2448 79.8044C92.1063 78.5757 87.5329 77.1423 86.4706 77.8496C86.0971 78.4605 87.3361 77.9877 89.1585 78.4893C91.4528 79.1209 92.3497 80.7341 92.2448 79.8044Z" fill="#A7A7A7"/>
<path d="M140.898 64.2338C137.964 64.0451 131.491 68.6336 132.648 72.3559C133.805 76.078 137.209 76.8845 139.133 74.5105C139.292 74.8018 140.108 76.3971 140.597 77.1731C141.042 76.9391 144.055 75.3946 144.702 74.9857C144.431 74.2619 143.448 72.4719 143.096 71.659C147.316 71.19 146.512 64.5948 140.898 64.2338Z" fill="#E2E2E2"/>
<path d="M143.071 71.6311C141.545 71.2673 139.04 73.4285 139.082 74.5193C139.363 75.0964 139.606 73.7565 140.838 72.8607C142.538 71.6253 143.419 72.0061 143.071 71.6311Z" fill="#A7A7A7"/>
<path d="M107.138 98.2548C108.093 100.905 111.914 103.783 115.824 102.62C119.075 101.653 120.857 97.4959 116.841 95.8806C117.037 95.6303 117.622 94.5368 118.117 93.8109C117.741 93.5094 114.805 91.1104 114.199 90.6981C113.666 91.2124 113.179 92.5886 112.599 93.2077C110.575 89.6792 105.312 93.1848 107.138 98.2548Z" fill="#E2E2E2"/>
<path d="M112.516 93.2246C112.397 94.3538 116.033 96.4105 117.079 95.9519C117.516 95.4646 116.365 95.6825 114.903 94.9256C113.062 93.9726 112.606 92.3702 112.516 93.2246Z" fill="#A7A7A7"/>
<path d="M77.9027 75.3145C83.2055 75.7258 79.353 85.0798 76.7245 83.849C72.8043 82.0134 73.7379 74.9914 77.9027 75.3145Z" fill="#51A02B"/>
<path d="M101.61 103.592C108.502 101.783 107.491 107.573 100.783 108.356C94.0764 109.139 94.7194 105.402 101.61 103.592Z" fill="#51A02B"/>
<path d="M104.821 78.8633C109.202 76.3339 114.102 88.2971 108.857 88.7071C103.612 89.117 100.44 81.3927 104.821 78.8633Z" fill="#51A02B"/>
<path d="M153.007 78.846C159.149 80.9232 155.143 85.815 149.715 82.8734C144.287 79.9318 146.866 76.7688 153.007 78.846Z" fill="#51A02B"/>
<path d="M173.702 61.1809C176.919 61.4245 175.207 69.3501 172.296 67.7037C169.385 66.0574 170.486 60.9373 173.702 61.1809Z" fill="#51A02B"/>
<path d="M40.0303 78.0835C45.3401 80.4514 40.9319 85.4319 36.4062 82.1842C31.8807 78.9365 34.7206 75.7157 40.0303 78.0835Z" fill="#51A02B"/>
</svg>
