<svg width="193" height="97" viewBox="0 0 193 97" fill="none" xmlns="http://www.w3.org/2000/svg">
<path d="M32.7496 20.134H21.9976L23.2936 13.798H52.5736L51.2776 20.134H40.5736L35.1016 47.398H27.3256L32.7496 20.134ZM60.4205 47.782C57.8285 47.782 55.5405 47.302 53.5565 46.342C51.6045 45.382 50.0845 44.038 48.9965 42.31C47.9405 40.55 47.4125 38.518 47.4125 36.214C47.4125 33.366 48.0845 30.806 49.4285 28.534C50.7725 26.262 52.6285 24.47 54.9965 23.158C57.3645 21.846 60.0365 21.19 63.0125 21.19C65.6365 21.19 67.9245 21.67 69.8765 22.63C71.8285 23.59 73.3325 24.95 74.3885 26.71C75.4765 28.438 76.0205 30.454 76.0205 32.758C76.0205 35.606 75.3485 38.166 74.0045 40.438C72.6925 42.71 70.8365 44.502 68.4365 45.814C66.0685 47.126 63.3965 47.782 60.4205 47.782ZM60.9005 41.59C62.3405 41.59 63.6365 41.238 64.7885 40.534C65.9405 39.798 66.8365 38.79 67.4765 37.51C68.1165 36.23 68.4365 34.758 68.4365 33.094C68.4365 31.334 67.9245 29.942 66.9005 28.918C65.8765 27.894 64.4365 27.382 62.5805 27.382C61.1085 27.382 59.7965 27.75 58.6445 28.486C57.4925 29.19 56.5965 30.182 55.9565 31.462C55.3165 32.742 54.9965 34.214 54.9965 35.878C54.9965 37.638 55.5085 39.03 56.5325 40.054C57.5885 41.078 59.0445 41.59 60.9005 41.59ZM97.9708 21.19C99.9868 21.19 101.843 21.654 103.539 22.582C105.267 23.51 106.627 24.854 107.619 26.614C108.643 28.342 109.155 30.39 109.155 32.758C109.155 35.606 108.515 38.182 107.235 40.486C105.987 42.758 104.275 44.55 102.099 45.862C99.9228 47.142 97.5068 47.782 94.8508 47.782C90.9148 47.782 88.1308 46.502 86.4988 43.942L83.9548 56.71H76.4668L83.4748 21.574H90.5788L90.0508 24.118C92.1948 22.166 94.8348 21.19 97.9708 21.19ZM93.9868 41.59C95.4588 41.59 96.7708 41.238 97.9228 40.534C99.0748 39.798 99.9708 38.79 100.611 37.51C101.251 36.23 101.571 34.758 101.571 33.094C101.571 31.334 101.043 29.942 99.9868 28.918C98.9628 27.894 97.5228 27.382 95.6668 27.382C94.2268 27.382 92.9308 27.75 91.7788 28.486C90.6268 29.19 89.7308 30.182 89.0908 31.462C88.4508 32.742 88.1308 34.214 88.1308 35.878C88.1308 37.638 88.6428 39.03 89.6668 40.054C90.6908 41.078 92.1308 41.59 93.9868 41.59Z" fill="#F3F3F3"/>
<path d="M138.167 30.07H145.271L142.487 43.894C140.791 45.206 138.823 46.214 136.583 46.918C134.343 47.622 132.023 47.974 129.623 47.974C126.263 47.974 123.335 47.366 120.839 46.15C118.343 44.934 116.407 43.222 115.031 41.014C113.687 38.806 113.015 36.262 113.015 33.382C113.015 29.574 113.895 26.134 115.655 23.062C117.415 19.99 119.895 17.59 123.095 15.862C126.295 14.102 129.975 13.222 134.135 13.222C137.335 13.222 140.103 13.718 142.439 14.71C144.807 15.702 146.711 17.158 148.151 19.078L142.583 23.59C141.463 22.278 140.199 21.334 138.791 20.758C137.383 20.15 135.719 19.846 133.799 19.846C131.239 19.846 128.983 20.422 127.031 21.574C125.079 22.694 123.559 24.246 122.471 26.23C121.415 28.214 120.887 30.438 120.887 32.902C120.887 35.494 121.719 37.558 123.383 39.094C125.079 40.598 127.495 41.35 130.631 41.35C132.615 41.35 134.471 40.95 136.199 40.15L138.167 30.07ZM161.999 47.782C159.407 47.782 157.119 47.302 155.135 46.342C153.183 45.382 151.663 44.038 150.575 42.31C149.519 40.55 148.991 38.518 148.991 36.214C148.991 33.366 149.663 30.806 151.007 28.534C152.351 26.262 154.207 24.47 156.575 23.158C158.943 21.846 161.615 21.19 164.591 21.19C167.215 21.19 169.503 21.67 171.455 22.63C173.407 23.59 174.911 24.95 175.967 26.71C177.055 28.438 177.599 30.454 177.599 32.758C177.599 35.606 176.927 38.166 175.583 40.438C174.271 42.71 172.415 44.502 170.015 45.814C167.647 47.126 164.975 47.782 161.999 47.782ZM162.479 41.59C163.919 41.59 165.215 41.238 166.367 40.534C167.519 39.798 168.415 38.79 169.055 37.51C169.695 36.23 170.015 34.758 170.015 33.094C170.015 31.334 169.503 29.942 168.479 28.918C167.455 27.894 166.015 27.382 164.159 27.382C162.687 27.382 161.375 27.75 160.223 28.486C159.071 29.19 158.175 30.182 157.535 31.462C156.895 32.742 156.575 34.214 156.575 35.878C156.575 37.638 157.087 39.03 158.111 40.054C159.167 41.078 160.623 41.59 162.479 41.59Z" fill="#F5C744"/>
<path d="M1.10822 78.6976C68.686 62.3966 132.813 57.125 190.379 55.534C141.003 62.2963 79.1632 80.6209 52.6858 93.7503C31.8513 86.5115 13.0041 79.5423 1.10822 78.6976Z" fill="#F5C744"/>
</svg>
