<svg width="192" height="97" viewBox="0 0 192 97" fill="none" xmlns="http://www.w3.org/2000/svg">
<path d="M32.6578 19.736H21.9058L23.2018 13.4H52.4818L51.1858 19.736H40.4818L35.0098 47H27.2338L32.6578 19.736ZM60.3287 47.384C57.7367 47.384 55.4487 46.904 53.4647 45.944C51.5127 44.984 49.9927 43.64 48.9047 41.912C47.8487 40.152 47.3207 38.12 47.3207 35.816C47.3207 32.968 47.9927 30.408 49.3367 28.136C50.6807 25.864 52.5367 24.072 54.9047 22.76C57.2727 21.448 59.9447 20.792 62.9207 20.792C65.5447 20.792 67.8327 21.272 69.7847 22.232C71.7367 23.192 73.2407 24.552 74.2967 26.312C75.3847 28.04 75.9287 30.056 75.9287 32.36C75.9287 35.208 75.2567 37.768 73.9127 40.04C72.6007 42.312 70.7447 44.104 68.3447 45.416C65.9767 46.728 63.3047 47.384 60.3287 47.384ZM60.8087 41.192C62.2487 41.192 63.5447 40.84 64.6967 40.136C65.8487 39.4 66.7447 38.392 67.3847 37.112C68.0247 35.832 68.3447 34.36 68.3447 32.696C68.3447 30.936 67.8327 29.544 66.8087 28.52C65.7847 27.496 64.3447 26.984 62.4887 26.984C61.0167 26.984 59.7047 27.352 58.5527 28.088C57.4007 28.792 56.5047 29.784 55.8647 31.064C55.2247 32.344 54.9047 33.816 54.9047 35.48C54.9047 37.24 55.4167 38.632 56.4407 39.656C57.4967 40.68 58.9527 41.192 60.8087 41.192ZM97.879 20.792C99.895 20.792 101.751 21.256 103.447 22.184C105.175 23.112 106.535 24.456 107.527 26.216C108.551 27.944 109.063 29.992 109.063 32.36C109.063 35.208 108.423 37.784 107.143 40.088C105.895 42.36 104.183 44.152 102.007 45.464C99.831 46.744 97.415 47.384 94.759 47.384C90.823 47.384 88.039 46.104 86.407 43.544L83.863 56.312H76.375L83.383 21.176H90.487L89.959 23.72C92.103 21.768 94.743 20.792 97.879 20.792ZM93.895 41.192C95.367 41.192 96.679 40.84 97.831 40.136C98.983 39.4 99.879 38.392 100.519 37.112C101.159 35.832 101.479 34.36 101.479 32.696C101.479 30.936 100.951 29.544 99.895 28.52C98.871 27.496 97.431 26.984 95.575 26.984C94.135 26.984 92.839 27.352 91.687 28.088C90.535 28.792 89.639 29.784 88.999 31.064C88.359 32.344 88.039 33.816 88.039 35.48C88.039 37.24 88.551 38.632 89.575 39.656C90.599 40.68 92.039 41.192 93.895 41.192Z" fill="#323232"/>
<path d="M138.076 29.672H145.18L142.396 43.496C140.7 44.808 138.732 45.816 136.492 46.52C134.252 47.224 131.932 47.576 129.532 47.576C126.172 47.576 123.244 46.968 120.748 45.752C118.252 44.536 116.316 42.824 114.94 40.616C113.596 38.408 112.924 35.864 112.924 32.984C112.924 29.176 113.804 25.736 115.564 22.664C117.324 19.592 119.804 17.192 123.004 15.464C126.204 13.704 129.884 12.824 134.044 12.824C137.244 12.824 140.012 13.32 142.348 14.312C144.716 15.304 146.62 16.76 148.06 18.68L142.492 23.192C141.372 21.88 140.108 20.936 138.7 20.36C137.292 19.752 135.628 19.448 133.708 19.448C131.148 19.448 128.892 20.024 126.94 21.176C124.988 22.296 123.468 23.848 122.38 25.832C121.324 27.816 120.796 30.04 120.796 32.504C120.796 35.096 121.628 37.16 123.292 38.696C124.988 40.2 127.404 40.952 130.54 40.952C132.524 40.952 134.38 40.552 136.108 39.752L138.076 29.672ZM161.907 47.384C159.315 47.384 157.027 46.904 155.043 45.944C153.091 44.984 151.571 43.64 150.483 41.912C149.427 40.152 148.899 38.12 148.899 35.816C148.899 32.968 149.571 30.408 150.915 28.136C152.259 25.864 154.115 24.072 156.483 22.76C158.851 21.448 161.523 20.792 164.499 20.792C167.123 20.792 169.411 21.272 171.363 22.232C173.315 23.192 174.819 24.552 175.875 26.312C176.963 28.04 177.507 30.056 177.507 32.36C177.507 35.208 176.835 37.768 175.491 40.04C174.179 42.312 172.323 44.104 169.923 45.416C167.555 46.728 164.883 47.384 161.907 47.384ZM162.387 41.192C163.827 41.192 165.123 40.84 166.275 40.136C167.427 39.4 168.323 38.392 168.963 37.112C169.603 35.832 169.923 34.36 169.923 32.696C169.923 30.936 169.411 29.544 168.387 28.52C167.363 27.496 165.923 26.984 164.067 26.984C162.595 26.984 161.283 27.352 160.131 28.088C158.979 28.792 158.083 29.784 157.443 31.064C156.803 32.344 156.483 33.816 156.483 35.48C156.483 37.24 156.995 38.632 158.019 39.656C159.075 40.68 160.531 41.192 162.387 41.192Z" fill="#F5C744"/>
<path d="M1.01642 78.2996C68.5942 61.9986 132.721 56.727 190.288 55.1359C140.912 61.8983 79.0714 80.2228 52.594 93.3523C31.7595 86.1134 12.9123 79.1443 1.01642 78.2996Z" fill="#F5C744"/>
</svg>
