<svg width="96" height="96" viewBox="0 0 96 96" fill="none" xmlns="http://www.w3.org/2000/svg">
    <path d="M53.712 86.5764L53.6859 87.0757L53.712 86.5764ZM36.9655 76.116L37.3209 75.7643L37.3206 75.7639L36.9655 76.116ZM31.2983 69.1564L31.7136 68.878L31.2983 69.1564ZM28.4723 61.2327L28.8608 61.5474L28.8609 61.5473L28.4723 61.2327ZM31.771 60.8216L31.6347 61.3027L31.6349 61.3028L31.771 60.8216ZM34.7348 63.3638L35.1822 63.1403L35.1768 63.13L34.7348 63.3638ZM49.2695 76.6437L49.1378 77.1262L49.1481 77.1287L49.2695 76.6437ZM62.3465 72.3776L62.6644 72.7636L62.3465 72.3776ZM62.7585 72.0932L62.5165 71.6557L62.7585 72.0932ZM68.3162 70.7247L68.3002 71.2244L68.3012 71.2244L68.3162 70.7247ZM75.7332 74.7177C75.9198 74.9212 76.2361 74.9349 76.4396 74.7483C76.6432 74.5617 76.6569 74.2454 76.4703 74.0419L75.7332 74.7177ZM52.764 70.0319L53.0575 70.4367L52.764 70.0319ZM43.9737 68.7643L43.8957 69.2582L43.8957 69.2582L43.9737 68.7643ZM36.264 66.102L35.8213 66.3344L35.8213 66.3344L36.264 66.102ZM37.5974 61.5713L37.5267 61.0763L37.5974 61.5713ZM66.9701 64.6286L67.1258 64.1535L67.1258 64.1534L66.9701 64.6286ZM93.3016 82.3238L93.6728 81.9887V81.9887L93.3016 82.3238ZM93.9896 84.2732L94.4874 84.3206V84.3206L93.9896 84.2732ZM92.3173 89.1964L92.7383 89.466L92.7384 89.466L92.3173 89.1964ZM85.8538 93.9013L85.7093 93.4226L85.8538 93.9013ZM82.6774 92.2641L83.1223 92.0359L82.6774 92.2641ZM78.4335 87.0843L78.7356 86.6858L78.7352 86.6855L78.4335 87.0843ZM49.9076 86.123L50 85.6316L49.9994 85.6315L49.9076 86.123ZM20.6361 64.1669L20.1905 63.9401L20.1888 63.9435L20.6361 64.1669ZM21.3249 63.5662L21.5486 64.0133H21.5486L21.3249 63.5662ZM56.1903 67.4223C56.3468 67.1948 56.2893 66.8835 56.0618 66.727C55.8343 66.5704 55.523 66.628 55.3665 66.8555L56.1903 67.4223ZM49.2695 71.6034L49.2244 71.1055L49.2695 71.6034ZM40.4957 71.1064C40.2212 71.0763 39.9743 71.2744 39.9442 71.5489C39.914 71.8234 40.1121 72.0703 40.3866 72.1005L40.4957 71.1064ZM35.4281 80.9802C35.6716 81.1103 35.9746 81.0183 36.1046 80.7747C36.2347 80.5311 36.1427 80.2282 35.8992 80.0981L35.4281 80.9802ZM16.3072 69.1564L15.994 69.5461L15.9951 69.5469L16.3072 69.1564ZM14.5504 66.4435L15.044 66.5233L15.0444 66.5209L14.5504 66.4435ZM16.3072 64.7677L16.4716 65.2399L16.4751 65.2386L16.3072 64.7677ZM20.4759 66.5033C20.6765 66.693 20.993 66.684 21.1827 66.4834C21.3724 66.2827 21.3634 65.9662 21.1627 65.7765L20.4759 66.5033ZM16.5943 64.4672C16.5402 64.738 16.7158 65.0014 16.9866 65.0555C17.2574 65.1096 17.5208 64.934 17.5749 64.6632L16.5943 64.4672ZM18.4243 62.6807L18.6512 63.1263L18.6525 63.1257L18.4243 62.6807ZM21.3268 63.7621C21.5119 63.967 21.828 63.9831 22.033 63.798C22.2379 63.6129 22.2539 63.2967 22.0688 63.0918L21.3268 63.7621ZM30.8979 41.8626C31.1513 41.7529 31.2678 41.4585 31.1582 41.2051C31.0485 40.9517 30.7541 40.8351 30.5007 40.9448L30.8979 41.8626ZM13.3724 48.3572C13.1189 48.4669 13.0024 48.7612 13.1121 49.0147C13.2217 49.2681 13.5161 49.3846 13.7695 49.275L13.3724 48.3572ZM26.5816 33.9062C26.8495 33.9731 27.1209 33.8101 27.1878 33.5422C27.2547 33.2743 27.0917 33.0029 26.8238 32.936L26.5816 33.9062ZM13.1211 29.5149C12.8532 29.448 12.5818 29.611 12.5149 29.8789C12.448 30.1468 12.611 30.4182 12.8789 30.4851L13.1211 29.5149ZM72.0059 40.9448C71.7525 40.8351 71.4581 40.9517 71.3485 41.2051C71.2388 41.4585 71.3553 41.7529 71.6088 41.8626L72.0059 40.9448ZM88.7371 49.275C88.9905 49.3846 89.2849 49.2681 89.3946 49.0147C89.5042 48.7612 89.3877 48.4669 89.1343 48.3572L88.7371 49.275ZM75.6828 32.936C75.4149 33.0029 75.252 33.2743 75.3189 33.5422C75.3857 33.8101 75.6572 33.9731 75.9251 33.9062L75.6828 32.936ZM89.6278 30.4851C89.8957 30.4182 90.0586 30.1468 89.9918 29.8789C89.9249 29.611 89.6535 29.448 89.3855 29.5149L89.6278 30.4851ZM53.9083 86.1165C43.535 81.6866 40.4372 78.9138 37.3209 75.7643L36.6101 76.4676C39.8259 79.7177 43.0348 82.5604 53.5156 87.0362L53.9083 86.1165ZM37.3206 75.7639C35.3749 73.8015 33.3301 71.2895 31.7136 68.878L30.883 69.4347C32.533 71.8963 34.6177 74.458 36.6104 76.468L37.3206 75.7639ZM31.7136 68.878C30.5591 67.1556 29.6366 65.5045 29.1209 64.1549C28.8625 63.4788 28.7155 62.9019 28.6822 62.4431C28.6485 61.9781 28.7354 61.7022 28.8608 61.5474L28.0838 60.9179C27.7318 61.3524 27.6421 61.9271 27.6848 62.5154C27.728 63.1098 27.9105 63.7887 28.1868 64.5119C28.7405 65.9608 29.7084 67.6824 30.883 69.4347L31.7136 68.878ZM28.8609 61.5473C29.0348 61.3323 29.4263 61.1725 30.0113 61.1323C30.5702 61.094 31.1823 61.1746 31.6347 61.3027L31.9072 60.3406C31.3549 60.1841 30.6273 60.0877 29.9428 60.1347C29.2844 60.1799 28.529 60.3679 28.0836 60.9181L28.8609 61.5473ZM31.6349 61.3028C33.2551 61.7612 34.0746 63.1851 34.2928 63.5976L35.1768 63.13C34.94 62.6824 33.9521 60.9192 31.9071 60.3405L31.6349 61.3028ZM34.2875 63.5873C35.8725 66.7595 37.7822 69.6374 40.179 71.9711L40.8766 71.2546C38.5827 69.0211 36.7334 66.2451 35.1821 63.1403L34.2875 63.5873ZM40.179 71.9711C42.6148 74.3427 45.5481 76.1464 49.1378 77.1261L49.4011 76.1613C45.9881 75.2299 43.2013 73.518 40.8766 71.2546L40.179 71.9711ZM49.1481 77.1287C54.3609 78.4328 58.8885 75.8724 62.6644 72.7636L62.0287 71.9916C58.3079 75.0551 54.1174 77.3411 49.3908 76.1586L49.1481 77.1287ZM63.0005 72.5308C63.9754 71.9915 65.8545 71.1462 68.3002 71.2244L68.3322 70.2249C65.6385 70.1387 63.5765 71.0694 62.5165 71.6557L63.0005 72.5308ZM68.3012 71.2244C72.5251 71.3509 75.1911 74.1265 75.7332 74.7177L76.4703 74.0419C75.8875 73.4063 72.9797 70.364 68.3312 70.2249L68.3012 71.2244ZM52.8243 69.5356C49.2893 69.1068 46.4163 68.6437 44.0517 68.2704L43.8957 69.2582C46.258 69.6311 49.1484 70.097 52.7038 70.5283L52.8243 69.5356ZM44.0517 68.2704C41.3411 67.8422 39.6365 67.5251 38.521 67.1533C37.4313 66.7901 36.9861 66.4018 36.7067 65.8696L35.8213 66.3344C36.2623 67.1745 36.9704 67.6905 38.2047 68.102C39.4132 68.5048 41.2032 68.8328 43.8957 69.2582L44.0517 68.2704ZM36.7067 65.8696C36.3555 65.2004 36.1634 64.2576 36.2978 63.4756C36.364 63.091 36.5044 62.7707 36.7162 62.5358C36.9223 62.3073 37.222 62.1301 37.6682 62.0663L37.5267 61.0763C36.867 61.1706 36.3483 61.4507 35.9736 61.8661C35.6046 62.2752 35.4018 62.7857 35.3123 63.3061C35.1355 64.3341 35.3826 65.4985 35.8213 66.3344L36.7067 65.8696ZM37.6682 62.0663C39.8334 61.7567 53.5203 60.7467 66.8144 65.1037L67.1258 64.1534C53.6382 59.733 39.785 60.7535 37.5267 61.0763L37.6682 62.0663ZM66.8143 65.1037C79.5163 69.2674 88.3358 77.5694 92.9305 82.6588L93.6728 81.9887C89.0237 76.839 80.0636 68.3945 67.1258 64.1535L66.8143 65.1037ZM93.4919 84.2259C93.3739 85.4653 93.001 87.201 91.8962 88.9268L92.7384 89.466C93.9532 87.5684 94.3593 85.6665 94.4874 84.3206L93.4919 84.2259ZM91.8962 88.9268C90.1714 91.6204 87.5816 92.8575 85.7093 93.4226L85.9983 94.38C87.9968 93.7767 90.8373 92.4351 92.7383 89.466L91.8962 88.9268ZM83.1223 92.0359C82.2017 90.2411 80.8237 88.2691 78.7356 86.6858L78.1314 87.4827C80.0685 88.9514 81.3597 90.7906 82.2325 92.4923L83.1223 92.0359ZM78.7352 86.6855C75.1357 83.9618 71.4098 83.9943 67.3616 84.5917C63.2887 85.1927 58.9231 86.348 53.738 86.077L53.6859 87.0757C59.0036 87.3535 63.5633 86.163 67.5076 85.581C71.4768 84.9953 74.8603 85.0074 78.1318 87.483L78.7352 86.6855ZM53.738 86.077C52.5351 86.0142 51.2906 85.8741 50 85.6316L49.8153 86.6144C51.1523 86.8656 52.4411 87.0106 53.6859 87.0757L53.738 86.077ZM49.9994 85.6315C42.8307 84.2932 36.1492 80.6705 30.9951 76.7101C28.42 74.7315 26.2347 72.6751 24.5677 70.7893C22.8934 68.8953 21.7671 67.2016 21.2774 65.9506L20.3462 66.3151C20.8984 67.7257 22.1131 69.5225 23.8185 71.4517C25.5312 73.3892 27.7643 75.4888 30.3858 77.5031C35.6248 81.5286 42.4492 85.2393 49.8159 86.6145L49.9994 85.6315ZM21.2774 65.9506C20.9571 65.1324 20.9608 64.6356 21.0834 64.3904L20.1888 63.9435C19.8642 64.5932 20.0071 65.4489 20.3462 66.3151L21.2774 65.9506ZM21.0817 64.3938C21.1705 64.2193 21.3436 64.1159 21.5486 64.0133L21.1012 63.119C20.9017 63.2188 20.4429 63.4442 20.1905 63.9401L21.0817 64.3938ZM21.5486 64.0133C21.6404 63.9674 21.7359 63.9299 21.8352 63.9003L21.5498 62.9419C21.3964 62.9876 21.2466 63.0463 21.1012 63.119L21.5486 64.0133ZM21.8352 63.9003C22.5196 63.6965 23.4107 63.8658 24.4363 64.3387C25.4471 64.8048 26.5049 65.5267 27.4758 66.2961C28.4435 67.063 29.3081 67.8634 29.9319 68.4735C30.2433 68.7781 30.4937 69.0343 30.6658 69.2138C30.7518 69.3036 30.8181 69.3741 30.8627 69.4218C30.885 69.4457 30.9018 69.4639 30.9129 69.4759C30.9185 69.482 30.9226 69.4865 30.9253 69.4893C30.9266 69.4908 30.9275 69.4918 30.9281 69.4925C30.9284 69.4928 30.9286 69.493 30.9287 69.4932C30.9288 69.4932 30.9288 69.4932 30.9288 69.4933C30.9288 69.4932 30.9288 69.4932 31.2983 69.1564C31.6678 68.8195 31.6677 68.8194 31.6676 68.8193C31.6675 68.8192 31.6674 68.8191 31.6673 68.8189C31.667 68.8186 31.6666 68.8182 31.6662 68.8178C31.6653 68.8168 31.664 68.8154 31.6624 68.8136C31.6591 68.81 31.6543 68.8048 31.6481 68.798C31.6357 68.7846 31.6175 68.7649 31.5938 68.7395C31.5464 68.6887 31.477 68.615 31.3877 68.5219C31.2093 68.3357 30.9513 68.0717 30.6311 67.7586C29.9916 67.1331 29.1002 66.3075 28.0968 65.5124C27.0966 64.7198 25.9681 63.9438 24.855 63.4306C23.7569 62.9243 22.5866 62.6331 21.5498 62.9419L21.8352 63.9003ZM55.3665 66.8555C54.9629 67.4421 53.8308 68.641 52.4706 69.6271L53.0575 70.4367C54.4874 69.4001 55.708 68.1232 56.1903 67.4223L55.3665 66.8555ZM52.4706 69.6271C51.3787 70.4187 50.2171 71.0157 49.2244 71.1055L49.3145 72.1014C50.5818 71.9868 51.924 71.2585 53.0575 70.4367L52.4706 69.6271ZM49.2244 71.1055C46.7244 71.3316 43.4014 71.4162 40.5808 71.1156L40.4748 72.11C43.3801 72.4196 46.7722 72.3313 49.3145 72.1014L49.2244 71.1055ZM40.5808 71.1156C40.5524 71.1126 40.524 71.1095 40.4957 71.1064L40.3866 72.1005C40.416 72.1037 40.4454 72.1069 40.4748 72.11L40.5808 71.1156ZM35.8992 80.0981C34.8227 79.5232 30.9533 77.4513 26.8718 75.1384C22.7748 72.8167 18.5126 70.2789 16.6194 68.7658L15.9951 69.5469C17.963 71.1198 22.3016 73.6979 26.3787 76.0084C30.4714 78.3276 34.3496 80.4041 35.4281 80.9802L35.8992 80.0981ZM16.6205 68.7666C16.0425 68.3021 15.612 67.8749 15.3441 67.4825C15.0778 67.0922 15.0022 66.782 15.044 66.5233L14.0568 66.3637C13.9596 66.965 14.1684 67.5338 14.5182 68.0462C14.8665 68.5565 15.3839 69.0557 15.994 69.5461L16.6205 68.7666ZM15.0444 66.5209C15.0979 66.18 15.363 65.8769 15.7229 65.6278C16.0707 65.387 16.4204 65.2577 16.4716 65.2399L16.1429 64.2955C16.0487 64.3282 15.6053 64.4929 15.1537 64.8055C14.7142 65.1098 14.1736 65.6193 14.0565 66.366L15.0444 66.5209ZM16.4751 65.2386C17.3716 64.919 18.3011 65.1562 19.0791 65.5451C19.8508 65.9309 20.3959 66.4285 20.4702 66.498L21.1533 65.7677C21.0473 65.6686 20.4212 65.0981 19.5262 64.6507C18.6376 64.2064 17.4049 63.8454 16.1393 64.2967L16.4751 65.2386ZM20.4702 66.498C20.4726 66.5002 20.4745 66.502 20.4759 66.5033L21.1627 65.7765C21.1603 65.7742 21.1571 65.7712 21.1533 65.7677L20.4702 66.498ZM17.5749 64.6632C17.606 64.5079 17.8129 63.5532 18.6512 63.1263L18.1975 62.2352C16.8999 62.8959 16.6265 64.3064 16.5943 64.4672L17.5749 64.6632ZM18.6525 63.1257C19.4456 62.719 20.5613 62.9187 21.3223 63.7571L22.0628 63.0851C21.0415 61.9599 19.4466 61.5947 18.1962 62.2358L18.6525 63.1257ZM21.3223 63.7571C21.3238 63.7588 21.3253 63.7604 21.3268 63.7621L22.0688 63.0918C22.0668 63.0895 22.0648 63.0873 22.0628 63.0851L21.3223 63.7571ZM92.9305 82.6588C93.3343 83.1061 93.545 83.668 93.4919 84.2259L94.4874 84.3206C94.5708 83.4434 94.2356 82.6122 93.6728 81.9887L92.9305 82.6588ZM85.7093 93.4226C84.7229 93.7204 83.6747 93.1129 83.1223 92.0359L82.2325 92.4923C82.9174 93.8276 84.3869 94.8664 85.9983 94.38L85.7093 93.4226ZM62.6644 72.7636C62.7758 72.6718 62.8866 72.5937 63.0005 72.5308L62.5165 71.6557C62.3373 71.7548 62.1758 71.8705 62.0287 71.9916L62.6644 72.7636ZM30.5007 40.9448L13.3724 48.3572L13.7695 49.275L30.8979 41.8626L30.5007 40.9448ZM26.8238 32.936L13.1211 29.5149L12.8789 30.4851L26.5816 33.9062L26.8238 32.936ZM71.6088 41.8626L88.7371 49.275L89.1343 48.3572L72.0059 40.9448L71.6088 41.8626ZM75.9251 33.9062L89.6278 30.4851L89.3855 29.5149L75.6828 32.936L75.9251 33.9062Z" fill="#FDFDFD"/>
    <path d="M49.6 36.84V39.08H58.24V42.4H49.6V46H43.08V42.4H39.2V39.08H43.08V18H55.2C59.0133 18 61.9867 18.8 64.12 20.4C66.28 22 67.36 24.3467 67.36 27.44C67.36 30.5067 66.28 32.84 64.12 34.44C61.9867 36.04 59.0133 36.84 55.2 36.84H49.6ZM60.8 27.48C60.8 26.12 60.3067 25.08 59.32 24.36C58.36 23.64 56.9733 23.28 55.16 23.28H49.6V31.76H55.16C56.9733 31.76 58.36 31.4 59.32 30.68C60.3067 29.9333 60.8 28.8667 60.8 27.48Z" fill="#FDFDFD"/>
</svg>
