<svg width="96" height="97" viewBox="0 0 96 97" fill="none" xmlns="http://www.w3.org/2000/svg">
    <path d="M53.9739 87.9482L53.9478 88.4475L53.9739 87.9482ZM37.1241 77.4092L37.4798 77.0577L37.4794 77.0574L37.1241 77.4092ZM31.4219 70.3973L31.8374 70.1191H31.8374L31.4219 70.3973ZM28.5785 62.4141L28.9672 62.7286L28.9673 62.7284L28.5785 62.4141ZM31.8976 62L31.7611 62.481L31.7613 62.481L31.8976 62ZM34.8797 64.5612L35.3272 64.3379L35.3217 64.3276L34.8797 64.5612ZM49.504 77.9409L49.3722 78.4233L49.3825 78.4259L49.504 77.9409ZM62.6618 73.6427L62.9798 74.0285L62.6618 73.6427ZM63.0763 73.3562L62.834 72.9188L63.0763 73.3562ZM68.6683 71.9774L68.6523 72.4771L68.6533 72.4771L68.6683 71.9774ZM76.1331 75.9976C76.3196 76.2013 76.6358 76.2152 76.8395 76.0287C77.0432 75.8422 77.0571 75.526 76.8706 75.3223L76.1331 75.9976ZM53.0202 71.2794L53.3139 71.6841L53.0202 71.2794ZM44.1756 70.0023L44.0974 70.4962L44.0975 70.4962L44.1756 70.0023ZM36.4183 67.32L35.9755 67.5521L35.9755 67.5522L36.4183 67.32ZM37.76 62.7553L37.6891 62.2603L37.76 62.7553ZM67.3138 65.8355L67.4698 65.3604L67.4698 65.3604L67.3138 65.8355ZM93.8079 83.6637L94.1792 83.3288L93.8079 83.6637ZM94.5001 85.6277L94.9979 85.675V85.675L94.5001 85.6277ZM92.8174 90.5879L93.2387 90.8572L93.2387 90.8572L92.8174 90.5879ZM86.3141 95.3281L86.1694 94.8495L86.3141 95.3281ZM83.1181 93.6786L83.5631 93.4507L83.1181 93.6786ZM78.848 88.4599L79.1504 88.0616L79.15 88.0613L78.848 88.4599ZM50.1461 87.4914L50.2386 87.0001L50.238 87L50.1461 87.4914ZM20.6939 65.3704L20.2482 65.1438L20.2466 65.1471L20.6939 65.3704ZM21.387 64.7651L21.611 65.2122H21.611L21.387 64.7651ZM56.4652 68.6478C56.6216 68.4202 56.5639 68.1089 56.3363 67.9526C56.1087 67.7962 55.7974 67.8539 55.641 68.0815L56.4652 68.6478ZM49.504 72.8628L49.4589 72.3648L49.504 72.8628ZM40.6759 72.3658C40.4014 72.3356 40.1544 72.5337 40.1242 72.8082C40.0941 73.0826 40.2921 73.3296 40.5666 73.3598L40.6759 72.3658ZM35.5784 82.3065C35.8219 82.4367 36.1249 82.3449 36.2551 82.1014C36.3853 81.8579 36.2935 81.5549 36.05 81.4247L35.5784 82.3065ZM16.3384 70.3973L16.0249 70.7868L16.0259 70.7877L16.3384 70.3973ZM14.5707 67.664L15.0643 67.7437L15.0647 67.7414L14.5707 67.664ZM16.3384 65.9756L16.5029 66.4478L16.5065 66.4465L16.3384 65.9756ZM20.5346 67.7214C20.7352 67.9112 21.0516 67.9024 21.2414 67.7019C21.4312 67.5013 21.4225 67.1848 21.222 66.995L20.5346 67.7214ZM16.6302 65.6738C16.5762 65.9446 16.7519 66.2079 17.0227 66.262C17.2935 66.316 17.5568 66.1403 17.6109 65.8695L16.6302 65.6738ZM18.4686 63.873L18.6957 64.3185L18.6969 64.3178L18.4686 63.873ZM21.391 64.9597C21.5759 65.1648 21.8921 65.181 22.0971 64.9961C22.3022 64.8111 22.3184 64.4949 22.1335 64.2899L21.391 64.9597ZM31.0181 42.8949C31.2714 42.7851 31.3878 42.4907 31.278 42.2373C31.1682 41.984 30.8738 41.8676 30.6204 41.9774L31.0181 42.8949ZM13.3864 49.4454C13.133 49.5552 13.0166 49.8497 13.1264 50.103C13.2362 50.3564 13.5306 50.4728 13.784 50.363L13.3864 49.4454ZM26.6767 34.8787C26.9446 34.9456 27.2161 34.7828 27.283 34.5149C27.35 34.247 27.1871 33.9755 26.9192 33.9085L26.6767 34.8787ZM13.132 30.4617C12.8641 30.3947 12.5926 30.5576 12.5257 30.8255C12.4587 31.0934 12.6216 31.3649 12.8895 31.4318L13.132 30.4617ZM72.3798 41.9774C72.1264 41.8676 71.832 41.984 71.7222 42.2373C71.6124 42.4907 71.7288 42.7851 71.9822 42.8949L72.3798 41.9774ZM89.2162 50.363C89.4696 50.4728 89.764 50.3564 89.8738 50.103C89.9836 49.8497 89.8672 49.5552 89.6138 49.4454L89.2162 50.363ZM76.081 33.9085C75.8131 33.9755 75.6502 34.247 75.7172 34.5149C75.7841 34.7828 76.0556 34.9456 76.3235 34.8787L76.081 33.9085ZM90.1107 31.4318C90.3786 31.3649 90.5415 31.0934 90.4745 30.8255C90.4076 30.5576 90.1361 30.3947 89.8682 30.4617L90.1107 31.4318ZM54.1705 87.4884C43.7329 83.0251 40.6156 80.2313 37.4798 77.0577L36.7685 77.7606C40.0038 81.0348 43.2322 83.8986 53.7773 88.4079L54.1705 87.4884ZM37.4794 77.0574C35.5216 75.08 33.464 72.549 31.8374 70.1191L31.0064 70.6754C32.6665 73.1553 34.7639 75.7361 36.7688 77.761L37.4794 77.0574ZM31.8374 70.1191C30.6757 68.3837 29.7474 66.72 29.2283 65.3598C28.9683 64.6784 28.8202 64.0968 28.7867 63.6339C28.7527 63.1649 28.8401 62.8856 28.9672 62.7286L28.1898 62.0996C27.8365 62.5362 27.7463 63.114 27.7893 63.7062C27.8326 64.3044 28.0161 64.988 28.294 65.7164C28.851 67.1758 29.8247 68.9101 31.0064 70.6754L31.8374 70.1191ZM28.9673 62.7284C29.1432 62.5108 29.5382 62.3497 30.1269 62.3092C30.6895 62.2706 31.3057 62.3518 31.7611 62.481L32.034 61.5189C31.4784 61.3614 30.7466 61.2643 30.0583 61.3116C29.3959 61.3571 28.6368 61.5465 28.1896 62.0998L28.9673 62.7284ZM31.7613 62.481C33.3927 62.9433 34.2179 64.3789 34.4376 64.7948L35.3217 64.3276C35.0837 63.877 34.0903 62.1016 32.0339 61.5189L31.7613 62.481ZM34.4323 64.7845C36.0269 67.9802 37.9481 70.8794 40.3594 73.2302L41.0574 72.5142C38.7491 70.2636 36.8881 67.4664 35.3271 64.338L34.4323 64.7845ZM40.3594 73.2302C42.8098 75.6193 45.7608 77.4363 49.3722 78.4232L49.6358 77.4586C46.2013 76.52 43.3968 74.795 41.0574 72.5142L40.3594 73.2302ZM49.3825 78.4259C54.6263 79.7395 59.181 77.1605 62.9798 74.0285L62.3437 73.2569C58.5996 76.3437 54.3824 78.6475 49.6255 77.4559L49.3825 78.4259ZM63.3186 73.7936C64.2997 73.2502 66.1909 72.3983 68.6523 72.4771L68.6843 71.4776C65.9746 71.3908 63.9003 72.3283 62.834 72.9188L63.3186 73.7936ZM68.6533 72.4771C72.9043 72.6046 75.5874 75.4017 76.1331 75.9976L76.8706 75.3223C76.2844 74.6822 73.3594 71.6178 68.6832 71.4776L68.6533 72.4771ZM53.0804 70.7831C49.5237 70.3511 46.6329 69.8845 44.2536 69.5084L44.0975 70.4962C46.4744 70.8719 49.3825 71.3413 52.9599 71.7758L53.0804 70.7831ZM44.2537 69.5084C41.5264 69.077 39.8111 68.7575 38.6884 68.3828C37.5917 68.0167 37.1429 67.6252 36.8611 67.0878L35.9755 67.5522C36.4186 68.3974 37.1302 68.9169 38.3718 69.3313C39.5874 69.7371 41.3883 70.0675 44.0974 70.4962L44.2537 69.5084ZM36.8612 67.0879C36.5074 66.413 36.3138 65.4621 36.4493 64.6731C36.516 64.285 36.6575 63.9616 36.8712 63.7243C37.0792 63.4934 37.3814 63.3145 37.8308 63.2502L37.6891 62.2603C37.0258 62.3552 36.5046 62.6371 36.1282 63.055C35.7575 63.4666 35.5537 63.9801 35.4638 64.5038C35.2861 65.5384 35.5344 66.7107 35.9755 67.5521L36.8612 67.0879ZM37.8308 63.2502C40.0096 62.9383 53.7813 61.9207 67.1579 66.3106L67.4698 65.3604C53.8994 60.907 39.9612 61.9351 37.6891 62.2603L37.8308 63.2502ZM67.1579 66.3106C79.9389 70.5058 88.8133 78.8705 93.4365 83.9985L94.1792 83.3288C89.5016 78.1407 80.4868 69.6331 67.4698 65.3604L67.1579 66.3106ZM94.0023 85.5804C93.8836 86.8297 93.5083 88.579 92.3962 90.3185L93.2387 90.8572C94.4606 88.946 94.869 87.0305 94.9979 85.675L94.0023 85.5804ZM92.3962 90.3185C90.6602 93.0334 88.0535 94.2801 86.1694 94.8495L86.4588 95.8068C88.4694 95.1991 91.3265 93.8476 93.2387 90.8572L92.3962 90.3185ZM83.5631 93.4507C82.6371 91.6427 81.2508 89.6564 79.1504 88.0616L78.5457 88.8581C80.4951 90.3382 81.7947 92.1917 82.6731 93.9066L83.5631 93.4507ZM79.15 88.0613C75.5291 85.3178 71.7811 85.3505 67.7082 85.9523C63.6104 86.5578 59.2174 87.7218 54 87.4488L53.9478 88.4475C59.2981 88.7274 63.8853 87.528 67.8543 86.9416C71.8482 86.3514 75.2534 86.3635 78.5461 88.8584L79.15 88.0613ZM54 87.4488C52.7895 87.3855 51.5373 87.2444 50.2386 87.0001L50.0537 87.9828C51.3988 88.2359 52.6955 88.382 53.9478 88.4475L54 87.4488ZM50.238 87C43.0246 85.6515 36.3015 82.0013 31.1152 78.011C28.5242 76.0174 26.3252 73.9454 24.6478 72.0453C22.963 70.1369 21.8294 68.4301 21.3364 67.169L20.405 67.5331C20.9604 68.9537 22.1823 70.7635 23.8981 72.7071C25.6212 74.659 27.8679 76.7742 30.5054 78.8035C35.7765 82.8591 42.6426 86.5974 50.0542 87.9829L50.238 87ZM21.3364 67.169C21.0141 66.3445 21.0172 65.8424 21.1413 65.5936L20.2466 65.1471C19.9208 65.8 20.0639 66.6606 20.405 67.5331L21.3364 67.169ZM21.1397 65.597C21.2296 65.42 21.4048 65.3155 21.611 65.2122L21.163 64.3181C20.9623 64.4187 20.5016 64.6454 20.2482 65.1438L21.1397 65.597ZM21.611 65.2122C21.7035 65.1658 21.7997 65.1279 21.8998 65.0981L21.614 64.1398C21.4598 64.1858 21.3092 64.2449 21.163 64.3181L21.611 65.2122ZM21.8998 65.0981C22.5893 64.8925 23.4865 65.0634 24.5187 65.54C25.536 66.0096 26.6005 66.7372 27.5775 67.5124C28.5513 68.2851 29.4214 69.0916 30.049 69.7064C30.3624 70.0133 30.6144 70.2715 30.7875 70.4524C30.8741 70.5428 30.9408 70.6138 30.9857 70.662C31.0081 70.686 31.0251 70.7043 31.0362 70.7165C31.0418 70.7226 31.046 70.7271 31.0487 70.73C31.05 70.7315 31.051 70.7325 31.0516 70.7332C31.0519 70.7335 31.0521 70.7337 31.0522 70.7338C31.0522 70.7339 31.0522 70.7339 31.0523 70.734C31.0523 70.7339 31.0522 70.7339 31.4219 70.3973C31.7917 70.0607 31.7916 70.0606 31.7915 70.0605C31.7914 70.0604 31.7913 70.0603 31.7911 70.0601C31.7909 70.0598 31.7905 70.0594 31.7901 70.0589C31.7892 70.0579 31.7879 70.0565 31.7862 70.0547C31.7829 70.0511 31.7781 70.0459 31.7718 70.0391C31.7593 70.0255 31.741 70.0057 31.7172 69.9801C31.6695 69.929 31.5997 69.8547 31.5099 69.7609C31.3304 69.5733 31.0708 69.3074 30.7487 68.9919C30.1053 68.3618 29.2086 67.5301 28.1991 66.7291C27.1928 65.9306 26.0575 65.149 24.9379 64.6321C23.8331 64.122 22.6564 63.8289 21.614 64.1398L21.8998 65.0981ZM55.641 68.0815C55.2346 68.6729 54.0953 69.8811 52.7264 70.8748L53.3139 71.6841C54.7524 70.6398 55.9802 69.3536 56.4652 68.6478L55.641 68.0815ZM52.7264 70.8748C51.6276 71.6725 50.4584 72.2743 49.4589 72.3648L49.5491 73.3607C50.8235 73.2453 52.1735 72.5119 53.3139 71.6841L52.7264 70.8748ZM49.4589 72.3648C46.9433 72.5926 43.5997 72.6779 40.7614 72.375L40.6553 73.3694C43.5783 73.6813 46.9912 73.5924 49.5491 73.3607L49.4589 72.3648ZM40.7614 72.375C40.7329 72.372 40.7043 72.3689 40.6759 72.3658L40.5666 73.3598C40.5961 73.363 40.6257 73.3662 40.6553 73.3694L40.7614 72.375ZM36.05 81.4247C34.9669 80.8454 31.0736 78.758 26.9668 76.4277C22.8446 74.0886 18.5559 71.5316 16.6508 70.0069L16.0259 70.7877C18.0058 72.3722 22.3709 74.9696 26.4733 77.2974C30.5912 79.634 34.4932 81.7261 35.5784 82.3065L36.05 81.4247ZM16.6519 70.0078C16.0703 69.5397 15.6368 69.109 15.367 68.7132C15.0986 68.3195 15.022 68.0059 15.0643 67.7437L14.0771 67.5843C13.9796 68.1886 14.1891 68.7606 14.5407 69.2764C14.8908 69.7901 15.4111 70.2928 16.0249 70.7868L16.6519 70.0078ZM15.0647 67.7414C15.1188 67.3961 15.3867 67.09 15.7489 66.8389C16.0992 66.5962 16.4513 66.4658 16.5029 66.4478L16.1738 65.5035C16.0792 65.5365 15.6333 65.7023 15.1793 66.017C14.7371 66.3235 14.1943 66.836 14.0768 67.5866L15.0647 67.7414ZM16.5065 66.4465C17.4094 66.1241 18.3453 66.3635 19.1285 66.7555C19.9053 67.1443 20.454 67.6458 20.5289 67.716L21.2125 66.9861C21.106 66.8864 20.4763 66.3118 19.5761 65.8612C18.6823 65.4138 17.4428 65.0504 16.1702 65.5047L16.5065 66.4465ZM20.5289 67.716C20.5313 67.7183 20.5332 67.7201 20.5346 67.7214L21.222 66.995C21.2195 66.9927 21.2163 66.9897 21.2125 66.9862L20.5289 67.716ZM17.6109 65.8695C17.6422 65.7128 17.8507 64.7493 18.6957 64.3184L18.2414 63.4276C16.9373 64.0926 16.6625 65.5119 16.6302 65.6738L17.6109 65.8695ZM18.6969 64.3178C19.496 63.9076 20.6199 64.109 21.3864 64.9547L22.1274 64.2832C21.1007 63.1505 19.4971 62.7829 18.2402 63.4282L18.6969 64.3178ZM21.3864 64.9547C21.3879 64.9564 21.3894 64.9581 21.391 64.9597L22.1335 64.2899C22.1314 64.2877 22.1294 64.2854 22.1274 64.2832L21.3864 64.9547ZM93.4365 83.9985C93.8433 84.4497 94.0559 85.0169 94.0023 85.5804L94.9979 85.675C95.0817 84.7927 94.745 83.9563 94.1792 83.3288L93.4365 83.9985ZM86.1694 94.8495C85.1755 95.1499 84.1196 94.537 83.5631 93.4507L82.6731 93.9066C83.3616 95.2507 84.8388 96.2964 86.4588 95.8068L86.1694 94.8495ZM62.9798 74.0285C63.0921 73.936 63.2038 73.8572 63.3186 73.7936L62.834 72.9188C62.6539 73.0186 62.4916 73.135 62.3437 73.2569L62.9798 74.0285ZM30.6204 41.9774L13.3864 49.4454L13.784 50.363L31.0181 42.8949L30.6204 41.9774ZM26.9192 33.9085L13.132 30.4617L12.8895 31.4318L26.6767 34.8787L26.9192 33.9085ZM71.9822 42.8949L89.2162 50.363L89.6138 49.4454L72.3798 41.9774L71.9822 42.8949ZM76.3235 34.8787L90.1107 31.4318L89.8682 30.4617L76.081 33.9085L76.3235 34.8787Z" fill="url(#paint0_linear)"/>
    <path d="M49.6 37.34V39.58H58.24V42.9H49.6V46.5H43.08V42.9H39.2V39.58H43.08V18.5H55.2C59.0133 18.5 61.9867 19.3 64.12 20.9C66.28 22.5 67.36 24.8467 67.36 27.94C67.36 31.0067 66.28 33.34 64.12 34.94C61.9867 36.54 59.0133 37.34 55.2 37.34H49.6ZM60.8 27.98C60.8 26.62 60.3067 25.58 59.32 24.86C58.36 24.14 56.9733 23.78 55.16 23.78H49.6V32.26H55.16C56.9733 32.26 58.36 31.9 59.32 31.18C60.3067 30.4333 60.8 29.3667 60.8 27.98Z" fill="url(#paint1_linear)"/>
    <defs>
        <linearGradient id="paint0_linear" x1="13.0107" y1="63.1872" x2="94.5106" y2="63.1872" gradientUnits="userSpaceOnUse">
            <stop stop-color="#16A7D8"/>
            <stop offset="1" stop-color="#1290B4"/>
        </linearGradient>
        <linearGradient id="paint1_linear" x1="38.8" y1="32.5" x2="70" y2="32.5" gradientUnits="userSpaceOnUse">
            <stop stop-color="#FEB43F"/>
            <stop offset="1" stop-color="#FECB3E"/>
        </linearGradient>
    </defs>
</svg>
