<svg width="97" height="97" viewBox="0 0 97 97" fill="none" xmlns="http://www.w3.org/2000/svg">
    <mask id="path-1-outside-1" maskUnits="userSpaceOnUse" x="8" y="3" width="79" height="90" fill="black">
        <rect fill="white" x="8" y="3" width="79" height="90"/>
        <path d="M55 6C55 4.89543 55.8954 4 57 4H60C61.1046 4 62 4.89543 62 6V9C62 10.1046 61.1046 11 60 11H57C55.8954 11 55 10.1046 55 9V6Z"/>
        <path d="M55 15.5C55 14.3954 55.8954 13.5 57 13.5H60C61.1046 13.5 62 14.3954 62 15.5V18.5C62 19.6046 61.1046 20.5 60 20.5H57C55.8954 20.5 55 19.6046 55 18.5V15.5Z"/>
        <path d="M57 23C55.8954 23 55 23.8954 55 25V28C55 29.1046 55.8954 30 57 30H60C61.1046 30 62 29.1046 62 28V25C62 23.8954 61.1046 23 60 23H57Z"/>
        <path d="M55 34.5C55 33.3954 55.8954 32.5 57 32.5H60C61.1046 32.5 62 33.3954 62 34.5V37.5H55V34.5Z"/>
        <path fill-rule="evenodd" clip-rule="evenodd" d="M31 24.5V8.5C31 7.39543 30.1046 6.5 29 6.5H11C9.89543 6.5 9 7.39543 9 8.5V24.5C9 25.6046 9.89543 26.5 11 26.5H29C30.1046 26.5 31 25.6046 31 24.5ZM20 9C20.2761 9 20.5 9.22386 20.5 9.5V19C20.5 19.2761 20.2761 19.5 20 19.5C19.7239 19.5 19.5 19.2761 19.5 19V9.5C19.5 9.22386 19.7239 9 20 9ZM20 21C20.2761 21 20.5 21.2239 20.5 21.5V22.5C20.5 22.7761 20.2761 23 20 23C19.7239 23 19.5 22.7761 19.5 22.5V21.5C19.5 21.2239 19.7239 21 20 21Z"/>
        <path fill-rule="evenodd" clip-rule="evenodd" d="M12 42C12 41.4477 12.4477 41 13 41H85C85.5523 41 86 41.4477 86 42V47H12V42ZM18 44C18 45.1046 17.1046 46 16 46C14.8954 46 14 45.1046 14 44C14 42.8954 14.8954 42 16 42C17.1046 42 18 42.8954 18 44ZM24 44C24 45.1046 23.1046 46 22 46C20.8954 46 20 45.1046 20 44C20 42.8954 20.8954 42 22 42C23.1046 42 24 42.8954 24 44ZM28 46C29.1046 46 30 45.1046 30 44C30 42.8954 29.1046 42 28 42C26.8954 42 26 42.8954 26 44C26 45.1046 26.8954 46 28 46Z"/>
        <path fill-rule="evenodd" clip-rule="evenodd" d="M86 48H12V92H27V55.5C27 54.3954 27.8954 53.5 29 53.5H68C69.1046 53.5 70 54.3954 70 55.5V92H86V48ZM17 53.5H20C20.5523 53.5 21 53.9477 21 54.5V57.5C21 58.0523 20.5523 58.5 20 58.5H17C16.4477 58.5 16 58.0523 16 57.5V54.5C16 53.9477 16.4477 53.5 17 53.5ZM20 60.5H17C16.4477 60.5 16 60.9477 16 61.5V64.5C16 65.0523 16.4477 65.5 17 65.5H20C20.5523 65.5 21 65.0523 21 64.5V61.5C21 60.9477 20.5523 60.5 20 60.5ZM17 67.5H20C20.5523 67.5 21 67.9477 21 68.5V71.5C21 72.0523 20.5523 72.5 20 72.5H17C16.4477 72.5 16 72.0523 16 71.5V68.5C16 67.9477 16.4477 67.5 17 67.5Z"/>
    </mask>
    <path d="M55 6C55 4.89543 55.8954 4 57 4H60C61.1046 4 62 4.89543 62 6V9C62 10.1046 61.1046 11 60 11H57C55.8954 11 55 10.1046 55 9V6Z" fill="url(#paint0_linear)"/>
    <path d="M55 15.5C55 14.3954 55.8954 13.5 57 13.5H60C61.1046 13.5 62 14.3954 62 15.5V18.5C62 19.6046 61.1046 20.5 60 20.5H57C55.8954 20.5 55 19.6046 55 18.5V15.5Z" fill="url(#paint1_linear)"/>
    <path d="M57 23C55.8954 23 55 23.8954 55 25V28C55 29.1046 55.8954 30 57 30H60C61.1046 30 62 29.1046 62 28V25C62 23.8954 61.1046 23 60 23H57Z" fill="url(#paint2_linear)"/>
    <path d="M55 34.5C55 33.3954 55.8954 32.5 57 32.5H60C61.1046 32.5 62 33.3954 62 34.5V37.5H55V34.5Z" fill="url(#paint3_linear)"/>
    <path fill-rule="evenodd" clip-rule="evenodd" d="M31 24.5V8.5C31 7.39543 30.1046 6.5 29 6.5H11C9.89543 6.5 9 7.39543 9 8.5V24.5C9 25.6046 9.89543 26.5 11 26.5H29C30.1046 26.5 31 25.6046 31 24.5ZM20 9C20.2761 9 20.5 9.22386 20.5 9.5V19C20.5 19.2761 20.2761 19.5 20 19.5C19.7239 19.5 19.5 19.2761 19.5 19V9.5C19.5 9.22386 19.7239 9 20 9ZM20 21C20.2761 21 20.5 21.2239 20.5 21.5V22.5C20.5 22.7761 20.2761 23 20 23C19.7239 23 19.5 22.7761 19.5 22.5V21.5C19.5 21.2239 19.7239 21 20 21Z" fill="url(#paint4_linear)"/>
    <path fill-rule="evenodd" clip-rule="evenodd" d="M12 42C12 41.4477 12.4477 41 13 41H85C85.5523 41 86 41.4477 86 42V47H12V42ZM18 44C18 45.1046 17.1046 46 16 46C14.8954 46 14 45.1046 14 44C14 42.8954 14.8954 42 16 42C17.1046 42 18 42.8954 18 44ZM24 44C24 45.1046 23.1046 46 22 46C20.8954 46 20 45.1046 20 44C20 42.8954 20.8954 42 22 42C23.1046 42 24 42.8954 24 44ZM28 46C29.1046 46 30 45.1046 30 44C30 42.8954 29.1046 42 28 42C26.8954 42 26 42.8954 26 44C26 45.1046 26.8954 46 28 46Z" fill="url(#paint5_linear)"/>
    <path fill-rule="evenodd" clip-rule="evenodd" d="M86 48H12V92H27V55.5C27 54.3954 27.8954 53.5 29 53.5H68C69.1046 53.5 70 54.3954 70 55.5V92H86V48ZM17 53.5H20C20.5523 53.5 21 53.9477 21 54.5V57.5C21 58.0523 20.5523 58.5 20 58.5H17C16.4477 58.5 16 58.0523 16 57.5V54.5C16 53.9477 16.4477 53.5 17 53.5ZM20 60.5H17C16.4477 60.5 16 60.9477 16 61.5V64.5C16 65.0523 16.4477 65.5 17 65.5H20C20.5523 65.5 21 65.0523 21 64.5V61.5C21 60.9477 20.5523 60.5 20 60.5ZM17 67.5H20C20.5523 67.5 21 67.9477 21 68.5V71.5C21 72.0523 20.5523 72.5 20 72.5H17C16.4477 72.5 16 72.0523 16 71.5V68.5C16 67.9477 16.4477 67.5 17 67.5Z" fill="url(#paint6_linear)"/>
    <path d="M55 6C55 4.89543 55.8954 4 57 4H60C61.1046 4 62 4.89543 62 6V9C62 10.1046 61.1046 11 60 11H57C55.8954 11 55 10.1046 55 9V6Z" stroke="url(#paint7_linear)" stroke-width="2" mask="url(#path-1-outside-1)"/>
    <path d="M55 15.5C55 14.3954 55.8954 13.5 57 13.5H60C61.1046 13.5 62 14.3954 62 15.5V18.5C62 19.6046 61.1046 20.5 60 20.5H57C55.8954 20.5 55 19.6046 55 18.5V15.5Z" stroke="url(#paint8_linear)" stroke-width="2" mask="url(#path-1-outside-1)"/>
    <path d="M57 23C55.8954 23 55 23.8954 55 25V28C55 29.1046 55.8954 30 57 30H60C61.1046 30 62 29.1046 62 28V25C62 23.8954 61.1046 23 60 23H57Z" stroke="url(#paint9_linear)" stroke-width="2" mask="url(#path-1-outside-1)"/>
    <path d="M55 34.5C55 33.3954 55.8954 32.5 57 32.5H60C61.1046 32.5 62 33.3954 62 34.5V37.5H55V34.5Z" stroke="url(#paint10_linear)" stroke-width="2" mask="url(#path-1-outside-1)"/>
    <path fill-rule="evenodd" clip-rule="evenodd" d="M31 24.5V8.5C31 7.39543 30.1046 6.5 29 6.5H11C9.89543 6.5 9 7.39543 9 8.5V24.5C9 25.6046 9.89543 26.5 11 26.5H29C30.1046 26.5 31 25.6046 31 24.5ZM20 9C20.2761 9 20.5 9.22386 20.5 9.5V19C20.5 19.2761 20.2761 19.5 20 19.5C19.7239 19.5 19.5 19.2761 19.5 19V9.5C19.5 9.22386 19.7239 9 20 9ZM20 21C20.2761 21 20.5 21.2239 20.5 21.5V22.5C20.5 22.7761 20.2761 23 20 23C19.7239 23 19.5 22.7761 19.5 22.5V21.5C19.5 21.2239 19.7239 21 20 21Z" stroke="url(#paint11_linear)" stroke-width="2" mask="url(#path-1-outside-1)"/>
    <path fill-rule="evenodd" clip-rule="evenodd" d="M12 42C12 41.4477 12.4477 41 13 41H85C85.5523 41 86 41.4477 86 42V47H12V42ZM18 44C18 45.1046 17.1046 46 16 46C14.8954 46 14 45.1046 14 44C14 42.8954 14.8954 42 16 42C17.1046 42 18 42.8954 18 44ZM24 44C24 45.1046 23.1046 46 22 46C20.8954 46 20 45.1046 20 44C20 42.8954 20.8954 42 22 42C23.1046 42 24 42.8954 24 44ZM28 46C29.1046 46 30 45.1046 30 44C30 42.8954 29.1046 42 28 42C26.8954 42 26 42.8954 26 44C26 45.1046 26.8954 46 28 46Z" stroke="url(#paint12_linear)" stroke-width="2" mask="url(#path-1-outside-1)"/>
    <path fill-rule="evenodd" clip-rule="evenodd" d="M86 48H12V92H27V55.5C27 54.3954 27.8954 53.5 29 53.5H68C69.1046 53.5 70 54.3954 70 55.5V92H86V48ZM17 53.5H20C20.5523 53.5 21 53.9477 21 54.5V57.5C21 58.0523 20.5523 58.5 20 58.5H17C16.4477 58.5 16 58.0523 16 57.5V54.5C16 53.9477 16.4477 53.5 17 53.5ZM20 60.5H17C16.4477 60.5 16 60.9477 16 61.5V64.5C16 65.0523 16.4477 65.5 17 65.5H20C20.5523 65.5 21 65.0523 21 64.5V61.5C21 60.9477 20.5523 60.5 20 60.5ZM17 67.5H20C20.5523 67.5 21 67.9477 21 68.5V71.5C21 72.0523 20.5523 72.5 20 72.5H17C16.4477 72.5 16 72.0523 16 71.5V68.5C16 67.9477 16.4477 67.5 17 67.5Z" stroke="url(#paint13_linear)" stroke-width="2" mask="url(#path-1-outside-1)"/>
    <path d="M7.54815 92.5423H89.4H95.4484C95.7244 92.5423 95.9482 92.7661 95.9482 93.0423V94C95.9482 95.1046 95.0532 96 93.9492 96H2.99891C1.89494 96 1 95.1046 1 94V93.0423C1 92.7661 1.22374 92.5423 1.49973 92.5423H7.54815Z" fill="url(#paint14_linear)"/>
    <path d="M56.3755 6.64654C56.1803 6.45123 55.8637 6.45114 55.6684 6.64635C55.4731 6.84156 55.473 7.15814 55.6682 7.35346L56.3755 6.64654ZM57.521 8.5L57.1674 8.85346C57.2611 8.94728 57.3884 9 57.521 9C57.6537 9 57.7809 8.94728 57.8747 8.85346L57.521 8.5ZM60.3733 6.35346C60.5685 6.15814 60.5684 5.84156 60.3731 5.64635C60.1778 5.45114 59.8612 5.45123 59.666 5.64654L60.3733 6.35346ZM34.5336 59C34.2574 59 34.0336 59.2239 34.0336 59.5C34.0336 59.7761 34.2574 60 34.5336 60V59ZM61.5188 60C61.795 60 62.0188 59.7761 62.0188 59.5C62.0188 59.2239 61.795 59 61.5188 59V60ZM34.5336 66C34.2574 66 34.0336 66.2238 34.0336 66.5C34.0336 66.7761 34.2574 67 34.5336 67V66ZM61.5188 67C61.795 67 62.0188 66.7761 62.0188 66.5C62.0188 66.2238 61.795 66 61.5188 66V67ZM34.5336 78C34.2574 78 34.0336 78.2238 34.0336 78.5C34.0336 78.7761 34.2574 79 34.5336 79V78ZM61.5188 79C61.795 79 62.0188 78.7761 62.0188 78.5C62.0188 78.2238 61.795 78 61.5188 78V79ZM34.5336 69C34.2574 69 34.0336 69.2238 34.0336 69.5C34.0336 69.7761 34.2574 70 34.5336 70V69ZM61.5188 70C61.795 70 62.0188 69.7761 62.0188 69.5C62.0188 69.2238 61.795 69 61.5188 69V70ZM34.5336 81C34.2574 81 34.0336 81.2238 34.0336 81.5C34.0336 81.7761 34.2574 82 34.5336 82V81ZM61.5188 82C61.795 82 62.0188 81.7761 62.0188 81.5C62.0188 81.2238 61.795 81 61.5188 81V82ZM34.5336 72C34.2574 72 34.0336 72.2238 34.0336 72.5C34.0336 72.7761 34.2574 73 34.5336 73V72ZM61.5188 73C61.795 73 62.0188 72.7761 62.0188 72.5C62.0188 72.2238 61.795 72 61.5188 72V73ZM34.5336 84C34.2574 84 34.0336 84.2238 34.0336 84.5C34.0336 84.7761 34.2574 85 34.5336 85V84ZM61.5188 85C61.795 85 62.0188 84.7761 62.0188 84.5C62.0188 84.2238 61.795 84 61.5188 84V85ZM34.5336 75C34.2574 75 34.0336 75.2238 34.0336 75.5C34.0336 75.7761 34.2574 76 34.5336 76V75ZM61.5188 76C61.795 76 62.0188 75.7761 62.0188 75.5C62.0188 75.2238 61.795 75 61.5188 75V76ZM34.5336 87C34.2574 87 34.0336 87.2238 34.0336 87.5C34.0336 87.7761 34.2574 88 34.5336 88V87ZM61.5188 88C61.795 88 62.0188 87.7761 62.0188 87.5C62.0188 87.2238 61.795 87 61.5188 87V88ZM64.5172 7C64.241 7 64.0172 7.22385 64.0172 7.5C64.0172 7.77614 64.241 8 64.5172 8V7ZM82.5074 7.99999C82.7835 7.99999 83.0074 7.77614 83.0074 7.49999C83.0074 7.22385 82.7835 6.99999 82.5074 6.99999V7.99999ZM64.5172 15C64.241 15 64.0172 15.2239 64.0172 15.5C64.0172 15.7761 64.241 16 64.5172 16V15ZM91.5024 16C91.7786 16 92.0024 15.7761 92.0024 15.5C92.0024 15.2239 91.7786 15 91.5024 15V16ZM64.5172 17C64.241 17 64.0172 17.2239 64.0172 17.5C64.0172 17.7761 64.241 18 64.5172 18V17ZM71.5134 18C71.7895 18 72.0134 17.7761 72.0134 17.5C72.0134 17.2239 71.7895 17 71.5134 17V18ZM64.5172 25C64.241 25 64.0172 25.2239 64.0172 25.5C64.0172 25.7761 64.241 26 64.5172 26V25ZM87.5046 26C87.7808 26 88.0046 25.7761 88.0046 25.5C88.0046 25.2239 87.7808 25 87.5046 25V26ZM64.5172 27C64.241 27 64.0172 27.2239 64.0172 27.5C64.0172 27.7761 64.241 28 64.5172 28V27ZM81.5079 28C81.784 28 82.0079 27.7761 82.0079 27.5C82.0079 27.2239 81.784 27 81.5079 27V28ZM64.5172 35C64.241 35 64.0172 35.2239 64.0172 35.5C64.0172 35.7761 64.241 36 64.5172 36V35ZM84.5063 36C84.7824 36 85.0063 35.7761 85.0063 35.5C85.0063 35.2239 84.7824 35 84.5063 35V36ZM95.5 3V42H96.5V3H95.5ZM55.6682 7.35346L57.1674 8.85346L57.8747 8.14654L56.3755 6.64654L55.6682 7.35346ZM57.8747 8.85346L60.3733 6.35346L59.666 5.64654L57.1674 8.14654L57.8747 8.85346ZM49.5257 3C49.5257 2.17132 50.197 1.5 51.0246 1.5V0.5C49.6442 0.5 48.5257 1.61955 48.5257 3H49.5257ZM95.5 42C95.5 42.8287 94.8287 43.5 94.0011 43.5V44.5C95.3815 44.5 96.5 43.3805 96.5 42H95.5ZM96.5 3C96.5 1.61955 95.3815 0.5 94.0011 0.5V1.5C94.8287 1.5 95.5 2.17132 95.5 3H96.5ZM34.5336 60L61.5188 60V59L34.5336 59V60ZM34.5336 67H61.5188V66H34.5336V67ZM34.5336 79H61.5188V78H34.5336V79ZM34.5336 70H61.5188V69H34.5336V70ZM34.5336 82H61.5188V81H34.5336V82ZM34.5336 73H61.5188V72H34.5336V73ZM34.5336 85H61.5188V84H34.5336V85ZM34.5336 76H61.5188V75H34.5336V76ZM34.5336 88H61.5188V87H34.5336V88ZM89.4 92.0423H7.54815V93.0423H89.4V92.0423ZM8.04815 92.5423V40H7.04815V92.5423H8.04815ZM89.4 93.0423H95.4484V92.0423H89.4V93.0423ZM95.4482 93.0423V94H96.4482V93.0423H95.4482ZM93.9492 95.5H2.99891V96.5H93.9492V95.5ZM1.5 94V93.0423H0.5V94H1.5ZM1.49973 93.0423H7.54815V92.0423H1.49973V93.0423ZM1.5 93.0423H1.49973V92.0423C0.947336 92.0423 0.5 92.4902 0.5 93.0423H1.5ZM95.4484 93.0423H95.4482H96.4482C96.4482 92.4902 96.0008 92.0423 95.4484 92.0423V93.0423ZM95.4482 94C95.4482 94.8287 94.7768 95.5 93.9492 95.5V96.5C95.3296 96.5 96.4482 95.3805 96.4482 94H95.4482ZM87.4011 38.5C88.2287 38.5 88.9 39.1713 88.9 40H89.9C89.9 38.6195 88.7815 37.5 87.4011 37.5V38.5ZM2.99891 95.5C2.17134 95.5 1.5 94.8287 1.5 94H0.5C0.5 95.3805 1.61855 96.5 2.99891 96.5V95.5ZM9.54706 37.5C8.16669 37.5 7.04815 38.6195 7.04815 40H8.04815C8.04815 39.1713 8.71949 38.5 9.54706 38.5V37.5ZM64.5172 8L82.5074 7.99999V6.99999L64.5172 7V8ZM64.5172 16L91.5024 16V15L64.5172 15V16ZM64.5172 18L71.5134 18V17L64.5172 17V18ZM64.5172 26L87.5046 26V25L64.5172 25V26ZM64.5172 28L81.5079 28V27L64.5172 27V28ZM64.5172 36L84.5063 36V35L64.5172 35V36ZM51.0246 1.5H94.0011V0.5H51.0246V1.5ZM9.54706 38.5H49.0257V37.5H9.54706V38.5ZM49.0257 38.5H87.4011V37.5H49.0257V38.5ZM49.5257 38V3H48.5257V38H49.5257ZM88.9 40V44H89.9V40H88.9ZM88.9 44V92.5423H89.9V44H88.9ZM94.0011 43.5H89.4V44.5H94.0011V43.5Z" fill="#31477B"/>
    <defs>
        <linearGradient id="paint0_linear" x1="9" y1="48" x2="86" y2="48" gradientUnits="userSpaceOnUse">
            <stop stop-color="#16A7D8"/>
            <stop offset="1" stop-color="#1290B4"/>
        </linearGradient>
        <linearGradient id="paint1_linear" x1="9" y1="48" x2="86" y2="48" gradientUnits="userSpaceOnUse">
            <stop stop-color="#16A7D8"/>
            <stop offset="1" stop-color="#1290B4"/>
        </linearGradient>
        <linearGradient id="paint2_linear" x1="9" y1="48" x2="86" y2="48" gradientUnits="userSpaceOnUse">
            <stop stop-color="#16A7D8"/>
            <stop offset="1" stop-color="#1290B4"/>
        </linearGradient>
        <linearGradient id="paint3_linear" x1="9" y1="48" x2="86" y2="48" gradientUnits="userSpaceOnUse">
            <stop stop-color="#16A7D8"/>
            <stop offset="1" stop-color="#1290B4"/>
        </linearGradient>
        <linearGradient id="paint4_linear" x1="9" y1="48" x2="86" y2="48" gradientUnits="userSpaceOnUse">
            <stop stop-color="#16A7D8"/>
            <stop offset="1" stop-color="#1290B4"/>
        </linearGradient>
        <linearGradient id="paint5_linear" x1="9" y1="48" x2="86" y2="48" gradientUnits="userSpaceOnUse">
            <stop stop-color="#16A7D8"/>
            <stop offset="1" stop-color="#1290B4"/>
        </linearGradient>
        <linearGradient id="paint6_linear" x1="9" y1="48" x2="86" y2="48" gradientUnits="userSpaceOnUse">
            <stop stop-color="#16A7D8"/>
            <stop offset="1" stop-color="#1290B4"/>
        </linearGradient>
        <linearGradient id="paint7_linear" x1="10.925" y1="48" x2="86" y2="48" gradientUnits="userSpaceOnUse">
            <stop stop-color="#FEB43F"/>
            <stop offset="1" stop-color="#FECB3E"/>
        </linearGradient>
        <linearGradient id="paint8_linear" x1="10.925" y1="48" x2="86" y2="48" gradientUnits="userSpaceOnUse">
            <stop stop-color="#FEB43F"/>
            <stop offset="1" stop-color="#FECB3E"/>
        </linearGradient>
        <linearGradient id="paint9_linear" x1="10.925" y1="48" x2="86" y2="48" gradientUnits="userSpaceOnUse">
            <stop stop-color="#FEB43F"/>
            <stop offset="1" stop-color="#FECB3E"/>
        </linearGradient>
        <linearGradient id="paint10_linear" x1="10.925" y1="48" x2="86" y2="48" gradientUnits="userSpaceOnUse">
            <stop stop-color="#FEB43F"/>
            <stop offset="1" stop-color="#FECB3E"/>
        </linearGradient>
        <linearGradient id="paint11_linear" x1="10.925" y1="48" x2="86" y2="48" gradientUnits="userSpaceOnUse">
            <stop stop-color="#FEB43F"/>
            <stop offset="1" stop-color="#FECB3E"/>
        </linearGradient>
        <linearGradient id="paint12_linear" x1="10.925" y1="48" x2="86" y2="48" gradientUnits="userSpaceOnUse">
            <stop stop-color="#FEB43F"/>
            <stop offset="1" stop-color="#FECB3E"/>
        </linearGradient>
        <linearGradient id="paint13_linear" x1="10.925" y1="48" x2="86" y2="48" gradientUnits="userSpaceOnUse">
            <stop stop-color="#FEB43F"/>
            <stop offset="1" stop-color="#FECB3E"/>
        </linearGradient>
        <linearGradient id="paint14_linear" x1="3.375" y1="48.5" x2="96" y2="48.5" gradientUnits="userSpaceOnUse">
            <stop stop-color="#FEB43F"/>
            <stop offset="1" stop-color="#FECB3E"/>
        </linearGradient>
    </defs>
</svg>
