<svg width="96" height="97" viewBox="0 0 96 97" fill="none" xmlns="http://www.w3.org/2000/svg">
    <path d="M33.5484 70.9116H56.7957C58.3118 72.5896 59.3226 74.9388 61.8495 77.4558C64.3763 79.9728 70.4409 84 70.4409 84H33.5484C32.4319 84 31.5269 83.0985 31.5269 81.9864V72.9252C31.5269 71.8131 32.4319 70.9116 33.5484 70.9116Z" fill="#FDFDFD"/>
    <path d="M56.2903 22.585H73.9785C75.0949 22.585 76 23.4866 76 24.5986V28.6258C76 29.7379 75.0949 30.6395 73.9785 30.6395H63.1662C62.3672 30.6395 61.6632 30.1567 61.3505 29.4214C60.806 28.1413 60.0012 26.6122 58.8172 26.6122C57.5675 26.6122 57.2433 28.3156 57.2382 29.6319C57.2361 30.1652 56.8237 30.6395 56.2903 30.6395C55.1739 30.6395 54.2688 29.7379 54.2688 28.6258V24.5986C54.2688 23.4866 55.1739 22.585 56.2903 22.585Z" fill="#FDFDFD"/>
    <path d="M29 12.0136V29.1293C29 29.5707 29.1426 29.9789 29.3844 30.3108L30.5161 29.6327L35.0645 25.6054C35.5699 25.102 36.8839 23.9946 38.0968 23.5918C39.3097 23.1891 40.2867 23.424 40.6237 23.5918C40.9606 23.7596 41.7355 24.5986 42.1398 26.6122C42.5441 28.6258 40.9606 30.4717 40.1183 31.1429H46.1828C47.2992 31.1429 48.2043 30.2413 48.2043 29.1293V12.0136C48.2043 10.9015 47.2992 10 46.1828 10H31.0215C29.9051 10 29 10.9015 29 12.0136Z" fill="#FDFDFD"/>
    <path d="M90.3591 30.7891C89.2585 29.4671 89.0749 28.5073 89 26C88.9251 28.5073 88.7415 29.4671 87.6409 30.7891C87.2986 31.2003 87.2986 31.7997 87.6409 32.2109C88.7415 33.5329 88.9251 34.4927 89 37C89.0749 34.4927 89.2585 33.5329 90.3591 32.2109C90.7014 31.7997 90.7014 31.2003 90.3591 30.7891Z" fill="#FDFDFD" stroke="#FDFDFD" stroke-linecap="round" stroke-linejoin="round"/>
    <path d="M35.3673 76C35.0911 76 34.8673 76.2239 34.8673 76.5C34.8673 76.7762 35.0911 77 35.3673 77V76ZM44.8885 72C44.6124 72 44.3885 72.2239 44.3885 72.5C44.3885 72.7762 44.6124 73 44.8885 73V72ZM43.8863 80C43.6101 80 43.3863 80.2239 43.3863 80.5C43.3863 80.7762 43.6101 81 43.8863 81V80ZM13.8191 14.0001L14.3189 13.9855C14.3111 13.7152 14.0896 13.5001 13.8191 13.5001C13.5487 13.5001 13.3272 13.7152 13.3194 13.9855L13.8191 14.0001ZM16.2037 21.8087L16.582 21.4818L16.2037 21.8087ZM11.4346 21.8087L11.0562 21.4818L11.4346 21.8087ZM13.8191 31L13.3194 31.0146C13.3272 31.2849 13.5487 31.5 13.8191 31.5C14.0896 31.5 14.3111 31.2849 14.3189 31.0146L13.8191 31ZM16.2037 23.1914L16.582 23.5183L16.2037 23.1914ZM11.4346 23.1914L11.0562 23.5183L11.4346 23.1914ZM45.8906 34.5C46.1668 34.5 46.3906 34.2762 46.3906 34C46.3906 33.7239 46.1668 33.5 45.8906 33.5V34.5ZM46.8929 37.5C47.169 37.5 47.3929 37.2762 47.3929 37C47.3929 36.7239 47.169 36.5 46.8929 36.5V37.5ZM43.8862 40.5C44.1623 40.5 44.3862 40.2762 44.3862 40C44.3862 39.7239 44.1623 39.5 43.8862 39.5V40.5ZM22.7293 61.0717C22.4871 61.2044 22.3984 61.5083 22.5311 61.7505C22.6638 61.9926 22.9677 62.0813 23.2099 61.9486L22.7293 61.0717ZM29.1233 55.0702L29.5723 55.2902L29.5724 55.29L29.1233 55.0702ZM35.1968 34.6302L34.8104 34.3129L34.8102 34.3131L35.1968 34.6302ZM41.12 24.1502L40.6664 24.3605L40.6666 24.361L41.12 24.1502ZM36.8605 22.9102L37.0609 23.3683L37.0619 23.3678L36.8605 22.9102ZM32.9719 26.4502L32.6131 26.1019L32.6113 26.1038L32.9719 26.4502ZM25.5954 31.6202L25.8608 32.044L25.8615 32.0435L25.5954 31.6202ZM19.3415 37.9402L18.8825 37.7418L18.882 37.7432L19.3415 37.9402ZM16.6279 42.642C16.4246 42.8288 16.4112 43.1451 16.598 43.3485C16.7849 43.5518 17.1012 43.5652 17.3045 43.3784L16.6279 42.642ZM25.6081 26.3976C25.8276 26.2301 25.8698 25.9163 25.7023 25.6968C25.5348 25.4772 25.2211 25.435 25.0015 25.6025L25.6081 26.3976ZM17.1366 33.2302L16.7445 32.9199L16.7438 32.9208L17.1366 33.2302ZM15.5932 36.6102L16.0704 36.7592L16.0705 36.7589L15.5932 36.6102ZM11.2734 51.0203L11.7609 51.1314L11.761 51.1308L11.2734 51.0203ZM8.30681 61.5503L7.84811 61.3513L7.84789 61.3518L8.30681 61.5503ZM21.2959 68.0702L21.0313 67.646L21.0306 67.6464L21.2959 68.0702ZM28.3315 65.0302L28.0726 64.6025L28.0712 64.6033L28.3315 65.0302ZM33.2355 52.6359C33.2411 52.3598 33.0218 52.1314 32.7457 52.1258C32.4696 52.1202 32.2413 52.3395 32.2357 52.6156L33.2355 52.6359ZM50.4091 30.9207C50.1472 30.8331 49.8639 30.9743 49.7762 31.2361C49.6886 31.498 49.8298 31.7813 50.0916 31.869L50.4091 30.9207ZM50.3151 37.2144C50.0412 37.1787 49.7903 37.3717 49.7546 37.6455C49.7188 37.9193 49.9119 38.1702 50.1857 38.206L50.3151 37.2144ZM50.3636 40.013C50.0947 39.9505 49.8259 40.1178 49.7634 40.3868C49.7008 40.6557 49.8681 40.9245 50.1371 40.987L50.3636 40.013ZM50.3917 45.0204C50.1268 44.9424 49.8488 45.0939 49.7707 45.3587C49.6927 45.6236 49.8442 45.9016 50.1091 45.9797L50.3917 45.0204ZM40.8741 52.31C40.6917 52.1026 40.3758 52.0823 40.1684 52.2647C39.9611 52.4471 39.9408 52.763 40.1232 52.9704L40.8741 52.31ZM44.7381 57.9702L44.3021 58.215L44.3025 58.2157L44.7381 57.9702ZM45.0388 59.5502L44.5798 59.3517L44.5772 59.358L45.0388 59.5502ZM43.2247 60.3002L43.2751 59.8027L43.2746 59.8027L43.2247 60.3002ZM34.8383 52.2915C34.6457 52.0936 34.3292 52.0892 34.1312 52.2818C33.9333 52.4743 33.9289 52.7909 34.1215 52.9888L34.8383 52.2915ZM30.0787 52.1402C29.8025 52.1415 29.5798 52.3665 29.5812 52.6427C29.5825 52.9188 29.8075 53.1415 30.0836 53.1402L30.0787 52.1402ZM48.2557 52.5499L48.2533 52.0499H48.2532L48.2557 52.5499ZM48.2459 1.50007L48.2459 2.00007H48.2459L48.2459 1.50007ZM27.3092 1.50035L27.3092 1.00035L27.3092 1.00035L27.3092 1.50035ZM24.8048 31.8039C24.8048 32.08 25.0286 32.3039 25.3048 32.3039C25.5809 32.3039 25.8048 32.08 25.8048 31.8039H24.8048ZM45.8906 1.50008L45.8906 1.00008V1.00008L45.8906 1.50008ZM12.5718 85.1487L12.6886 84.6625L12.5718 85.1487ZM14.8625 83.7915L15.3411 83.9361L14.8625 83.7915ZM1.39517 72.1213L0.993182 71.824L1.39517 72.1213ZM1.13501 74.03L1.60065 73.8479L1.13501 74.03ZM69.9442 1L70.444 0.985483C70.4361 0.715108 70.2147 0.5 69.9442 0.5C69.6737 0.5 69.4523 0.715108 69.4444 0.985483L69.9442 1ZM72.3288 8.80865L72.7071 8.48173L72.3288 8.80865ZM67.5596 8.80865L67.1813 8.48173L67.5596 8.80865ZM69.9442 18L69.4444 18.0145C69.4523 18.2849 69.6737 18.5 69.9442 18.5C70.2147 18.5 70.4361 18.2849 70.444 18.0145L69.9442 18ZM72.3288 10.1913L72.7071 10.5183L72.3288 10.1913ZM67.5596 10.1913L67.1813 10.5183L67.5596 10.1913ZM94.5611 90.0777L94.9381 89.7493L94.5611 90.0777ZM82.6806 74.9524L82.186 75.025L82.6806 74.9524ZM78.4562 59.643L78.8912 59.3965L78.4562 59.643ZM78.2519 59.0182L77.7565 59.0861V59.0861L78.2519 59.0182ZM76.1798 55.0977L76.49 54.7056V54.7056L76.1798 55.0977ZM75.3816 54.0813L75.8199 53.8407L75.3816 54.0813ZM67.2023 46.3923L66.8789 46.7737H66.8789L67.2023 46.3923ZM66.8002 45.7898L66.3245 45.9438L66.8002 45.7898ZM58.4015 26.0587L58.4939 25.5673L58.4015 26.0587ZM48.0158 56.3585L47.5341 56.4925L48.0158 56.3585ZM73.1113 86.2516L73.5907 86.1096C73.5665 86.028 73.5219 85.9538 73.461 85.8943L73.1113 86.2516ZM59.998 44.2837L60.4778 44.1429L59.998 44.2837ZM61.7002 49.9028L62.1828 49.772C62.1811 49.766 62.1794 49.7601 62.1776 49.7542L61.7002 49.9028ZM60.4298 62.1947L60.0634 61.8545L60.4298 62.1947ZM53.9032 57.9448L53.4592 58.1749L53.9032 57.9448ZM57.7855 55.432L58.256 55.6014L57.7855 55.432ZM56.5695 60.0869L56.6451 59.5926L56.5695 60.0869ZM60.7782 57.484L60.3171 57.2909L60.7782 57.484ZM59.1827 59.5395L58.905 59.1237L59.1827 59.5395ZM61.6055 60.5312C61.8343 60.3765 61.8944 60.0657 61.7398 59.8369C61.5852 59.6081 61.2743 59.548 61.0455 59.7026L61.6055 60.5312ZM75.5072 94.3404L75.0278 94.4824L75.5072 94.3404ZM76.95 95.5829L77.012 95.0867L76.95 95.5829ZM94.3388 92.5597L94.0457 92.1546L94.3388 92.5597ZM60.8753 76H35.3673V77H60.8753V76ZM57.4796 72H44.8885V73H57.4796V72ZM65.7462 80H43.8863V81H65.7462V80ZM13.3194 14.0146C13.3792 16.0758 13.4854 17.5204 13.8416 18.7419C14.2045 19.9859 14.8168 20.9685 15.8254 22.1356L16.582 21.4818C15.6313 20.3816 15.1113 19.5236 14.8016 18.4619C14.4854 17.3778 14.3789 16.0517 14.3189 13.9855L13.3194 14.0146ZM13.3194 13.9855C13.2593 16.0517 13.1529 17.3778 12.8366 18.4619C12.527 19.5236 12.007 20.3816 11.0562 21.4818L11.8129 22.1356C12.8215 20.9685 13.4338 19.9859 13.7966 18.7419C14.1529 17.5204 14.2591 16.0758 14.3189 14.0146L13.3194 13.9855ZM14.3189 31.0146C14.3789 28.9484 14.4854 27.6223 14.8016 26.5382C15.1113 25.4765 15.6313 24.6185 16.582 23.5183L15.8254 22.8645C14.8168 24.0316 14.2045 25.0142 13.8416 26.2582C13.4854 27.4797 13.3792 28.9243 13.3194 30.9855L14.3189 31.0146ZM14.3189 30.9855C14.2591 28.9243 14.1529 27.4797 13.7966 26.2582C13.4338 25.0142 12.8215 24.0316 11.8129 22.8645L11.0562 23.5183C12.007 24.6185 12.527 25.4765 12.8366 26.5382C13.1529 27.6223 13.2593 28.9484 13.3194 31.0146L14.3189 30.9855ZM11.0562 21.4818C10.5514 22.066 10.5514 22.9341 11.0562 23.5183L11.8129 22.8645C11.6325 22.6558 11.6325 22.3443 11.8129 22.1356L11.0562 21.4818ZM15.8254 22.1356C16.0058 22.3443 16.0058 22.6558 15.8254 22.8645L16.582 23.5183C17.0869 22.9341 17.0869 22.066 16.582 21.4818L15.8254 22.1356ZM45.8906 33.5H35.8683V34.5H45.8906V33.5ZM46.8929 36.5H33.8638V37.5H46.8929V36.5ZM43.8862 39.5H32.8616V40.5H43.8862V39.5ZM23.2099 61.9486C25.9463 60.4491 28.204 58.0827 29.5723 55.2902L28.6743 54.8502C27.3967 57.4576 25.2847 59.6713 22.7293 61.0717L23.2099 61.9486ZM29.5724 55.29C31.1934 51.9781 31.5809 48.1582 32.1281 44.5923C32.682 40.9827 33.3985 37.6113 35.5834 34.9473L34.8102 34.3131C32.435 37.2091 31.6933 40.8326 31.1397 44.4406C30.5794 48.0922 30.2102 51.7122 28.6742 54.8504L29.5724 55.29ZM35.5833 34.9475C36.238 34.15 37.0051 33.4486 37.8046 32.7213C38.5951 32.0021 39.4187 31.2563 40.1313 30.4L39.3626 29.7604C38.7022 30.554 37.9322 31.2533 37.1317 31.9816C36.3401 32.7017 35.5187 33.4503 34.8104 34.3129L35.5833 34.9475ZM40.1313 30.4C41.5504 28.6947 42.598 26.143 41.5734 23.9394L40.6666 24.361C41.4461 26.0374 40.6897 28.1657 39.3626 29.7604L40.1313 30.4ZM41.5737 23.9399C40.6773 22.0061 38.4242 21.6759 36.6592 22.4525L37.0619 23.3678C38.5241 22.7245 40.0795 23.0943 40.6664 24.3605L41.5737 23.9399ZM36.6602 22.4521C35.7614 22.8451 35.0439 23.4659 34.4098 24.123C34.0928 24.4515 33.7897 24.7967 33.4958 25.1309C33.1991 25.4682 32.9114 25.7946 32.6131 26.1019L33.3306 26.7984C33.6487 26.4707 33.9523 26.126 34.2466 25.7914C34.5437 25.4536 34.8313 25.1263 35.1294 24.8174C35.7256 24.1995 36.3361 23.6852 37.0609 23.3683L36.6602 22.4521ZM32.6113 26.1038C30.583 28.2152 27.9284 29.5633 25.3294 31.1969L25.8615 32.0435C28.3539 30.477 31.1915 29.0252 33.3324 26.7966L32.6113 26.1038ZM25.3301 31.1964C22.7601 32.8053 20.1393 34.8334 18.8825 37.7418L19.8005 38.1385C20.929 35.5269 23.3194 33.635 25.8608 32.044L25.3301 31.1964ZM18.882 37.7432C18.6871 38.1977 18.5272 38.6689 18.378 39.1274C18.2266 39.5923 18.088 40.0375 17.9287 40.4717C17.6109 41.3379 17.2363 42.083 16.6279 42.642L17.3045 43.3784C18.0892 42.6573 18.5314 41.7324 18.8676 40.8161C19.0352 40.3591 19.183 39.8849 19.3288 39.437C19.4768 38.9827 19.6251 38.5477 19.8011 38.1372L18.882 37.7432ZM25.3048 26C25.0015 25.6025 25.0015 25.6026 25.0014 25.6026C25.0013 25.6027 25.0013 25.6027 25.0011 25.6028C25.0009 25.603 25.0006 25.6032 25.0002 25.6035C24.9994 25.6041 24.9982 25.605 24.9967 25.6062C24.9936 25.6086 24.9891 25.612 24.9831 25.6166C24.9711 25.6258 24.9534 25.6393 24.9304 25.6571C24.8842 25.6925 24.8164 25.7447 24.7295 25.812C24.5558 25.9465 24.3057 26.1413 23.9994 26.3828C23.387 26.8656 22.5494 27.536 21.6487 28.2859C19.8618 29.7735 17.7791 31.6127 16.7445 32.9199L17.5287 33.5405C18.4885 32.3277 20.4899 30.5518 22.2885 29.0544C23.1806 28.3117 24.011 27.6471 24.6186 27.168C24.9222 26.9286 25.17 26.7356 25.3417 26.6027C25.4275 26.5363 25.4943 26.4848 25.5396 26.4501C25.5622 26.4327 25.5794 26.4195 25.5909 26.4107C25.5967 26.4062 25.601 26.4029 25.6039 26.4007C25.6053 26.3997 25.6064 26.3988 25.6071 26.3983C25.6075 26.398 25.6077 26.3978 25.6079 26.3977C25.6079 26.3977 25.608 26.3976 25.608 26.3976C25.6081 26.3976 25.6081 26.3976 25.3048 26ZM16.7438 32.9208C15.9072 33.9832 15.484 35.2797 15.1158 36.4614L16.0705 36.7589C16.4439 35.5606 16.8226 34.4371 17.5294 33.5395L16.7438 32.9208ZM15.1159 36.4612C13.6516 41.1524 11.8841 46.0639 10.7858 50.9097L11.761 51.1308C12.8476 46.3366 14.5882 41.5079 16.0704 36.7592L15.1159 36.4612ZM10.7859 50.9091C9.9684 54.4942 9.27797 58.0552 7.84811 61.3513L8.7655 61.7492C10.2421 58.3454 10.9548 54.6664 11.7609 51.1314L10.7859 50.9091ZM7.84789 61.3518C7.28904 62.6439 5.99226 64.7028 4.60844 66.7415C3.23318 68.7675 1.79994 70.7332 0.993182 71.824L1.79716 72.4186C2.60751 71.323 4.04972 69.3451 5.43583 67.3031C6.81337 65.2737 8.16384 63.1403 8.76572 61.7487L7.84789 61.3518ZM0.669368 74.2122C1.89691 77.3502 3.10167 79.8029 4.88441 81.673C6.67982 83.5563 9.02284 84.8101 12.4549 85.6348L12.6886 84.6625C9.38865 83.8695 7.23654 82.691 5.6082 80.9829C3.9672 79.2616 2.81961 76.9639 1.60065 73.8479L0.669368 74.2122ZM15.3411 83.9361C15.9706 81.8528 17.1044 78.229 18.3141 74.9826C18.9194 73.3582 19.5397 71.8391 20.1217 70.6582C20.413 70.0672 20.6897 69.5711 20.9449 69.1925C21.2086 68.8013 21.4181 68.5836 21.5611 68.4941L21.0306 67.6464C20.7027 67.8516 20.3973 68.2158 20.1157 68.6336C19.8256 69.0639 19.5264 69.604 19.2248 70.2161C18.6209 71.4413 17.987 72.9965 17.3771 74.6334C16.1563 77.9097 15.0153 81.5572 14.3839 83.6469L15.3411 83.9361ZM21.5604 68.4945C22.6676 67.804 23.788 67.4175 24.9673 67.016C26.1362 66.6181 27.3652 66.205 28.5918 65.4571L28.0712 64.6033C26.9526 65.2853 25.8263 65.6673 24.6451 66.0694C23.4741 66.468 22.2493 66.8864 21.0313 67.646L21.5604 68.4945ZM28.5905 65.4579C30.6449 64.2139 31.7751 62.0812 32.4066 59.7618C33.0385 57.4409 33.1902 54.8635 33.2355 52.6359L32.2357 52.6156C32.1907 54.8279 32.0397 57.3027 31.4417 59.4991C30.8434 61.6968 29.8167 63.5464 28.0726 64.6025L28.5905 65.4579ZM50.0916 31.869C50.8795 32.1328 52.2573 32.5344 53.523 33.0627C54.1535 33.3259 54.731 33.6107 55.1737 33.9102C55.633 34.2209 55.8686 34.4954 55.9398 34.7086L56.8883 34.3918C56.709 33.8549 56.2393 33.4238 55.734 33.0819C55.212 32.7289 54.5655 32.4142 53.9082 32.1399C52.5981 31.593 51.1446 31.167 50.4091 30.9207L50.0916 31.869ZM55.9398 34.7086C56.1304 35.2789 55.9975 35.8124 55.6691 36.2634C55.3328 36.7253 54.803 37.0781 54.2726 37.2293L54.5467 38.191C55.2791 37.9822 56.0021 37.505 56.4775 36.852C56.961 36.188 57.1989 35.3215 56.8883 34.3918L55.9398 34.7086ZM54.2726 37.2293C53.1271 37.5559 51.6412 37.3874 50.3151 37.2144L50.1857 38.206C51.4654 38.3729 53.1666 38.5845 54.5467 38.191L54.2726 37.2293ZM50.2504 40.5C50.1371 40.987 50.1371 40.987 50.1371 40.987C50.1371 40.987 50.1371 40.987 50.1372 40.9871C50.1373 40.9871 50.1376 40.9871 50.1379 40.9872C50.1386 40.9874 50.1396 40.9876 50.1411 40.988C50.144 40.9887 50.1485 40.9897 50.1545 40.9911C50.1666 40.994 50.1847 40.9983 50.2085 41.004C50.2561 41.0154 50.3264 41.0325 50.4161 41.0548C50.5956 41.0994 50.8526 41.165 51.1614 41.2484C51.7798 41.4154 52.6011 41.6528 53.4197 41.9353C54.2434 42.2196 55.0419 42.5421 55.6261 42.8752C55.9197 43.0426 56.1355 43.1995 56.2717 43.3385C56.3387 43.4068 56.3767 43.4611 56.3969 43.4997C56.4065 43.5183 56.4111 43.5314 56.4132 43.5393C56.4152 43.5468 56.4152 43.5501 56.4152 43.5502H57.4152C57.4152 43.173 57.208 42.8651 56.9859 42.6385C56.7577 42.4057 56.4528 42.1954 56.1215 42.0065C55.4561 41.6271 54.5883 41.2807 53.7459 40.99C52.8983 40.6975 52.0534 40.4535 51.4221 40.283C51.106 40.1976 50.8424 40.1304 50.6574 40.0844C50.5649 40.0614 50.492 40.0436 50.4419 40.0316C50.4169 40.0256 50.3976 40.021 50.3844 40.0179C50.3778 40.0164 50.3728 40.0152 50.3693 40.0144C50.3676 40.014 50.3662 40.0136 50.3653 40.0134C50.3648 40.0133 50.3644 40.0132 50.3641 40.0132C50.364 40.0131 50.3639 40.0131 50.3638 40.0131C50.3637 40.0131 50.3636 40.013 50.2504 40.5ZM56.4152 43.5502C56.4152 44.1249 56.1399 44.6106 55.7206 44.9868C55.2953 45.3684 54.7528 45.6064 54.3113 45.6763L54.4679 46.664C55.0988 46.564 55.8191 46.242 56.3884 45.7311C56.9638 45.2149 57.4152 44.4756 57.4152 43.5502H56.4152ZM54.3113 45.6763C53.8696 45.7464 53.174 45.6737 52.4082 45.5244C51.6609 45.3786 50.911 45.1734 50.3917 45.0204L50.1091 45.9797C50.6421 46.1367 51.4256 46.3516 52.2167 46.5059C52.9894 46.6566 53.8372 46.764 54.4679 46.664L54.3113 45.6763ZM40.4986 52.6402C40.1232 52.9704 40.1232 52.9704 40.1232 52.9704C40.1232 52.9704 40.1233 52.9705 40.1233 52.9705C40.1234 52.9706 40.1235 52.9708 40.1237 52.971C40.1241 52.9714 40.1247 52.9721 40.1255 52.973C40.1271 52.9749 40.1296 52.9776 40.1328 52.9813C40.1392 52.9886 40.1488 52.9996 40.1614 53.0139C40.1866 53.0427 40.2238 53.0852 40.2714 53.1399C40.3667 53.2492 40.5038 53.4071 40.6709 53.6011C41.0052 53.9891 41.4589 54.5208 41.9369 55.096C42.9073 56.2637 43.9333 57.5582 44.3021 58.215L45.1741 57.7253C44.7511 56.9721 43.6574 55.6016 42.706 54.4568C42.2231 53.8758 41.7654 53.3394 41.4285 52.9483C41.26 52.7528 41.1216 52.5934 41.0253 52.4828C40.9771 52.4276 40.9394 52.3845 40.9137 52.3551C40.9009 52.3405 40.891 52.3292 40.8843 52.3216C40.881 52.3178 40.8785 52.3149 40.8768 52.313C40.8759 52.312 40.8752 52.3113 40.8748 52.3108C40.8746 52.3105 40.8744 52.3103 40.8743 52.3102C40.8742 52.3101 40.8742 52.3101 40.8741 52.31C40.8741 52.31 40.8741 52.31 40.4986 52.6402ZM44.3025 58.2157C44.4301 58.4419 44.5352 58.6643 44.588 58.872C44.64 59.0769 44.632 59.2309 44.5798 59.3517L45.4977 59.7486C45.666 59.3594 45.6429 58.9634 45.5572 58.6258C45.4721 58.291 45.3167 57.9784 45.1736 57.7246L44.3025 58.2157ZM44.5772 59.358C44.5135 59.5109 44.3723 59.6377 44.1265 59.7225C43.8777 59.8084 43.5677 59.8323 43.2751 59.8027L43.1744 60.7976C43.5733 60.838 44.035 60.812 44.4527 60.6678C44.8734 60.5226 45.2934 60.2394 45.5004 59.7423L44.5772 59.358ZM43.2746 59.8027C41.566 59.6313 40.0395 58.4928 38.8088 57.0992L38.0593 57.7611C39.3542 59.2275 41.095 60.589 43.1748 60.7977L43.2746 59.8027ZM38.8088 57.0992C38.1899 56.3983 37.5443 55.5568 36.873 54.7005C36.2087 53.8529 35.5208 52.9931 34.8383 52.2915L34.1215 52.9888C34.7619 53.6472 35.4197 54.4674 36.086 55.3174C36.7453 56.1585 37.4154 57.032 38.0593 57.7611L38.8088 57.0992ZM30.0836 53.1402L48.2582 53.0499L48.2532 52.0499L30.0787 52.1402L30.0836 53.1402ZM50.7504 50.5499V3.50006H49.7504V50.5499H50.7504ZM24.8048 3.50035V31.8039H25.8048V3.50035H24.8048ZM27.3092 1.00035C25.9271 1.00037 24.8048 2.1186 24.8048 3.50035H25.8048C25.8048 2.67298 26.4773 2.00036 27.3092 2.00035L27.3092 1.00035ZM50.7504 3.50006C50.7504 2.11829 49.628 1.00005 48.2459 1.00007L48.2459 2.00007C49.0778 2.00005 49.7504 2.67268 49.7504 3.50006H50.7504ZM48.2582 53.0499C49.6355 53.0432 50.7504 51.9269 50.7504 50.5499H49.7504C49.7504 51.3745 49.0823 52.0459 48.2533 52.0499L48.2582 53.0499ZM48.2459 1.00007L45.8906 1.00008L45.8906 2.00008L48.2459 2.00007L48.2459 1.00007ZM45.3906 1.50008V2.00007H46.3906V1.50008H45.3906ZM45.8906 1.00008L29.8549 1.00033L29.8549 2.00033L45.8906 2.00008L45.8906 1.00008ZM29.8549 1.00033L27.3092 1.00035L27.3092 2.00035L29.8549 2.00033L29.8549 1.00033ZM29.3549 1.50033V2.00006H30.3549V1.50033H29.3549ZM32.8616 5.50006H42.8839V4.50006H32.8616V5.50006ZM45.3906 2.00007C45.3906 3.37973 44.2694 4.50006 42.8839 4.50006V5.50006C44.8196 5.50006 46.3906 3.93411 46.3906 2.00007H45.3906ZM12.4549 85.6348C13.7313 85.9416 14.9726 85.1558 15.3411 83.9361L14.3839 83.6469C14.1579 84.3947 13.4145 84.837 12.6886 84.6625L12.4549 85.6348ZM29.3549 2.00006C29.3549 3.93411 30.926 5.50006 32.8616 5.50006V4.50006C31.4761 4.50006 30.3549 3.37972 30.3549 2.00006H29.3549ZM0.993182 71.824C0.485525 72.5103 0.355714 73.4104 0.669368 74.2122L1.60065 73.8479C1.41505 73.3734 1.48946 72.8346 1.79716 72.4186L0.993182 71.824ZM69.4444 1.01452C69.5043 3.07577 69.6104 4.52034 69.9667 5.74186C70.3295 6.98584 70.9419 7.96847 71.9505 9.13558L72.7071 8.48173C71.7563 7.38154 71.2363 6.52353 70.9267 5.46186C70.6105 4.37773 70.504 3.05162 70.444 0.985483L69.4444 1.01452ZM69.4444 0.985483C69.3844 3.05162 69.2779 4.37773 68.9617 5.46186C68.652 6.52353 68.132 7.38154 67.1813 8.48173L67.9379 9.13558C68.9465 7.96847 69.5589 6.98584 69.9217 5.74186C70.278 4.52034 70.3841 3.07577 70.444 1.01452L69.4444 0.985483ZM70.444 18.0145C70.504 15.9484 70.6105 14.6223 70.9267 13.5381C71.2363 12.4765 71.7563 11.6185 72.7071 10.5183L71.9505 9.86441C70.9419 11.0315 70.3295 12.0141 69.9667 13.2581C69.6104 14.4797 69.5043 15.9242 69.4444 17.9855L70.444 18.0145ZM70.444 17.9855C70.3841 15.9242 70.278 14.4796 69.9217 13.2581C69.5589 12.0141 68.9465 11.0315 67.9379 9.86441L67.1813 10.5183C68.132 11.6185 68.652 12.4765 68.9617 13.5381C69.2779 14.6223 69.3844 15.9484 69.4444 18.0145L70.444 17.9855ZM67.1813 8.48173C66.6764 9.06595 66.6764 9.93404 67.1813 10.5183L67.9379 9.86441C67.7576 9.6557 67.7576 9.34429 67.9379 9.13558L67.1813 8.48173ZM71.9505 9.13558C72.1308 9.34429 72.1308 9.6557 71.9505 9.86441L72.7071 10.5183C73.2119 9.93404 73.2119 9.06595 72.7071 8.48173L71.9505 9.13558ZM94.9381 89.7493C93.3499 87.926 90.4441 84.5579 87.9065 81.4433C86.6372 79.8853 85.4645 78.3963 84.596 77.1982C84.1613 76.5985 83.808 76.0787 83.558 75.6636C83.4328 75.4559 83.3376 75.281 83.2718 75.1399C83.2023 74.9911 83.1797 74.9093 83.1753 74.8797L82.186 75.025C82.2116 75.1996 82.2832 75.3862 82.3656 75.5628C82.4516 75.7471 82.5659 75.9547 82.7013 76.1796C82.9724 76.6296 83.3444 77.1754 83.7864 77.7851C84.6713 79.006 85.8578 80.512 87.1313 82.075C89.6794 85.2025 92.5938 88.5804 94.1841 90.4062L94.9381 89.7493ZM83.1753 74.8797C82.9875 73.6012 82.4938 70.756 81.7626 67.7271C81.0351 64.7131 80.0591 61.4575 78.8912 59.3965L78.0212 59.8895C79.1136 61.8173 80.0638 64.951 80.7906 67.9617C81.5137 70.9575 82.002 73.7726 82.186 75.025L83.1753 74.8797ZM78.7472 58.9503C78.594 57.8318 78.0062 55.9047 76.49 54.7056L75.8696 55.4899C77.0961 56.4599 77.6196 58.0868 77.7565 59.0861L78.7472 58.9503ZM75.8199 53.8407C75.5119 53.2796 74.9797 52.6407 74.3471 51.9819C73.708 51.3165 72.94 50.6041 72.1359 49.8949C70.5349 48.4829 68.7433 47.0433 67.5256 46.0109L66.8789 46.7737C68.1309 47.8351 69.8785 49.2373 71.4745 50.6449C72.2689 51.3455 73.0139 52.0374 73.6258 52.6746C74.2441 53.3183 74.7008 53.8802 74.9433 54.3219L75.8199 53.8407ZM67.2759 45.6358C66.1944 42.2954 64.5204 37.4322 62.8999 33.3596C62.0903 31.3252 61.2893 29.4757 60.5784 28.1094C60.2239 27.428 59.8836 26.8507 59.568 26.427C59.4104 26.2155 59.2493 26.0291 59.0855 25.885C58.9285 25.7467 58.7291 25.6116 58.4939 25.5673L58.3091 26.5501C58.2886 26.5463 58.3258 26.5484 58.4248 26.6356C58.5171 26.7168 58.6314 26.8437 58.7661 27.0245C59.0349 27.3854 59.3466 27.9084 59.6913 28.5709C60.3788 29.8924 61.1652 31.705 61.9707 33.7294C63.5803 37.7743 65.2468 42.6151 66.3245 45.9438L67.2759 45.6358ZM53.7315 56.3475C52.8347 54.0186 51.125 52.9631 49.6294 53.08C48.8869 53.138 48.212 53.4927 47.7991 54.1142C47.3848 54.7378 47.2761 55.5653 47.5341 56.4925L48.4975 56.2244C48.3005 55.5165 48.4102 55.0015 48.632 54.6676C48.8552 54.3317 49.2341 54.1139 49.7073 54.0769C50.6433 54.0038 52.0131 54.6678 52.7983 56.7069L53.7315 56.3475ZM47.5341 56.4925C48.4317 59.7181 48.7228 61.5013 50.329 63.7857L51.1471 63.2105C49.6659 61.104 49.4201 59.5395 48.4975 56.2244L47.5341 56.4925ZM50.329 63.7857C51.8786 65.9894 55.667 71.1106 59.0145 75.2237L59.7901 74.5924C56.4593 70.4999 52.685 65.3977 51.1471 63.2105L50.329 63.7857ZM59.0145 75.2237C60.73 77.3315 63.3299 79.3425 65.8951 81.2318C68.4879 83.1414 71.0377 84.9219 72.7616 86.609L73.461 85.8943C71.672 84.1435 69.0368 82.3037 66.4881 80.4266C63.9119 78.5292 61.4138 76.5874 59.7901 74.5924L59.0145 75.2237ZM58.4939 25.5673C57.9833 25.4713 57.2892 25.4082 56.7489 25.8872C56.2276 26.3494 56.0072 27.1796 56.0071 28.3989C56.007 30.874 56.9272 35.5906 59.5182 44.4244L60.4778 44.1429C57.8818 35.2922 57.007 30.7089 57.0071 28.3989C57.0072 27.2257 57.2356 26.7921 57.4123 26.6355C57.57 26.4957 57.8231 26.4587 58.3091 26.5501L58.4939 25.5673ZM59.5182 44.4244C60.021 46.1387 60.5873 48.0097 61.2228 50.0513L62.1776 49.7542C61.5435 47.717 60.9788 45.8513 60.4778 44.1429L59.5182 44.4244ZM59.7155 43.8711C58.7653 44.5219 57.3077 45.6378 56.0082 46.8822C55.3583 47.5045 54.74 48.1666 54.2429 48.8252C53.7504 49.4779 53.3534 50.1578 53.1819 50.8145L54.1494 51.0672C54.2732 50.5935 54.5823 50.0357 55.0411 49.4276C55.4954 48.8256 56.0736 48.2041 56.6999 47.6044C57.9527 46.4047 59.366 45.3225 60.2805 44.6962L59.7155 43.8711ZM53.1819 50.8145C52.5711 53.1526 52.6507 55.6243 52.7686 56.5879L53.7612 56.4665C53.654 55.59 53.5789 53.251 54.1494 51.0672L53.1819 50.8145ZM60.0634 61.8545C59.7946 62.144 59.4657 62.2608 59.0658 62.2306C58.6452 62.1988 58.1352 62.0005 57.573 61.6196C56.4505 60.8591 55.2503 59.4581 54.3471 57.7148L53.4592 58.1749C54.4179 60.0253 55.7181 61.5707 57.0121 62.4474C57.6581 62.8851 58.3353 63.1782 58.9905 63.2277C59.6664 63.2788 60.3021 63.0669 60.7962 62.535L60.0634 61.8545ZM54.3471 57.7148C54.1203 57.277 53.9132 56.8195 53.7315 56.3475L52.7983 56.7069C52.9936 57.2142 53.2159 57.7053 53.4592 58.1749L54.3471 57.7148ZM58.256 55.6014C59.2446 52.856 61.1852 50.9105 61.999 50.3036L61.4013 49.5019C60.4622 50.2022 58.3826 52.2983 57.3151 55.2626L58.256 55.6014ZM53.7149 58.408C54.3398 58.662 55.3875 58.7528 56.393 58.1366L55.8704 57.284C55.1765 57.7093 54.4691 57.6351 54.0915 57.4816L53.7149 58.408ZM56.393 58.1366C57.1275 57.6864 57.7933 56.8862 58.256 55.6014L57.3151 55.2626C56.9121 56.3817 56.3717 56.9768 55.8704 57.284L56.393 58.1366ZM55.686 57.4838C55.4872 57.8748 55.2537 58.5046 55.2564 59.0986C55.2577 59.4011 55.3206 59.7404 55.5291 60.0295C55.7469 60.3319 56.0791 60.5177 56.4939 60.5811L56.6451 59.5926C56.4491 59.5626 56.3757 59.494 56.3403 59.4448C56.2954 59.3825 56.2572 59.2732 56.2564 59.0942C56.2547 58.7253 56.4131 58.2601 56.5774 57.9368L55.686 57.4838ZM61.2176 50.0335C61.5965 51.4324 61.7465 53.3498 61.6742 55.2764L62.6735 55.3139C62.748 53.3292 62.5973 51.3024 62.1828 49.772L61.2176 50.0335ZM61.6742 55.2764C61.6205 56.7081 61.4448 58.1224 61.1603 59.3058C60.8707 60.5106 60.4858 61.3997 60.0634 61.8545L60.7962 62.535C61.4022 61.8825 61.8346 60.7791 62.1326 59.5395C62.4357 58.2786 62.6179 56.7967 62.6735 55.3139L61.6742 55.2764ZM61.2394 57.6772C61.6066 56.8006 61.9 56.2878 62.1049 56.0054C62.208 55.8633 62.2783 55.794 62.3122 55.7664C62.3291 55.7527 62.3267 55.7577 62.3054 55.7673C62.2889 55.7747 62.2207 55.8032 62.1199 55.7923L62.2279 54.7981C62.0889 54.783 61.9719 54.8209 61.8963 54.8548C61.8159 54.8908 61.7441 54.9395 61.6816 54.9903C61.5568 55.0918 61.4283 55.2349 61.2954 55.4182C61.0281 55.7867 60.7 56.3766 60.3171 57.2909L61.2394 57.6772ZM56.4939 60.5811C57.4595 60.7288 58.5229 60.5813 59.4603 59.9553L58.905 59.1237C58.2081 59.5891 57.406 59.709 56.6451 59.5926L56.4939 60.5811ZM59.4603 59.9553C60.1808 59.4741 60.7992 58.7282 61.2394 57.6772L60.3171 57.2909C59.9422 58.1857 59.4408 58.7658 58.905 59.1237L59.4603 59.9553ZM58.7191 59.7268C58.8556 60.0646 59.1595 60.5277 59.6609 60.7784C60.2077 61.0517 60.8821 61.02 61.6055 60.5312L61.0455 59.7026C60.569 60.0246 60.2791 59.9694 60.1081 59.8839C59.8916 59.7757 59.724 59.5447 59.6462 59.3521L58.7191 59.7268ZM67.5256 46.0109C67.4093 45.9123 67.3244 45.7857 67.2759 45.6358L66.3245 45.9438C66.4294 46.2677 66.6184 46.5528 66.8789 46.7737L67.5256 46.0109ZM76.49 54.7056C76.2318 54.5014 76.0144 54.195 75.8199 53.8407L74.9433 54.3219C75.1627 54.7217 75.4574 55.1639 75.8696 55.4899L76.49 54.7056ZM78.8912 59.3965C78.8181 59.2675 78.7702 59.1176 78.7472 58.9503L77.7565 59.0861C77.7939 59.3588 77.8762 59.6337 78.0212 59.8895L78.8912 59.3965ZM72.6319 86.3936L75.0278 94.4824L75.9866 94.1984L73.5907 86.1096L72.6319 86.3936ZM76.8881 96.079C83.7393 96.9348 89.3933 96.7546 94.6318 92.9648L94.0457 92.1546C89.1228 95.716 83.792 95.9336 77.012 95.0867L76.8881 96.079ZM75.0278 94.4824C75.2799 95.3334 76.0033 95.9685 76.8881 96.079L77.012 95.0867C76.5351 95.0271 76.1297 94.6816 75.9866 94.1984L75.0278 94.4824ZM94.1841 90.4062C94.664 90.9571 94.5821 91.7666 94.0457 92.1546L94.6318 92.9649C95.6965 92.1946 95.7607 90.6937 94.9381 89.7493L94.1841 90.4062Z" fill="#FDFDFD"/>
</svg>
