<svg width="96" height="102" viewBox="0 0 96 102" fill="none" xmlns="http://www.w3.org/2000/svg">
    <path d="M33.5484 75.9116H56.7957C58.3118 77.5896 59.3226 79.9388 61.8495 82.4558C64.3763 84.9728 70.4409 89 70.4409 89H33.5484C32.4319 89 31.5269 88.0985 31.5269 86.9864V77.9252C31.5269 76.8131 32.4319 75.9116 33.5484 75.9116Z" fill="url(#paint0_linear)"/>
    <path d="M56.2903 27.585H73.9785C75.0949 27.585 76 28.4866 76 29.5986V33.6258C76 34.7379 75.0949 35.6395 73.9785 35.6395H63.1662C62.3672 35.6395 61.6632 35.1567 61.3505 34.4214C60.8059 33.1413 60.0012 31.6122 58.8172 31.6122C57.5675 31.6122 57.2433 33.3156 57.2382 34.6319C57.2361 35.1652 56.8237 35.6395 56.2903 35.6395C55.1739 35.6395 54.2688 34.7379 54.2688 33.6258V29.5986C54.2688 28.4866 55.1739 27.585 56.2903 27.585Z" fill="url(#paint1_linear)"/>
    <path d="M29 17.0136V34.1293C29 34.5707 29.1426 34.9789 29.3844 35.3108L30.5161 34.6327L35.0645 30.6054C35.5699 30.102 36.8839 28.9946 38.0968 28.5918C39.3097 28.1891 40.2867 28.424 40.6237 28.5918C40.9606 28.7596 41.7355 29.5986 42.1398 31.6122C42.5441 33.6258 40.9606 35.4717 40.1183 36.1429H46.1828C47.2992 36.1429 48.2043 35.2413 48.2043 34.1293V17.0136C48.2043 15.9015 47.2992 15 46.1828 15H31.0215C29.9051 15 29 15.9015 29 17.0136Z" fill="url(#paint2_linear)"/>
    <path d="M33.5484 75.9116H56.7957C58.3118 77.5896 59.3226 79.9388 61.8495 82.4558C64.3763 84.9728 70.4409 89 70.4409 89H33.5484C32.4319 89 31.5269 88.0985 31.5269 86.9864V77.9252C31.5269 76.8131 32.4319 75.9116 33.5484 75.9116Z" stroke="url(#paint3_linear)"/>
    <path d="M56.2903 27.585H73.9785C75.0949 27.585 76 28.4866 76 29.5986V33.6258C76 34.7379 75.0949 35.6395 73.9785 35.6395H63.1662C62.3672 35.6395 61.6632 35.1567 61.3505 34.4214C60.8059 33.1413 60.0012 31.6122 58.8172 31.6122C57.5675 31.6122 57.2433 33.3156 57.2382 34.6319C57.2361 35.1652 56.8237 35.6395 56.2903 35.6395C55.1739 35.6395 54.2688 34.7379 54.2688 33.6258V29.5986C54.2688 28.4866 55.1739 27.585 56.2903 27.585Z" stroke="url(#paint4_linear)"/>
    <path d="M29 17.0136V34.1293C29 34.5707 29.1426 34.9789 29.3844 35.3108L30.5161 34.6327L35.0645 30.6054C35.5699 30.102 36.8839 28.9946 38.0968 28.5918C39.3097 28.1891 40.2867 28.424 40.6237 28.5918C40.9606 28.7596 41.7355 29.5986 42.1398 31.6122C42.5441 33.6258 40.9606 35.4717 40.1183 36.1429H46.1828C47.2992 36.1429 48.2043 35.2413 48.2043 34.1293V17.0136C48.2043 15.9015 47.2992 15 46.1828 15H31.0215C29.9051 15 29 15.9015 29 17.0136Z" stroke="url(#paint5_linear)"/>
    <path d="M90.3591 35.7891C89.2585 34.4671 89.0749 33.5073 89 31C88.9251 33.5073 88.7415 34.4671 87.6409 35.7891C87.2986 36.2003 87.2986 36.7997 87.6409 37.2109C88.7415 38.5329 88.9251 39.4927 89 42C89.0749 39.4927 89.2585 38.5329 90.3591 37.2109C90.7014 36.7997 90.7014 36.2003 90.3591 35.7891Z" fill="url(#paint6_linear)" stroke="url(#paint7_linear)" stroke-linecap="round" stroke-linejoin="round"/>
    <path d="M35.3673 81C35.0911 81 34.8673 81.2239 34.8673 81.5C34.8673 81.7761 35.0911 82 35.3673 82V81ZM44.8885 77C44.6124 77 44.3885 77.2239 44.3885 77.5C44.3885 77.7761 44.6124 78 44.8885 78V77ZM43.8863 85C43.6101 85 43.3863 85.2239 43.3863 85.5C43.3863 85.7761 43.6101 86 43.8863 86V85ZM13.8191 19L14.3189 18.9855C14.3111 18.7151 14.0896 18.5 13.8191 18.5C13.5487 18.5 13.3272 18.7151 13.3194 18.9855L13.8191 19ZM16.2037 26.8087L16.582 26.4817L16.2037 26.8087ZM11.4346 26.8087L11.0562 26.4817L11.4346 26.8087ZM13.8191 36L13.3194 36.0145C13.3272 36.2849 13.5487 36.5 13.8191 36.5C14.0896 36.5 14.3111 36.2849 14.3189 36.0145L13.8191 36ZM16.2037 28.1913L16.582 28.5183L16.2037 28.1913ZM11.4346 28.1913L11.0562 28.5183L11.4346 28.1913ZM45.8906 39.5C46.1668 39.5 46.3906 39.2761 46.3906 39C46.3906 38.7239 46.1668 38.5 45.8906 38.5V39.5ZM46.8929 42.5C47.169 42.5 47.3929 42.2761 47.3929 42C47.3929 41.7239 47.169 41.5 46.8929 41.5V42.5ZM43.8862 45.5C44.1623 45.5 44.3862 45.2761 44.3862 45C44.3862 44.7239 44.1623 44.5 43.8862 44.5V45.5ZM22.7293 66.0717C22.4871 66.2044 22.3984 66.5083 22.5311 66.7504C22.6638 66.9926 22.9677 67.0813 23.2099 66.9486L22.7293 66.0717ZM29.1233 60.0701L29.5723 60.2901L29.5724 60.29L29.1233 60.0701ZM35.1968 39.6301L34.8104 39.3128L34.8102 39.3131L35.1968 39.6301ZM41.12 29.1501L40.6664 29.3604L40.6666 29.3609L41.12 29.1501ZM36.8605 27.9101L37.0609 28.3683L37.0619 28.3678L36.8605 27.9101ZM32.9719 31.4501L32.6131 31.1019L32.6113 31.1037L32.9719 31.4501ZM25.5954 36.6201L25.8608 37.0439L25.8615 37.0435L25.5954 36.6201ZM19.3415 42.9401L18.8825 42.7418L18.882 42.7431L19.3415 42.9401ZM16.6279 47.642C16.4246 47.8288 16.4112 48.1451 16.598 48.3484C16.7849 48.5518 17.1012 48.5652 17.3045 48.3783L16.6279 47.642ZM25.6081 31.3975C25.8276 31.23 25.8698 30.9163 25.7023 30.6967C25.5348 30.4772 25.2211 30.435 25.0015 30.6025L25.6081 31.3975ZM17.1366 38.2301L16.7445 37.9198L16.7438 37.9208L17.1366 38.2301ZM15.5932 41.6101L16.0704 41.7591L16.0705 41.7589L15.5932 41.6101ZM11.2734 56.0202L11.7609 56.1314L11.761 56.1308L11.2734 56.0202ZM8.30681 66.5502L7.84811 66.3512L7.84789 66.3517L8.30681 66.5502ZM21.2959 73.0702L21.0313 72.646L21.0306 72.6464L21.2959 73.0702ZM28.3315 70.0301L28.0726 69.6024L28.0712 69.6032L28.3315 70.0301ZM33.2355 57.6358C33.2411 57.3597 33.0218 57.1314 32.7457 57.1258C32.4696 57.1202 32.2413 57.3394 32.2357 57.6155L33.2355 57.6358ZM50.4091 35.9207C50.1472 35.833 49.8639 35.9742 49.7762 36.2361C49.6886 36.498 49.8298 36.7813 50.0916 36.869L50.4091 35.9207ZM50.3151 42.2143C50.0412 42.1786 49.7903 42.3716 49.7546 42.6455C49.7188 42.9193 49.9119 43.1702 50.1857 43.2059L50.3151 42.2143ZM50.3636 45.013C50.0947 44.9504 49.8259 45.1178 49.7634 45.3867C49.7008 45.6557 49.8681 45.9244 50.1371 45.987L50.3636 45.013ZM50.3917 50.0204C50.1268 49.9423 49.8488 50.0938 49.7707 50.3587C49.6927 50.6236 49.8442 50.9016 50.1091 50.9796L50.3917 50.0204ZM40.8741 57.3099C40.6917 57.1026 40.3758 57.0823 40.1684 57.2647C39.9611 57.4471 39.9408 57.763 40.1232 57.9704L40.8741 57.3099ZM44.7381 62.9701L44.3021 63.215L44.3025 63.2157L44.7381 62.9701ZM45.0388 64.5501L44.5798 64.3517L44.5772 64.358L45.0388 64.5501ZM43.2247 65.3001L43.2751 64.8027L43.2746 64.8026L43.2247 65.3001ZM34.8383 57.2915C34.6457 57.0936 34.3292 57.0892 34.1312 57.2817C33.9333 57.4743 33.9289 57.7908 34.1215 57.9888L34.8383 57.2915ZM30.0787 57.1401C29.8025 57.1415 29.5798 57.3665 29.5812 57.6426C29.5825 57.9188 29.8075 58.1415 30.0836 58.1401L30.0787 57.1401ZM48.2557 57.5499L48.2533 57.0499H48.2532L48.2557 57.5499ZM48.2459 6.5L48.2459 7H48.2459L48.2459 6.5ZM27.3092 6.50029L27.3092 6.00029H27.3092L27.3092 6.50029ZM24.8048 36.8039C24.8048 37.08 25.0286 37.3039 25.3048 37.3039C25.5809 37.3039 25.8048 37.08 25.8048 36.8039H24.8048ZM45.8906 6.50002L45.8906 6.00002L45.8906 6.50002ZM12.5718 90.1487L12.6886 89.6625L12.5718 90.1487ZM14.8625 88.7915L15.3411 88.9361L14.8625 88.7915ZM1.39517 77.1213L0.993182 76.8239L1.39517 77.1213ZM1.13501 79.03L1.60065 78.8478L1.13501 79.03ZM69.9442 1L70.444 0.985483C70.4361 0.715108 70.2147 0.5 69.9442 0.5C69.6737 0.5 69.4523 0.715108 69.4444 0.985483L69.9442 1ZM72.3288 8.80866L72.7071 8.48173L72.3288 8.80866ZM67.5596 8.80866L67.1813 8.48173L67.5596 8.80866ZM69.9442 18L69.4444 18.0145C69.4523 18.2849 69.6737 18.5 69.9442 18.5C70.2147 18.5 70.4361 18.2849 70.444 18.0145L69.9442 18ZM72.3288 10.1913L72.7071 10.5183V10.5183L72.3288 10.1913ZM67.5596 10.1913L67.1813 10.5183V10.5183L67.5596 10.1913ZM94.5611 95.0777L94.9381 94.7493V94.7493L94.5611 95.0777ZM82.6806 79.9524L82.186 80.025L82.6806 79.9524ZM78.4562 64.643L78.8912 64.3965L78.4562 64.643ZM78.2519 64.0182L77.7565 64.0861V64.0861L78.2519 64.0182ZM76.1798 60.0977L76.49 59.7055L76.1798 60.0977ZM75.3816 59.0813L75.8199 58.8407L75.3816 59.0813ZM67.2023 51.3923L66.8789 51.7736H66.8789L67.2023 51.3923ZM66.8002 50.7898L66.3245 50.9438L66.8002 50.7898ZM58.4015 31.0587L58.4939 30.5673L58.4015 31.0587ZM48.0158 61.3584L47.5341 61.4925L48.0158 61.3584ZM73.1113 91.2516L73.5907 91.1096C73.5665 91.028 73.5219 90.9538 73.461 90.8943L73.1113 91.2516ZM59.998 49.2836L60.4778 49.1429L59.998 49.2836ZM61.7002 54.9027L62.1828 54.772C62.1811 54.766 62.1794 54.76 62.1776 54.7541L61.7002 54.9027ZM60.4298 67.1947L60.0634 66.8545L60.4298 67.1947ZM53.9032 62.9448L53.4592 63.1748L53.9032 62.9448ZM57.7855 60.432L58.256 60.6014L57.7855 60.432ZM56.5695 65.0868L56.6451 64.5926L56.5695 65.0868ZM60.7782 62.484L60.3171 62.2908V62.2908L60.7782 62.484ZM59.1827 64.5395L58.905 64.1237L59.1827 64.5395ZM61.6055 65.5311C61.8343 65.3765 61.8944 65.0657 61.7398 64.8369C61.5852 64.6081 61.2743 64.548 61.0455 64.7026L61.6055 65.5311ZM75.5072 99.3404L75.0278 99.4824L75.5072 99.3404ZM76.95 100.583L77.012 100.087L76.95 100.583ZM94.3388 97.5597L94.0457 97.1546L94.3388 97.5597ZM60.8753 81H35.3673V82H60.8753V81ZM57.4796 77H44.8885V78H57.4796V77ZM65.7462 85H43.8863V86H65.7462V85ZM13.3194 19.0145C13.3792 21.0758 13.4854 22.5203 13.8416 23.7419C14.2045 24.9858 14.8168 25.9685 15.8254 27.1356L16.582 26.4817C15.6313 25.3815 15.1113 24.5235 14.8016 23.4619C14.4854 22.3777 14.3789 21.0516 14.3189 18.9855L13.3194 19.0145ZM13.3194 18.9855C13.2593 21.0516 13.1529 22.3777 12.8366 23.4619C12.527 24.5235 12.007 25.3815 11.0562 26.4817L11.8129 27.1356C12.8215 25.9685 13.4338 24.9858 13.7966 23.7419C14.1529 22.5203 14.2591 21.0758 14.3189 19.0145L13.3194 18.9855ZM14.3189 36.0145C14.3789 33.9484 14.4854 32.6223 14.8016 31.5381C15.1113 30.4765 15.6313 29.6185 16.582 28.5183L15.8254 27.8644C14.8168 29.0315 14.2045 30.0142 13.8416 31.2581C13.4854 32.4797 13.3792 33.9242 13.3194 35.9855L14.3189 36.0145ZM14.3189 35.9855C14.2591 33.9242 14.1529 32.4797 13.7966 31.2581C13.4338 30.0142 12.8215 29.0315 11.8129 27.8644L11.0562 28.5183C12.007 29.6185 12.527 30.4765 12.8366 31.5381C13.1529 32.6223 13.2593 33.9484 13.3194 36.0145L14.3189 35.9855ZM11.0562 26.4817C10.5514 27.066 10.5514 27.934 11.0562 28.5183L11.8129 27.8644C11.6325 27.6557 11.6325 27.3443 11.8129 27.1356L11.0562 26.4817ZM15.8254 27.1356C16.0058 27.3443 16.0058 27.6557 15.8254 27.8644L16.582 28.5183C17.0869 27.934 17.0869 27.066 16.582 26.4817L15.8254 27.1356ZM45.8906 38.5H35.8683V39.5H45.8906V38.5ZM46.8929 41.5H33.8638V42.5H46.8929V41.5ZM43.8862 44.5H32.8616V45.5H43.8862V44.5ZM23.2099 66.9486C25.9463 65.449 28.204 63.0827 29.5723 60.2901L28.6743 59.8501C27.3967 62.4576 25.2847 64.6712 22.7293 66.0717L23.2099 66.9486ZM29.5724 60.29C31.1934 56.9781 31.5809 53.1582 32.1281 49.5922C32.682 45.9827 33.3985 42.6113 35.5834 39.9472L34.8102 39.3131C32.435 42.209 31.6933 45.8326 31.1397 49.4406C30.5794 53.0921 30.2102 56.7122 28.6742 59.8503L29.5724 60.29ZM35.5833 39.9474C36.238 39.15 37.0051 38.4486 37.8046 37.7212C38.5951 37.002 39.4187 36.2563 40.1313 35.4L39.3626 34.7603C38.7022 35.554 37.9322 36.2533 37.1317 36.9815C36.3401 37.7017 35.5187 38.4503 34.8104 39.3128L35.5833 39.9474ZM40.1313 35.4C41.5504 33.6946 42.598 31.143 41.5734 28.9393L40.6666 29.3609C41.4461 31.0373 40.6897 33.1656 39.3626 34.7603L40.1313 35.4ZM41.5737 28.9399C40.6773 27.006 38.4242 26.6758 36.6592 27.4525L37.0619 28.3678C38.5241 27.7244 40.0795 28.0943 40.6664 29.3604L41.5737 28.9399ZM36.6602 27.452C35.7614 27.8451 35.0439 28.4658 34.4098 29.123C34.0928 29.4515 33.7897 29.7967 33.4958 30.1308C33.1991 30.4681 32.9114 30.7946 32.6131 31.1019L33.3306 31.7984C33.6487 31.4707 33.9523 31.1259 34.2466 30.7913C34.5437 30.4536 34.8313 30.1263 35.1294 29.8173C35.7256 29.1994 36.3361 28.6852 37.0609 28.3683L36.6602 27.452ZM32.6113 31.1037C30.583 33.2151 27.9284 34.5633 25.3294 36.1968L25.8615 37.0435C28.3539 35.477 31.1915 34.0251 33.3324 31.7965L32.6113 31.1037ZM25.3301 36.1963C22.7601 37.8053 20.1393 39.8334 18.8825 42.7418L19.8005 43.1385C20.929 40.5269 23.3194 38.635 25.8608 37.0439L25.3301 36.1963ZM18.882 42.7431C18.6871 43.1977 18.5272 43.6689 18.378 44.1274C18.2266 44.5922 18.088 45.0375 17.9287 45.4717C17.6109 46.3379 17.2363 47.083 16.6279 47.642L17.3045 48.3783C18.0892 47.6573 18.5314 46.7324 18.8676 45.8161C19.0352 45.3591 19.183 44.8849 19.3288 44.437C19.4768 43.9826 19.6251 43.5476 19.8011 43.1371L18.882 42.7431ZM25.3048 31C25.0015 30.6025 25.0015 30.6025 25.0014 30.6026C25.0013 30.6026 25.0013 30.6027 25.0011 30.6028C25.0009 30.6029 25.0006 30.6032 25.0002 30.6035C24.9994 30.6041 24.9982 30.605 24.9967 30.6062C24.9936 30.6085 24.9891 30.612 24.9831 30.6166C24.9711 30.6257 24.9534 30.6393 24.9304 30.657C24.8842 30.6925 24.8164 30.7447 24.7295 30.812C24.5558 30.9465 24.3057 31.1412 23.9994 31.3827C23.387 31.8656 22.5494 32.536 21.6487 33.2858C19.8618 34.7735 17.7791 36.6127 16.7445 37.9198L17.5287 38.5404C18.4885 37.3276 20.4899 35.5518 22.2885 34.0543C23.1806 33.3116 24.011 32.647 24.6186 32.168C24.9222 31.9285 25.17 31.7356 25.3417 31.6027C25.4275 31.5362 25.4943 31.4848 25.5396 31.45C25.5622 31.4326 25.5794 31.4194 25.5909 31.4106C25.5967 31.4062 25.601 31.4029 25.6039 31.4007C25.6053 31.3996 25.6064 31.3988 25.6071 31.3983C25.6075 31.398 25.6077 31.3978 25.6079 31.3977C25.6079 31.3976 25.608 31.3976 25.608 31.3975C25.6081 31.3975 25.6081 31.3975 25.3048 31ZM16.7438 37.9208C15.9072 38.9832 15.484 40.2797 15.1158 41.4614L16.0705 41.7589C16.4439 40.5606 16.8226 39.4371 17.5294 38.5395L16.7438 37.9208ZM15.1159 41.4612C13.6516 46.1524 11.8841 51.0639 10.7858 55.9097L11.761 56.1308C12.8476 51.3366 14.5882 46.5079 16.0704 41.7591L15.1159 41.4612ZM10.7859 55.9091C9.9684 59.4941 9.27797 63.0551 7.84811 66.3512L8.7655 66.7492C10.2421 63.3453 10.9548 59.6663 11.7609 56.1314L10.7859 55.9091ZM7.84789 66.3517C7.28904 67.6438 5.99226 69.7028 4.60844 71.7414C3.23318 73.7675 1.79994 75.7332 0.993182 76.8239L1.79716 77.4186C2.60751 76.323 4.04972 74.3451 5.43583 72.3031C6.81337 70.2737 8.16384 68.1403 8.76572 66.7487L7.84789 66.3517ZM0.669368 79.2122C1.89691 82.3502 3.10167 84.8029 4.88441 86.673C6.67982 88.5563 9.02284 89.81 12.4549 90.6348L12.6886 89.6625C9.38865 88.8695 7.23654 87.691 5.60821 85.9829C3.9672 84.2616 2.81961 81.9639 1.60065 78.8478L0.669368 79.2122ZM15.3411 88.9361C15.9706 86.8528 17.1044 83.229 18.3141 79.9826C18.9194 78.3582 19.5397 76.8391 20.1217 75.6581C20.413 75.0672 20.6897 74.5711 20.9449 74.1925C21.2086 73.8013 21.4181 73.5836 21.5611 73.4941L21.0306 72.6464C20.7027 72.8515 20.3973 73.2158 20.1157 73.6335C19.8256 74.0639 19.5264 74.6039 19.2248 75.2161C18.6209 76.4413 17.987 77.9965 17.3771 79.6334C16.1563 82.9097 15.0153 86.5572 14.3839 88.6469L15.3411 88.9361ZM21.5604 73.4945C22.6676 72.804 23.788 72.4174 24.9673 72.016C26.1362 71.6181 27.3652 71.205 28.5918 70.457L28.0712 69.6032C26.9526 70.2853 25.8263 70.6672 24.6451 71.0694C23.4741 71.468 22.2493 71.8864 21.0313 72.646L21.5604 73.4945ZM28.5905 70.4578C30.6449 69.2139 31.7751 67.0812 32.4066 64.7618C33.0385 62.4409 33.1902 59.8634 33.2355 57.6358L32.2357 57.6155C32.1907 59.8279 32.0397 62.3027 31.4417 64.4991C30.8434 66.6968 29.8167 68.5464 28.0726 69.6024L28.5905 70.4578ZM50.0916 36.869C50.8795 37.1327 52.2573 37.5344 53.523 38.0627C54.1535 38.3259 54.731 38.6107 55.1737 38.9102C55.633 39.2209 55.8686 39.4954 55.9398 39.7086L56.8883 39.3917C56.709 38.8549 56.2393 38.4237 55.734 38.0819C55.212 37.7288 54.5655 37.4142 53.9082 37.1398C52.5981 36.593 51.1446 36.1669 50.4091 35.9207L50.0916 36.869ZM55.9398 39.7086C56.1304 40.2789 55.9975 40.8124 55.6691 41.2633C55.3328 41.7253 54.803 42.0781 54.2726 42.2293L54.5467 43.191C55.2791 42.9822 56.0021 42.505 56.4775 41.8519C56.961 41.1879 57.1989 40.3214 56.8883 39.3917L55.9398 39.7086ZM54.2726 42.2293C53.1271 42.5559 51.6412 42.3874 50.3151 42.2143L50.1857 43.2059C51.4654 43.3729 53.1666 43.5844 54.5467 43.191L54.2726 42.2293ZM50.2504 45.5C50.1371 45.987 50.1371 45.987 50.1371 45.987C50.1371 45.987 50.1371 45.987 50.1372 45.987C50.1373 45.9871 50.1376 45.9871 50.1379 45.9872C50.1386 45.9873 50.1396 45.9876 50.1411 45.9879C50.144 45.9886 50.1485 45.9897 50.1545 45.9911C50.1666 45.9939 50.1847 45.9982 50.2085 46.004C50.2561 46.0154 50.3264 46.0325 50.4161 46.0548C50.5956 46.0994 50.8526 46.165 51.1614 46.2484C51.7798 46.4154 52.6011 46.6527 53.4197 46.9352C54.2434 47.2196 55.0419 47.542 55.6261 47.8752C55.9197 48.0425 56.1355 48.1994 56.2717 48.3385C56.3387 48.4068 56.3767 48.4611 56.3969 48.4997C56.4065 48.5183 56.4111 48.5314 56.4132 48.5392C56.4152 48.5468 56.4152 48.5501 56.4152 48.5502H57.4152C57.4152 48.1729 57.208 47.8651 56.9859 47.6385C56.7577 47.4056 56.4528 47.1953 56.1215 47.0064C55.4561 46.627 54.5883 46.2807 53.7459 45.99C52.8983 45.6974 52.0534 45.4535 51.4221 45.283C51.106 45.1976 50.8424 45.1303 50.6574 45.0843C50.5649 45.0613 50.492 45.0436 50.4419 45.0316C50.4169 45.0256 50.3976 45.021 50.3844 45.0179C50.3778 45.0163 50.3728 45.0151 50.3693 45.0143C50.3676 45.0139 50.3662 45.0136 50.3653 45.0134C50.3648 45.0133 50.3644 45.0132 50.3641 45.0131C50.364 45.0131 50.3639 45.0131 50.3638 45.013C50.3637 45.013 50.3636 45.013 50.2504 45.5ZM56.4152 48.5502C56.4152 49.1249 56.1399 49.6106 55.7206 49.9868C55.2953 50.3684 54.7528 50.6063 54.3113 50.6763L54.4679 51.664C55.0988 51.564 55.8191 51.242 56.3884 50.7311C56.9638 50.2148 57.4152 49.4756 57.4152 48.5502H56.4152ZM54.3113 50.6763C53.8696 50.7463 53.174 50.6737 52.4082 50.5243C51.6609 50.3786 50.911 50.1734 50.3917 50.0204L50.1091 50.9796C50.6421 51.1366 51.4256 51.3515 52.2167 51.5058C52.9894 51.6565 53.8372 51.764 54.4679 51.664L54.3113 50.6763ZM40.4986 57.6401C40.1232 57.9704 40.1232 57.9704 40.1232 57.9704C40.1232 57.9704 40.1233 57.9704 40.1233 57.9705C40.1234 57.9706 40.1235 57.9707 40.1237 57.971C40.1241 57.9714 40.1247 57.9721 40.1255 57.973C40.1271 57.9748 40.1296 57.9776 40.1328 57.9813C40.1392 57.9886 40.1488 57.9995 40.1614 58.0139C40.1866 58.0427 40.2238 58.0852 40.2714 58.1398C40.3667 58.2492 40.5038 58.4071 40.6709 58.601C41.0052 58.9891 41.4589 59.5208 41.9369 60.096C42.9073 61.2637 43.9333 62.5582 44.3021 63.215L45.1741 62.7253C44.7511 61.9721 43.6574 60.6016 42.706 59.4568C42.2231 58.8758 41.7654 58.3393 41.4285 57.9483C41.26 57.7527 41.1216 57.5934 41.0253 57.4828C40.9771 57.4275 40.9394 57.3844 40.9137 57.3551C40.9009 57.3404 40.891 57.3292 40.8843 57.3216C40.881 57.3178 40.8785 57.3149 40.8768 57.313C40.8759 57.312 40.8752 57.3112 40.8748 57.3107C40.8746 57.3105 40.8744 57.3103 40.8743 57.3102C40.8742 57.3101 40.8742 57.31 40.8741 57.31C40.8741 57.31 40.8741 57.3099 40.4986 57.6401ZM44.3025 63.2157C44.4301 63.4419 44.5352 63.6643 44.588 63.872C44.64 64.0769 44.632 64.2309 44.5798 64.3517L45.4977 64.7486C45.666 64.3594 45.6429 63.9634 45.5572 63.6258C45.4721 63.291 45.3167 62.9784 45.1736 62.7246L44.3025 63.2157ZM44.5772 64.358C44.5135 64.5109 44.3723 64.6377 44.1265 64.7225C43.8777 64.8083 43.5677 64.8323 43.2751 64.8027L43.1744 65.7976C43.5733 65.838 44.035 65.8119 44.4527 65.6678C44.8734 65.5226 45.2934 65.2394 45.5004 64.7423L44.5772 64.358ZM43.2746 64.8026C41.566 64.6313 40.0395 63.4928 38.8088 62.0992L38.0593 62.7611C39.3542 64.2275 41.095 65.589 43.1748 65.7976L43.2746 64.8026ZM38.8088 62.0992C38.1899 61.3983 37.5443 60.5568 36.873 59.7004C36.2087 58.8529 35.5208 57.9931 34.8383 57.2915L34.1215 57.9888C34.7619 58.6472 35.4197 59.4674 36.086 60.3174C36.7453 61.1585 37.4154 62.032 38.0593 62.7611L38.8088 62.0992ZM30.0836 58.1401L48.2582 58.0499L48.2532 57.0499L30.0787 57.1401L30.0836 58.1401ZM50.7504 55.5499V8.5H49.7504V55.5499H50.7504ZM24.8048 8.50029V36.8039H25.8048V8.50029H24.8048ZM27.3092 6.00029C25.9271 6.00031 24.8048 7.11854 24.8048 8.50029H25.8048C25.8048 7.67292 26.4773 7.0003 27.3092 7.00029L27.3092 6.00029ZM50.7504 8.5C50.7504 7.11823 49.628 5.99999 48.2459 6L48.2459 7C49.0778 6.99999 49.7504 7.67262 49.7504 8.5H50.7504ZM48.2582 58.0499C49.6355 58.0431 50.7504 56.9269 50.7504 55.5499H49.7504C49.7504 56.3744 49.0823 57.0458 48.2533 57.0499L48.2582 58.0499ZM48.2459 6L45.8906 6.00002L45.8906 7.00002L48.2459 7L48.2459 6ZM45.3906 6.50002V7H46.3906V6.50002H45.3906ZM45.8906 6.00002L29.8549 6.00027L29.8549 7.00027L45.8906 7.00002L45.8906 6.00002ZM29.8549 6.00027L27.3092 6.00029L27.3092 7.00029L29.8549 7.00027L29.8549 6.00027ZM29.3549 6.50027V7H30.3549V6.50027H29.3549ZM32.8616 10.5H42.8839V9.5H32.8616V10.5ZM45.3906 7C45.3906 8.37967 44.2694 9.5 42.8839 9.5V10.5C44.8196 10.5 46.3906 8.93405 46.3906 7H45.3906ZM12.4549 90.6348C13.7313 90.9415 14.9726 90.1558 15.3411 88.9361L14.3839 88.6469C14.1579 89.3947 13.4145 89.8369 12.6886 89.6625L12.4549 90.6348ZM29.3549 7C29.3549 8.93405 30.926 10.5 32.8616 10.5V9.5C31.4761 9.5 30.3549 8.37966 30.3549 7H29.3549ZM0.993182 76.8239C0.485525 77.5103 0.355714 78.4103 0.669368 79.2122L1.60065 78.8478C1.41505 78.3734 1.48946 77.8346 1.79716 77.4186L0.993182 76.8239ZM69.4444 1.01452C69.5043 3.07577 69.6104 4.52034 69.9667 5.74186C70.3295 6.98585 70.9419 7.96847 71.9505 9.13558L72.7071 8.48173C71.7563 7.38154 71.2363 6.52354 70.9267 5.46186C70.6105 4.37773 70.504 3.05162 70.444 0.985483L69.4444 1.01452ZM69.4444 0.985483C69.3844 3.05162 69.2779 4.37773 68.9617 5.46186C68.652 6.52354 68.132 7.38154 67.1813 8.48173L67.9379 9.13558C68.9465 7.96847 69.5589 6.98585 69.9217 5.74187C70.278 4.52034 70.3841 3.07577 70.444 1.01452L69.4444 0.985483ZM70.444 18.0145C70.504 15.9484 70.6105 14.6223 70.9267 13.5381C71.2363 12.4765 71.7563 11.6185 72.7071 10.5183L71.9505 9.86442C70.9419 11.0315 70.3295 12.0142 69.9667 13.2581C69.6104 14.4797 69.5043 15.9242 69.4444 17.9855L70.444 18.0145ZM70.444 17.9855C70.3841 15.9242 70.278 14.4797 69.9217 13.2581C69.5589 12.0142 68.9465 11.0315 67.9379 9.86442L67.1813 10.5183C68.132 11.6185 68.652 12.4765 68.9617 13.5381C69.2779 14.6223 69.3844 15.9484 69.4444 18.0145L70.444 17.9855ZM67.1813 8.48173C66.6764 9.06595 66.6764 9.93405 67.1813 10.5183L67.9379 9.86442C67.7576 9.6557 67.7576 9.3443 67.9379 9.13558L67.1813 8.48173ZM71.9505 9.13558C72.1308 9.3443 72.1308 9.6557 71.9505 9.86442L72.7071 10.5183C73.2119 9.93405 73.2119 9.06595 72.7071 8.48173L71.9505 9.13558ZM94.9381 94.7493C93.3499 92.9259 90.4441 89.5579 87.9065 86.4433C86.6372 84.8853 85.4645 83.3963 84.596 82.1982C84.1613 81.5985 83.808 81.0787 83.558 80.6636C83.4328 80.4559 83.3376 80.281 83.2718 80.1399C83.2023 79.991 83.1797 79.9093 83.1753 79.8797L82.186 80.025C82.2116 80.1996 82.2832 80.3862 82.3656 80.5628C82.4516 80.747 82.5659 80.9547 82.7013 81.1796C82.9724 81.6296 83.3444 82.1753 83.7864 82.7851C84.6713 84.0059 85.8578 85.512 87.1313 87.075C89.6794 90.2025 92.5938 93.5804 94.1841 95.4062L94.9381 94.7493ZM83.1753 79.8797C82.9875 78.6012 82.4938 75.756 81.7626 72.727C81.0351 69.7131 80.0591 66.4575 78.8912 64.3965L78.0212 64.8895C79.1136 66.8173 80.0638 69.9509 80.7906 72.9617C81.5137 75.9575 82.002 78.7726 82.186 80.025L83.1753 79.8797ZM78.7472 63.9503C78.594 62.8318 78.0062 60.9047 76.49 59.7055L75.8696 60.4899C77.0961 61.4599 77.6196 63.0868 77.7565 64.0861L78.7472 63.9503ZM75.8199 58.8407C75.5119 58.2796 74.9797 57.6406 74.3471 56.9819C73.708 56.3165 72.94 55.6041 72.1359 54.8949C70.5349 53.4828 68.7433 52.0433 67.5256 51.0109L66.8789 51.7736C68.1309 52.8351 69.8785 54.2373 71.4745 55.6449C72.2689 56.3455 73.0139 57.0374 73.6258 57.6745C74.2441 58.3183 74.7008 58.8802 74.9433 59.3218L75.8199 58.8407ZM67.2759 50.6357C66.1944 47.2954 64.5204 42.4322 62.8999 38.3596C62.0903 36.3252 61.2893 34.4757 60.5784 33.1093C60.2239 32.4279 59.8836 31.8506 59.568 31.427C59.4104 31.2154 59.2493 31.029 59.0855 30.8849C58.9285 30.7467 58.7291 30.6115 58.4939 30.5673L58.3091 31.5501C58.2886 31.5462 58.3258 31.5484 58.4248 31.6355C58.5171 31.7168 58.6314 31.8437 58.7661 32.0244C59.0349 32.3853 59.3466 32.9084 59.6913 33.5709C60.3788 34.8923 61.1652 36.705 61.9707 38.7293C63.5803 42.7743 65.2468 47.6151 66.3245 50.9438L67.2759 50.6357ZM53.7315 61.3475C52.8347 59.0186 51.125 57.9631 49.6294 58.08C48.8869 58.138 48.212 58.4927 47.7991 59.1142C47.3848 59.7378 47.2761 60.5652 47.5341 61.4925L48.4975 61.2244C48.3005 60.5165 48.4102 60.0015 48.632 59.6676C48.8552 59.3317 49.2341 59.1139 49.7073 59.0769C50.6433 59.0038 52.0131 59.6678 52.7983 61.7069L53.7315 61.3475ZM47.5341 61.4925C48.4317 64.718 48.7228 66.5013 50.329 68.7857L51.1471 68.2105C49.6659 66.104 49.4201 64.5395 48.4975 61.2244L47.5341 61.4925ZM50.329 68.7857C51.8786 70.9894 55.667 76.1106 59.0145 80.2236L59.7901 79.5924C56.4593 75.4999 52.685 70.3977 51.1471 68.2105L50.329 68.7857ZM59.0145 80.2236C60.73 82.3314 63.3299 84.3425 65.8951 86.2318C68.4879 88.1414 71.0377 89.9219 72.7616 91.609L73.461 90.8943C71.672 89.1435 69.0368 87.3037 66.4881 85.4266C63.9119 83.5292 61.4138 81.5874 59.7901 79.5924L59.0145 80.2236ZM58.4939 30.5673C57.9833 30.4712 57.2892 30.4081 56.7489 30.8871C56.2276 31.3493 56.0072 32.1796 56.0071 33.3989C56.007 35.8739 56.9272 40.5906 59.5182 49.4243L60.4778 49.1429C57.8818 40.2921 57.007 35.7089 57.0071 33.3989C57.0072 32.2256 57.2356 31.7921 57.4123 31.6354C57.57 31.4956 57.8231 31.4586 58.3091 31.5501L58.4939 30.5673ZM59.5182 49.4243C60.021 51.1386 60.5873 53.0096 61.2228 55.0513L62.1776 54.7541C61.5435 52.717 60.9788 50.8513 60.4778 49.1429L59.5182 49.4243ZM59.7155 48.8711C58.7653 49.5218 57.3077 50.6377 56.0082 51.8821C55.3583 52.5045 54.74 53.1666 54.2429 53.8252C53.7504 54.4778 53.3534 55.1577 53.1819 55.8145L54.1494 56.0672C54.2732 55.5935 54.5823 55.0356 55.0411 54.4276C55.4954 53.8256 56.0736 53.2041 56.6999 52.6044C57.9527 51.4047 59.366 50.3224 60.2805 49.6962L59.7155 48.8711ZM53.1819 55.8145C52.5711 58.1526 52.6507 60.6243 52.7686 61.5879L53.7612 61.4665C53.654 60.59 53.5789 58.251 54.1494 56.0672L53.1819 55.8145ZM60.0634 66.8545C59.7946 67.1439 59.4657 67.2608 59.0658 67.2305C58.6452 67.1987 58.1352 67.0005 57.573 66.6196C56.4505 65.859 55.2503 64.4581 54.3471 62.7148L53.4592 63.1748C54.4179 65.0253 55.7181 66.5707 57.0121 67.4474C57.6581 67.8851 58.3353 68.1782 58.9905 68.2277C59.6664 68.2788 60.3021 68.0669 60.7962 67.535L60.0634 66.8545ZM54.3471 62.7148C54.1203 62.277 53.9132 61.8195 53.7315 61.3475L52.7983 61.7069C52.9936 62.2141 53.2159 62.7053 53.4592 63.1748L54.3471 62.7148ZM58.256 60.6014C59.2446 57.856 61.1852 55.9104 61.999 55.3036L61.4013 54.5019C60.4622 55.2021 58.3826 57.2982 57.3151 60.2626L58.256 60.6014ZM53.7149 63.408C54.3398 63.662 55.3875 63.7528 56.393 63.1366L55.8704 62.284C55.1765 62.7093 54.4691 62.6351 54.0915 62.4816L53.7149 63.408ZM56.393 63.1366C57.1275 62.6864 57.7933 61.8862 58.256 60.6014L57.3151 60.2626C56.9121 61.3816 56.3717 61.9768 55.8704 62.284L56.393 63.1366ZM55.686 62.4837C55.4872 62.8748 55.2537 63.5045 55.2564 64.0986C55.2577 64.4011 55.3206 64.7403 55.5291 65.0295C55.7469 65.3318 56.0791 65.5177 56.4939 65.5811L56.6451 64.5926C56.4491 64.5626 56.3757 64.494 56.3403 64.4448C56.2954 64.3825 56.2572 64.2732 56.2564 64.0942C56.2547 63.7253 56.4131 63.2601 56.5774 62.9368L55.686 62.4837ZM61.2176 55.0335C61.5965 56.4323 61.7465 58.3497 61.6742 60.2764L62.6735 60.3139C62.748 58.3292 62.5973 56.3024 62.1828 54.772L61.2176 55.0335ZM61.6742 60.2764C61.6205 61.7081 61.4448 63.1223 61.1603 64.3058C60.8707 65.5105 60.4858 66.3997 60.0634 66.8545L60.7962 67.535C61.4022 66.8825 61.8346 65.7791 62.1326 64.5395C62.4357 63.2785 62.6179 61.7966 62.6735 60.3139L61.6742 60.2764ZM61.2394 62.6772C61.6066 61.8006 61.9 61.2878 62.1049 61.0054C62.208 60.8632 62.2783 60.7939 62.3122 60.7664C62.3291 60.7526 62.3267 60.7577 62.3054 60.7672C62.2889 60.7746 62.2207 60.8032 62.1199 60.7922L62.2279 59.7981C62.0889 59.783 61.9719 59.8209 61.8963 59.8547C61.8159 59.8908 61.7441 59.9395 61.6816 59.9903C61.5567 60.0917 61.4283 60.2349 61.2954 60.4182C61.0281 60.7867 60.7 61.3765 60.3171 62.2908L61.2394 62.6772ZM56.4939 65.5811C57.4595 65.7288 58.5229 65.5813 59.4603 64.9553L58.905 64.1237C58.2081 64.589 57.406 64.709 56.6451 64.5926L56.4939 65.5811ZM59.4603 64.9553C60.1808 64.4741 60.7992 63.7282 61.2394 62.6772L60.3171 62.2908C59.9422 63.1857 59.4408 63.7658 58.905 64.1237L59.4603 64.9553ZM58.7191 64.7268C58.8556 65.0646 59.1595 65.5277 59.6609 65.7783C60.2077 66.0516 60.8821 66.02 61.6055 65.5311L61.0455 64.7026C60.569 65.0246 60.2791 64.9694 60.1081 64.8839C59.8916 64.7757 59.724 64.5446 59.6462 64.3521L58.7191 64.7268ZM67.5256 51.0109C67.4093 50.9123 67.3244 50.7857 67.2759 50.6357L66.3245 50.9438C66.4294 51.2677 66.6184 51.5528 66.8789 51.7736L67.5256 51.0109ZM76.49 59.7055C76.2318 59.5014 76.0144 59.195 75.8199 58.8407L74.9433 59.3218C75.1627 59.7217 75.4574 60.1639 75.8696 60.4899L76.49 59.7055ZM78.8912 64.3965C78.8181 64.2675 78.7702 64.1175 78.7472 63.9503L77.7565 64.0861C77.7939 64.3588 77.8762 64.6337 78.0212 64.8895L78.8912 64.3965ZM72.6319 91.3936L75.0278 99.4824L75.9866 99.1984L73.5907 91.1096L72.6319 91.3936ZM76.8881 101.079C83.7393 101.935 89.3933 101.755 94.6318 97.9648L94.0457 97.1546C89.1228 100.716 83.792 100.934 77.012 100.087L76.8881 101.079ZM75.0278 99.4824C75.2799 100.333 76.0033 100.968 76.8881 101.079L77.012 100.087C76.5351 100.027 76.1297 99.6816 75.9866 99.1984L75.0278 99.4824ZM94.1841 95.4061C94.664 95.9571 94.5821 96.7666 94.0457 97.1546L94.6318 97.9648C95.6965 97.1946 95.7607 95.6937 94.9381 94.7493L94.1841 95.4061Z" fill="#31477B"/>
    <defs>
        <linearGradient id="paint0_linear" x1="29" y1="52" x2="76" y2="52" gradientUnits="userSpaceOnUse">
            <stop stop-color="#16A7D8"/>
            <stop offset="1" stop-color="#1290B4"/>
        </linearGradient>
        <linearGradient id="paint1_linear" x1="29" y1="52" x2="76" y2="52" gradientUnits="userSpaceOnUse">
            <stop stop-color="#16A7D8"/>
            <stop offset="1" stop-color="#1290B4"/>
        </linearGradient>
        <linearGradient id="paint2_linear" x1="29" y1="52" x2="76" y2="52" gradientUnits="userSpaceOnUse">
            <stop stop-color="#16A7D8"/>
            <stop offset="1" stop-color="#1290B4"/>
        </linearGradient>
        <linearGradient id="paint3_linear" x1="30.175" y1="52" x2="76" y2="52" gradientUnits="userSpaceOnUse">
            <stop stop-color="#FEB43F"/>
            <stop offset="1" stop-color="#FECB3E"/>
        </linearGradient>
        <linearGradient id="paint4_linear" x1="30.175" y1="52" x2="76" y2="52" gradientUnits="userSpaceOnUse">
            <stop stop-color="#FEB43F"/>
            <stop offset="1" stop-color="#FECB3E"/>
        </linearGradient>
        <linearGradient id="paint5_linear" x1="30.175" y1="52" x2="76" y2="52" gradientUnits="userSpaceOnUse">
            <stop stop-color="#FEB43F"/>
            <stop offset="1" stop-color="#FECB3E"/>
        </linearGradient>
        <linearGradient id="paint6_linear" x1="90.9" y1="36.5" x2="87" y2="36.5" gradientUnits="userSpaceOnUse">
            <stop stop-color="#FEB43F"/>
            <stop offset="1" stop-color="#FECB3E"/>
        </linearGradient>
        <linearGradient id="paint7_linear" x1="90.9" y1="36.5" x2="87" y2="36.5" gradientUnits="userSpaceOnUse">
            <stop stop-color="#FEB43F"/>
            <stop offset="1" stop-color="#FECB3E"/>
        </linearGradient>
    </defs>
</svg>
