<svg width="29" height="872" viewBox="0 0 29 872" fill="none" xmlns="http://www.w3.org/2000/svg">
    <line x1="14.5" y1="10" x2="14.5" y2="870" stroke="url(#paint0_linear)" stroke-dasharray="10 10"/>
    <circle cx="14.5" cy="14.5" r="14.5" fill="url(#paint1_linear)"/>
    <path d="M15.944 9.8V21H13.352V11.88H11.112V9.8H15.944Z" fill="white"/>
    <circle cx="14.5" cy="185.5" r="14.5" fill="url(#paint2_linear)"/>
    <path d="M18.992 189.888V192H10.528V190.32L14.848 186.24C15.3067 185.803 15.616 185.429 15.776 185.12C15.936 184.8 16.016 184.485 16.016 184.176C16.016 183.728 15.8613 183.387 15.552 183.152C15.2533 182.907 14.8107 182.784 14.224 182.784C13.7333 182.784 13.2907 182.88 12.896 183.072C12.5013 183.253 12.1707 183.531 11.904 183.904L10.016 182.688C10.4533 182.037 11.056 181.531 11.824 181.168C12.592 180.795 13.472 180.608 14.464 180.608C15.296 180.608 16.0213 180.747 16.64 181.024C17.2693 181.291 17.7547 181.675 18.096 182.176C18.448 182.667 18.624 183.248 18.624 183.92C18.624 184.528 18.496 185.099 18.24 185.632C17.984 186.165 17.488 186.773 16.752 187.456L14.176 189.888H18.992Z" fill="white"/>
    <circle cx="14.5" cy="353.5" r="14.5" fill="url(#paint3_linear)"/>
    <path d="M15.856 353.36C16.8373 353.52 17.5893 353.888 18.112 354.464C18.6347 355.029 18.896 355.733 18.896 356.576C18.896 357.227 18.7253 357.829 18.384 358.384C18.0427 358.928 17.52 359.365 16.816 359.696C16.1227 360.027 15.2693 360.192 14.256 360.192C13.4667 360.192 12.688 360.091 11.92 359.888C11.1627 359.675 10.5173 359.376 9.984 358.992L10.992 357.008C11.4187 357.328 11.9093 357.579 12.464 357.76C13.0293 357.931 13.6053 358.016 14.192 358.016C14.8427 358.016 15.3547 357.893 15.728 357.648C16.1013 357.392 16.288 357.035 16.288 356.576C16.288 355.659 15.5893 355.2 14.192 355.2H13.008V353.488L15.312 350.88H10.544V348.8H18.384V350.48L15.856 353.36Z" fill="white"/>
    <circle cx="14.5" cy="520.5" r="14.5" fill="url(#paint4_linear)"/>
    <path d="M18.88 524.648H17.056V527H14.528V524.648H8.496V522.904L13.776 515.8H16.496L11.6 522.536H14.608V520.44H17.056V522.536H18.88V524.648Z" fill="white"/>
    <circle cx="14.5" cy="689.5" r="14.5" fill="url(#paint5_linear)"/>
    <path d="M14.464 689.008C16.0427 689.008 17.2053 689.323 17.952 689.952C18.7093 690.581 19.088 691.424 19.088 692.48C19.088 693.163 18.9173 693.787 18.576 694.352C18.2347 694.907 17.712 695.355 17.008 695.696C16.3147 696.027 15.456 696.192 14.432 696.192C13.6427 696.192 12.864 696.091 12.096 695.888C11.3387 695.675 10.6933 695.376 10.16 694.992L11.184 693.008C11.6107 693.328 12.1013 693.579 12.656 693.76C13.2107 693.931 13.7813 694.016 14.368 694.016C15.0187 694.016 15.5307 693.888 15.904 693.632C16.2773 693.376 16.464 693.019 16.464 692.56C16.464 692.08 16.2667 691.717 15.872 691.472C15.488 691.227 14.816 691.104 13.856 691.104H10.992L11.568 684.8H18.4V686.88H13.728L13.552 689.008H14.464Z" fill="white"/>
    <circle cx="14.5" cy="857.5" r="14.5" fill="url(#paint6_linear)"/>
    <path d="M15.016 856.976C15.7307 856.976 16.3813 857.12 16.968 857.408C17.5547 857.696 18.0187 858.107 18.36 858.64C18.7013 859.163 18.872 859.771 18.872 860.464C18.872 861.211 18.6853 861.867 18.312 862.432C17.9387 862.997 17.4267 863.435 16.776 863.744C16.136 864.043 15.4213 864.192 14.632 864.192C13.064 864.192 11.8373 863.712 10.952 862.752C10.0667 861.792 9.624 860.421 9.624 858.64C9.624 857.371 9.864 856.283 10.344 855.376C10.824 854.469 11.4907 853.781 12.344 853.312C13.208 852.843 14.2053 852.608 15.336 852.608C15.9333 852.608 16.504 852.677 17.048 852.816C17.6027 852.944 18.072 853.131 18.456 853.376L17.496 855.28C16.9413 854.907 16.2427 854.72 15.4 854.72C14.4507 854.72 13.6987 854.997 13.144 855.552C12.5893 856.107 12.2907 856.912 12.248 857.968C12.9093 857.307 13.832 856.976 15.016 856.976ZM14.488 862.256C15.0427 862.256 15.4907 862.107 15.832 861.808C16.184 861.509 16.36 861.104 16.36 860.592C16.36 860.08 16.184 859.675 15.832 859.376C15.4907 859.067 15.032 858.912 14.456 858.912C13.8907 858.912 13.4267 859.072 13.064 859.392C12.7013 859.701 12.52 860.101 12.52 860.592C12.52 861.083 12.696 861.483 13.048 861.792C13.4 862.101 13.88 862.256 14.488 862.256Z" fill="white"/>
    <defs>
        <linearGradient id="paint0_linear" x1="13.5" y1="10" x2="13.4967" y2="870" gradientUnits="userSpaceOnUse">
            <stop stop-color="#16A7D8"/>
            <stop offset="1" stop-color="#1290B4"/>
        </linearGradient>
        <linearGradient id="paint1_linear" x1="5.40167e-08" y1="14.5" x2="29" y2="14.5" gradientUnits="userSpaceOnUse">
            <stop stop-color="#16A7D8"/>
            <stop offset="1" stop-color="#1290B4"/>
        </linearGradient>
        <linearGradient id="paint2_linear" x1="5.40167e-08" y1="185.5" x2="29" y2="185.5" gradientUnits="userSpaceOnUse">
            <stop stop-color="#16A7D8"/>
            <stop offset="1" stop-color="#1290B4"/>
        </linearGradient>
        <linearGradient id="paint3_linear" x1="5.40167e-08" y1="353.5" x2="29" y2="353.5" gradientUnits="userSpaceOnUse">
            <stop stop-color="#16A7D8"/>
            <stop offset="1" stop-color="#1290B4"/>
        </linearGradient>
        <linearGradient id="paint4_linear" x1="5.40167e-08" y1="520.5" x2="29" y2="520.5" gradientUnits="userSpaceOnUse">
            <stop stop-color="#16A7D8"/>
            <stop offset="1" stop-color="#1290B4"/>
        </linearGradient>
        <linearGradient id="paint5_linear" x1="5.40167e-08" y1="689.5" x2="29" y2="689.5" gradientUnits="userSpaceOnUse">
            <stop stop-color="#16A7D8"/>
            <stop offset="1" stop-color="#1290B4"/>
        </linearGradient>
        <linearGradient id="paint6_linear" x1="5.40167e-08" y1="857.5" x2="29" y2="857.5" gradientUnits="userSpaceOnUse">
            <stop stop-color="#16A7D8"/>
            <stop offset="1" stop-color="#1290B4"/>
        </linearGradient>
    </defs>
</svg>
