<svg width="97" height="97" viewBox="0 0 97 97" fill="none" xmlns="http://www.w3.org/2000/svg">
    <path d="M44 54V21C44 19.8954 44.8954 19 46 19H91C92.1046 19 93 19.8954 93 21V54C93 55.1046 92.1046 56 91 56H46C44.8954 56 44 55.1046 44 54Z" fill="white" stroke="#31477B"/>
    <path d="M50 28C50 26.8954 50.8954 26 52 26H54C55.1046 26 56 26.8954 56 28V50C56 51.1046 55.1046 52 54 52H52C50.8954 52 50 51.1046 50 50V28Z" fill="url(#paint0_linear)"/>
    <path d="M58 25C58 23.8954 58.8954 23 60 23H62C63.1046 23 64 23.8954 64 25V50C64 51.1046 63.1046 52 62 52H60C58.8954 52 58 51.1046 58 50V25Z" fill="url(#paint1_linear)"/>
    <path d="M66 35.5C66 34.3954 66.8954 33.5 68 33.5H70C71.1046 33.5 72 34.3954 72 35.5V50C72 51.1046 71.1046 52 70 52H68C66.8954 52 66 51.1046 66 50V35.5Z" fill="url(#paint2_linear)"/>
    <path d="M74 31C74 29.8954 74.8954 29 76 29H78C79.1046 29 80 29.8954 80 31V50C80 51.1046 79.1046 52 78 52H76C74.8954 52 74 51.1046 74 50V31Z" fill="url(#paint3_linear)"/>
    <path d="M82 33.5C82 32.3954 82.8954 31.5 84 31.5H86C87.1046 31.5 88 32.3954 88 33.5V50C88 51.1046 87.1046 52 86 52H84C82.8954 52 82 51.1046 82 50V33.5Z" fill="url(#paint4_linear)"/>
    <path d="M7.55172 40C7.55172 38.8954 8.44715 38 9.55172 38H87.4483C88.5528 38 89.4483 38.8954 89.4483 40V92.5423H7.55172V40Z" fill="white"/>
    <path d="M7.55172 92.5423H89.4483H95.5C95.7761 92.5423 96 92.7661 96 93.0423V94C96 95.1046 95.1046 96 94 96H3C1.89543 96 1 95.1046 1 94V93.0423C1 92.7661 1.22386 92.5423 1.5 92.5423H7.55172Z" fill="white"/>
    <path d="M89.4483 92.5423V40C89.4483 38.8954 88.5528 38 87.4483 38H9.55172C8.44715 38 7.55172 38.8954 7.55172 40V92.5423M89.4483 92.5423H7.55172M89.4483 92.5423H95.5C95.7761 92.5423 96 92.7661 96 93.0423V94C96 95.1046 95.1046 96 94 96H3C1.89543 96 1 95.1046 1 94V93.0423C1 92.7661 1.22386 92.5423 1.5 92.5423H7.55172" stroke="#31477B"/>
    <rect x="80.5" y="53.5" width="2" height="29" rx="1" stroke="#31477B" stroke-linejoin="round"/>
    <rect x="81" y="74" width="1" height="8" rx="0.5" fill="url(#paint5_linear)"/>
    <rect x="80.5" y="47.5" width="2" height="2" rx="1" stroke="#31477B" stroke-linejoin="round"/>
    <rect x="80.5" y="86.5" width="2" height="2" rx="1" fill="white" stroke="#31477B" stroke-linejoin="round"/>
    <path d="M7.55172 92H89.4483H95.5C95.7761 92 96 92.2239 96 92.5V93C96 94.1046 95.1046 95 94 95H3C1.89543 95 1 94.1046 1 93V92.5C1 92.2239 1.22386 92 1.5 92H7.55172Z" fill="white" stroke="#31477B"/>
    <path d="M57.8103 69.7853C58.3765 69.9015 58.9261 69.5148 58.9649 68.9381C58.9882 68.5933 59 68.2452 59 67.8944C59 67.611 58.7532 67.3942 58.471 67.4205L51.6263 68.0592C51.514 68.0697 51.4276 68.1631 51.4218 68.2758C51.4161 68.3878 51.4916 68.4881 51.6015 68.5106L57.8103 69.7853Z" fill="url(#paint6_linear)"/>
    <path d="M48.3244 60.8824C48.0316 61.308 47.4652 61.4327 46.9848 61.2427C46.2103 60.9363 45.3687 60.7684 44.489 60.7684C41.2281 60.7684 38.4922 63.0759 37.7469 66.1869C37.6283 66.6819 37.208 67.0669 36.699 67.0669H31.0548C30.4816 67.0669 30.0226 66.5844 30.0923 66.0155C30.9924 58.6765 37.0948 53 44.489 53C46.9508 53 49.2695 53.6291 51.3006 54.7395C51.7957 55.0101 51.9223 55.6507 51.6026 56.1156L48.3244 60.8824Z" fill="url(#paint7_linear)"/>
    <path d="M57.8103 69.7853C58.3765 69.9015 58.9261 69.5148 58.9649 68.9381C58.9882 68.5933 59 68.2452 59 67.8944C59 67.611 58.7532 67.3942 58.471 67.4205L51.6263 68.0592C51.514 68.0697 51.4276 68.1631 51.4218 68.2758C51.4161 68.3878 51.4916 68.4881 51.6015 68.5106L57.8103 69.7853Z" stroke="url(#paint8_linear)" stroke-linecap="round" stroke-linejoin="round"/>
    <path d="M48.3244 60.8824C48.0316 61.308 47.4652 61.4327 46.9848 61.2427C46.2103 60.9363 45.3687 60.7684 44.489 60.7684C41.2281 60.7684 38.4922 63.0759 37.7469 66.1869C37.6283 66.6819 37.208 67.0669 36.699 67.0669H31.0548C30.4816 67.0669 30.0226 66.5844 30.0923 66.0155C30.9924 58.6765 37.0948 53 44.489 53C46.9508 53 49.2695 53.6291 51.3006 54.7395C51.7957 55.0101 51.9223 55.6507 51.6026 56.1156L48.3244 60.8824Z" stroke="url(#paint9_linear)" stroke-linecap="round" stroke-linejoin="round"/>
    <path d="M85.5518 92.5V93C85.8279 93 86.0518 92.7761 86.0518 92.5H85.5518ZM11.5518 92.5H11.0518C11.0518 92.7761 11.2756 93 11.5518 93V92.5ZM58.2081 64.8483L57.72 64.9566L58.2081 64.8483ZM57.3472 65.9823L57.3019 65.4843L57.3472 65.9823ZM52.4452 57.4996L52.8536 57.7881L52.4452 57.4996ZM53.8589 57.3226L53.5206 57.6908L53.8589 57.3226ZM49.2993 63.4702L48.9209 63.797L49.2993 63.4702ZM49.1898 62.1081L48.7814 61.8196L49.1898 62.1081ZM50.5986 65.7161L51.0707 65.5514L50.5986 65.7161ZM51.7237 66.4931L51.7689 66.9911L51.7237 66.4931ZM37.3036 69.6818L37.7888 69.5609L37.3036 69.6818ZM29.6479 69.8581L29.1519 69.9216L29.6479 69.8581ZM50.3178 70.9679L49.8661 70.7536L50.3178 70.9679ZM51.5189 70.3159L51.4209 70.8062L51.5189 70.3159ZM57.7921 72.6428L58.2658 72.8029L57.7921 72.6428ZM57.0572 71.4228L57.1552 70.9325L57.0572 71.4228ZM40.1983 58.8536C40.3936 59.0488 40.7102 59.0488 40.9054 58.8536C41.1007 58.6583 41.1007 58.3417 40.9054 58.1464L40.1983 58.8536ZM35.4306 53.3787L35.7841 53.0251L35.4306 53.3787ZM23.5519 52C23.2757 52 23.0519 52.2239 23.0519 52.5C23.0519 52.7761 23.2757 53 23.5519 53V52ZM55.9054 68.1464C55.7102 67.9512 55.3936 67.9512 55.1983 68.1464C55.0031 68.3417 55.0031 68.6583 55.1983 68.8536L55.9054 68.1464ZM62.1732 75.1213L61.8196 75.4749L62.1732 75.1213ZM72.5519 76.5C72.828 76.5 73.0519 76.2761 73.0519 76C73.0519 75.7239 72.828 75.5 72.5519 75.5V76.5ZM12.5518 42H84.5518V41H12.5518V42ZM85.0518 42.5V92.5H86.0518V42.5H85.0518ZM85.5518 92H11.5518V93H85.5518V92ZM12.0518 92.5V42.5H11.0518V92.5H12.0518ZM84.5518 42C84.8279 42 85.0518 42.2239 85.0518 42.5H86.0518C86.0518 41.6716 85.3802 41 84.5518 41V42ZM12.5518 41C11.7233 41 11.0518 41.6716 11.0518 42.5H12.0518C12.0518 42.2239 12.2756 42 12.5518 42V41ZM9.55172 38.5H87.4483V37.5H9.55172V38.5ZM88.9483 40V92.5423H89.9483V40H88.9483ZM89.4483 92.0423H7.55172V93.0423H89.4483V92.0423ZM8.05172 92.5423V40H7.05172V92.5423H8.05172ZM89.4483 93.0423H95.5V92.0423H89.4483V93.0423ZM95.5 93.0423V94H96.5V93.0423H95.5ZM94 95.5H3V96.5H94V95.5ZM1.5 94V93.0423H0.5V94H1.5ZM1.5 93.0423H7.55172V92.0423H1.5V93.0423ZM1.5 93.0423V92.0423C0.947715 92.0423 0.5 92.49 0.5 93.0423H1.5ZM95.5 93.0423H96.5C96.5 92.49 96.0523 92.0423 95.5 92.0423V93.0423ZM95.5 94C95.5 94.8284 94.8284 95.5 94 95.5V96.5C95.3807 96.5 96.5 95.3807 96.5 94H95.5ZM87.4483 38.5C88.2767 38.5 88.9483 39.1716 88.9483 40H89.9483C89.9483 38.6193 88.829 37.5 87.4483 37.5V38.5ZM3 95.5C2.17157 95.5 1.5 94.8284 1.5 94H0.5C0.5 95.3807 1.61929 96.5 3 96.5V95.5ZM9.55172 37.5C8.17101 37.5 7.05172 38.6193 7.05172 40H8.05172C8.05172 39.1716 8.7233 38.5 9.55172 38.5V37.5ZM57.3184 72.4827C55.4479 78.0166 50.2094 82 44.0409 82V83C50.6508 83 56.2619 78.7312 58.2658 72.8029L57.3184 72.4827ZM44.0409 82C36.9112 82 31.0251 76.6786 30.1439 69.7946L29.1519 69.9216C30.0964 77.2989 36.4021 83 44.0409 83V82ZM30.6082 69.3055H36.2536V68.3055H30.6082V69.3055ZM36.8185 69.8027C37.625 73.0392 40.5522 75.4372 44.0409 75.4372V74.4372C41.0217 74.4372 38.4868 72.3619 37.7888 69.5609L36.8185 69.8027ZM44.0409 75.4372C47.0126 75.4372 49.5767 73.6969 50.7696 71.1822L49.8661 70.7536C48.8326 72.9322 46.6123 74.4372 44.0409 74.4372V75.4372ZM51.4209 70.8062L56.9592 71.9131L57.1552 70.9325L51.6169 69.8256L51.4209 70.8062ZM51.0707 65.5514C50.7593 64.6587 50.2826 63.8438 49.6777 63.1434L48.9209 63.797C49.445 64.4038 49.8573 65.1091 50.1265 65.8808L51.0707 65.5514ZM49.5982 62.3966L52.8536 57.7881L52.0368 57.2112L48.7814 61.8196L49.5982 62.3966ZM53.5206 57.6908C55.5932 59.5946 57.0894 62.1135 57.72 64.9566L58.6963 64.74C58.0201 61.6915 56.4162 58.9928 54.1971 56.9543L53.5206 57.6908ZM57.3019 65.4843L51.6785 65.9952L51.7689 66.9911L57.3924 66.4802L57.3019 65.4843ZM57.72 64.9566C57.7735 65.1979 57.5986 65.4574 57.3019 65.4843L57.3924 66.4802C58.2384 66.4034 58.8912 65.6188 58.6963 64.74L57.72 64.9566ZM52.8536 57.7881C53.0255 57.5448 53.3381 57.5231 53.5206 57.6908L54.1971 56.9543C53.5341 56.3453 52.5274 56.5167 52.0368 57.2112L52.8536 57.7881ZM49.6777 63.1434C49.4708 62.9037 49.4591 62.5935 49.5982 62.3966L48.7814 61.8196C48.3349 62.4517 48.4645 63.2684 48.9209 63.797L49.6777 63.1434ZM50.1265 65.8808C50.3562 66.5395 50.9977 67.0611 51.7689 66.9911L51.6785 65.9952C51.4384 66.017 51.1753 65.8514 51.0707 65.5514L50.1265 65.8808ZM36.2536 69.3055C36.4945 69.3055 36.7416 69.4943 36.8185 69.8027L37.7888 69.5609C37.6201 68.8837 37.0283 68.3055 36.2536 68.3055V69.3055ZM30.1439 69.7946C30.1123 69.5484 30.3109 69.3055 30.6082 69.3055V68.3055C29.7578 68.3055 29.0377 69.0294 29.1519 69.9216L30.1439 69.7946ZM50.7696 71.1822C50.9056 70.8954 51.1848 70.759 51.4209 70.8062L51.6169 69.8256C50.8581 69.6739 50.1649 70.1237 49.8661 70.7536L50.7696 71.1822ZM58.2658 72.8029C58.5541 71.9498 57.9888 71.0991 57.1552 70.9325L56.9592 71.9131C57.2513 71.9714 57.3976 72.2484 57.3184 72.4827L58.2658 72.8029ZM40.9054 58.1464L35.7841 53.0251L35.077 53.7322L40.1983 58.8536L40.9054 58.1464ZM33.3092 52H23.5519V53H33.3092V52ZM55.1983 68.8536L61.8196 75.4749L62.5268 74.7678L55.9054 68.1464L55.1983 68.8536ZM64.2945 76.5H72.5519V75.5H64.2945V76.5ZM61.8196 75.4749C62.476 76.1313 63.3663 76.5 64.2945 76.5V75.5C63.6315 75.5 62.9956 75.2366 62.5268 74.7678L61.8196 75.4749ZM35.7841 53.0251C35.1277 52.3687 34.2375 52 33.3092 52V53C33.9723 53 34.6082 53.2634 35.077 53.7322L35.7841 53.0251Z" fill="#31477B"/>
    <path d="M72 58H61.12C60.3293 58 59.5706 58.3122 59.0088 58.8686L54.8381 63M40.2 77L34.0103 83.1313C33.4485 83.6878 32.6897 84 31.899 84H19" stroke="url(#paint10_linear)" stroke-linecap="round" stroke-linejoin="round"/>
    <path d="M1.00006 27.7253V1.27473C1.00006 0.570714 1.90454 0 3.02026 0H48.9799C50.0956 0 51.0001 0.570714 51.0001 1.27473V27.7253C51.0001 28.4293 50.0956 29 48.9799 29H3.02026C1.90454 29 1.00006 28.4293 1.00006 27.7253Z" fill="url(#paint11_linear)"/>
    <path fill-rule="evenodd" clip-rule="evenodd" d="M0.999992 21V19.777L3.368 17.9997C3.69287 17.7258 4.14075 17.6234 4.53007 17.6261C4.92476 17.6289 5.37991 17.7405 5.69916 18.0323L6.07914 18.3796C6.15426 18.4483 6.32923 18.5198 6.568 18.5215C6.80601 18.5231 6.98691 18.4543 7.06863 18.3832L8.85122 16.8315C9.18826 16.5382 9.66242 16.4353 10.0683 16.4455C10.471 16.4557 10.9429 16.5812 11.2531 16.9052L12.8261 18.5482C12.9051 18.6308 13.1219 18.7164 13.4123 18.6956C13.7192 18.6736 13.836 18.5583 13.8474 18.5353L17.6307 10.9283C17.8642 10.4586 18.4099 10.2706 18.8325 10.2282C19.2743 10.184 19.8184 10.2697 20.2011 10.5962L20.5579 10.9006C20.6501 10.9793 20.8514 11.0481 21.1031 11.0361C21.3615 11.0237 21.515 10.9354 21.5604 10.8801L23.6546 8.32814C24.0434 7.85429 24.7261 7.7596 25.2194 7.8218C25.4826 7.855 25.7565 7.93821 25.9828 8.08765C26.2124 8.23924 26.4253 8.48464 26.4565 8.82676L27.027 15.0832C27.0322 15.0899 27.0448 15.1026 27.0723 15.1204C27.1402 15.1642 27.2577 15.2076 27.4107 15.2251C27.561 15.2423 27.7132 15.2306 27.8368 15.1948C27.9625 15.1584 28.0256 15.1077 28.0521 15.0721L30.7508 11.4546C31.022 11.0911 31.4902 10.9364 31.8859 10.9015C32.2924 10.8657 32.7682 10.9412 33.1337 11.1981L37.507 14.2727C37.6328 14.3611 37.8628 14.4146 38.1107 14.3846C38.3767 14.3524 38.4797 14.2519 38.4922 14.2291L40.3088 10.9084C40.5594 10.4505 41.1067 10.2723 41.533 10.2375C41.9753 10.2014 42.521 10.2962 42.8934 10.6365L43.9269 11.5812C43.9908 11.6395 44.1294 11.7031 44.3305 11.7193C44.5227 11.7349 44.7052 11.701 44.8272 11.6418L44.8305 11.6374C44.8409 11.6226 44.856 11.5946 44.8714 11.5488L46.0587 8.00347C46.3897 7.01537 47.6582 6.67469 48.4699 7.3559L51 9.47917V10.7585L47.8139 8.08475C47.5433 7.85768 47.1205 7.97124 47.0102 8.30061L45.8228 11.8459C45.7573 12.0415 45.6176 12.3316 45.3015 12.4921C44.9804 12.6551 44.5962 12.7098 44.2471 12.6816C43.9021 12.6537 43.5195 12.5384 43.2395 12.2825L42.206 11.3379C42.1121 11.2521 41.8913 11.1773 41.6172 11.1997C41.3272 11.2233 41.2083 11.3316 41.193 11.3595L39.3764 14.6801C39.1414 15.1097 38.6399 15.2937 38.2351 15.3427C37.8123 15.3939 37.3053 15.3254 36.9184 15.0534L32.5451 11.9787C32.4284 11.8967 32.2151 11.8422 31.9768 11.8632C31.7277 11.8851 31.5956 11.9742 31.5622 12.019L28.8635 15.6366C28.6715 15.8938 28.3917 16.0422 28.1241 16.1197C27.8543 16.1979 27.5628 16.2149 27.293 16.184C27.0259 16.1535 26.7469 16.072 26.5161 15.9228C26.2819 15.7715 26.0633 15.524 26.0316 15.1762L25.4612 8.9203C25.4561 8.91383 25.444 8.9017 25.4184 8.88475C25.3532 8.8417 25.2395 8.79818 25.0899 8.77931C24.7573 8.73737 24.5127 8.83722 24.4383 8.92786L22.3442 11.4798C22.0491 11.8394 21.5611 11.981 21.1526 12.0005C20.7373 12.0204 20.2461 11.923 19.8959 11.6243L19.539 11.3199C19.4344 11.2307 19.2057 11.1617 18.9358 11.1887C18.6467 11.2177 18.5417 11.3271 18.5321 11.3463L14.7488 18.9534C14.5045 19.4447 13.9239 19.6273 13.4862 19.6586C13.0321 19.6911 12.4572 19.5854 12.0918 19.2037L10.5189 17.5607C10.4578 17.4969 10.291 17.4171 10.0422 17.4108C9.79653 17.4046 9.60636 17.4743 9.52077 17.5488L7.73818 19.1004C7.41218 19.3842 6.95629 19.4898 6.56083 19.4871C6.16615 19.4843 5.71099 19.3727 5.39174 19.0809L5.01176 18.7336C4.93663 18.665 4.76167 18.5934 4.5229 18.5917C4.28489 18.5901 4.10399 18.6589 4.02227 18.73L4.00873 18.7418L0.999992 21ZM25.4626 8.92217C25.4635 8.92458 25.4645 8.9257 25.4645 8.9257L25.4636 8.92373L25.4626 8.92217Z" fill="#31477B"/>
    <defs>
        <linearGradient id="paint0_linear" x1="50.95" y1="37.5" x2="88" y2="37.5" gradientUnits="userSpaceOnUse">
            <stop stop-color="#FEB43F"/>
            <stop offset="1" stop-color="#FECB3E"/>
        </linearGradient>
        <linearGradient id="paint1_linear" x1="50.95" y1="37.5" x2="88" y2="37.5" gradientUnits="userSpaceOnUse">
            <stop stop-color="#FEB43F"/>
            <stop offset="1" stop-color="#FECB3E"/>
        </linearGradient>
        <linearGradient id="paint2_linear" x1="50.95" y1="37.5" x2="88" y2="37.5" gradientUnits="userSpaceOnUse">
            <stop stop-color="#FEB43F"/>
            <stop offset="1" stop-color="#FECB3E"/>
        </linearGradient>
        <linearGradient id="paint3_linear" x1="50.95" y1="37.5" x2="88" y2="37.5" gradientUnits="userSpaceOnUse">
            <stop stop-color="#FEB43F"/>
            <stop offset="1" stop-color="#FECB3E"/>
        </linearGradient>
        <linearGradient id="paint4_linear" x1="50.95" y1="37.5" x2="88" y2="37.5" gradientUnits="userSpaceOnUse">
            <stop stop-color="#FEB43F"/>
            <stop offset="1" stop-color="#FECB3E"/>
        </linearGradient>
        <linearGradient id="paint5_linear" x1="81" y1="78" x2="82" y2="78" gradientUnits="userSpaceOnUse">
            <stop stop-color="#16A7D8"/>
            <stop offset="1" stop-color="#1290B4"/>
        </linearGradient>
        <linearGradient id="paint6_linear" x1="30.725" y1="61.5" x2="59" y2="61.5" gradientUnits="userSpaceOnUse">
            <stop stop-color="#FEB43F"/>
            <stop offset="1" stop-color="#FECB3E"/>
        </linearGradient>
        <linearGradient id="paint7_linear" x1="30.725" y1="61.5" x2="59" y2="61.5" gradientUnits="userSpaceOnUse">
            <stop stop-color="#FEB43F"/>
            <stop offset="1" stop-color="#FECB3E"/>
        </linearGradient>
        <linearGradient id="paint8_linear" x1="30" y1="61.5" x2="59" y2="61.5" gradientUnits="userSpaceOnUse">
            <stop stop-color="#16A7D8"/>
            <stop offset="1" stop-color="#1290B4"/>
        </linearGradient>
        <linearGradient id="paint9_linear" x1="30" y1="61.5" x2="59" y2="61.5" gradientUnits="userSpaceOnUse">
            <stop stop-color="#16A7D8"/>
            <stop offset="1" stop-color="#1290B4"/>
        </linearGradient>
        <linearGradient id="paint10_linear" x1="19" y1="71" x2="72" y2="71" gradientUnits="userSpaceOnUse">
            <stop stop-color="#16A7D8"/>
            <stop offset="1" stop-color="#1290B4"/>
        </linearGradient>
        <linearGradient id="paint11_linear" x1="1" y1="14.5" x2="51" y2="14.5" gradientUnits="userSpaceOnUse">
            <stop stop-color="#16A7D8"/>
            <stop offset="1" stop-color="#1290B4"/>
        </linearGradient>
    </defs>
</svg>
