<svg width="96" height="97" viewBox="0 0 96 97" fill="none" xmlns="http://www.w3.org/2000/svg">
    <mask id="path-1-outside-1" maskUnits="userSpaceOnUse" x="4" y="6.5" width="90" height="89" fill="black">
        <rect fill="white" x="4" y="6.5" width="90" height="89"/>
        <path d="M8.55426 27.3202C9.31446 26.2876 9.44556 25.4889 9.5 23.5C9.55444 25.4889 9.68554 26.2876 10.4457 27.3202C10.7432 27.7243 10.7432 28.2757 10.4457 28.6798C9.68554 29.7124 9.55444 30.5111 9.5 32.5C9.44556 30.5111 9.31446 29.7124 8.55426 28.6798C8.25678 28.2757 8.25678 27.7243 8.55426 27.3202Z"/>
        <path d="M88.5661 86.3298C90.1515 84.3641 90.4013 83.1051 90.5 79.5C90.5987 83.1051 90.8485 84.3641 92.4339 86.3298C92.7489 86.7203 92.7489 87.2797 92.4339 87.6702C90.8485 89.6359 90.5987 90.8949 90.5 94.5C90.4013 90.8949 90.1515 89.6359 88.5661 87.6702C88.2511 87.2797 88.2511 86.7203 88.5661 86.3298Z"/>
        <path fill-rule="evenodd" clip-rule="evenodd" d="M74.9358 39H65.0642C64.4764 39 64 39.4764 64 40.0642V50.4358C64 51.0236 64.4764 51.5 65.0642 51.5H74.9358C75.5236 51.5 76 51.0236 76 50.4358V40.0642C76 39.4764 75.5236 39 74.9358 39ZM72.2683 47.6304C71.9821 47.6304 71.7403 47.3964 71.7873 47.1141C71.8067 46.9978 71.8336 46.8957 71.8681 46.8078C71.9468 46.6051 72.0744 46.4298 72.2509 46.282C72.4273 46.1342 72.5608 45.9994 72.6515 45.8778C72.7445 45.7538 72.791 45.6179 72.791 45.4701C72.791 45.11 72.636 44.93 72.326 44.93C72.1829 44.93 72.0672 44.9824 71.979 45.0873L71.9517 45.1199C71.7955 45.3067 71.623 45.513 71.3829 45.513H71.2461C70.9072 45.513 70.6148 45.2266 70.7342 44.9094C70.8093 44.7101 70.9249 44.5405 71.0812 44.4006C71.3769 44.1335 71.7918 44 72.326 44C72.8577 44 73.269 44.1228 73.56 44.3684C73.8533 44.614 73.9999 44.9633 73.9999 45.4164C73.9999 45.6143 73.9606 45.7944 73.8819 45.9565C73.8032 46.1187 73.6768 46.2844 73.5027 46.4537L73.0914 46.8364C72.9746 46.9485 72.8935 47.0641 72.8482 47.1833C72.7565 47.4197 72.571 47.6304 72.3176 47.6304H72.2683ZM71.6035 48.7178C71.6035 48.5413 71.6666 48.3971 71.793 48.285C71.9218 48.1705 72.0816 48.1133 72.2723 48.1133C72.4631 48.1133 72.6217 48.1705 72.748 48.285C72.8768 48.3971 72.9412 48.5413 72.9412 48.7178C72.9412 48.8942 72.8768 49.0397 72.748 49.1542C72.6217 49.2662 72.4631 49.3223 72.2723 49.3223C72.0816 49.3223 71.9218 49.2662 71.793 49.1542C71.6666 49.0397 71.6035 48.8942 71.6035 48.7178ZM66.5 41C66.2239 41 66 41.2239 66 41.5C66 41.7761 66.2239 42 66.5 42H73.5C73.7761 42 74 41.7761 74 41.5C74 41.2239 73.7761 41 73.5 41H66.5ZM66.5 43.5C66.2239 43.5 66 43.7239 66 44C66 44.2761 66.2239 44.5 66.5 44.5H70C70.2761 44.5 70.5 44.2761 70.5 44C70.5 43.7239 70.2761 43.5 70 43.5H66.5ZM66.5 46C66.2239 46 66 46.2239 66 46.5C66 46.7761 66.2239 47 66.5 47H70C70.2761 47 70.5 46.7761 70.5 46.5C70.5 46.2239 70.2761 46 70 46H66.5ZM66.5 48.5C66.2239 48.5 66 48.7239 66 49C66 49.2761 66.2239 49.5 66.5 49.5H70.5C70.7761 49.5 71 49.2761 71 49C71 48.7239 70.7761 48.5 70.5 48.5H66.5Z"/>
        <path d="M40.319 15.0034C39.7106 15.0034 39.1965 14.5197 39.2964 13.9363C39.3376 13.6958 39.3949 13.4847 39.4683 13.3031C39.6356 12.8842 39.9068 12.522 40.2819 12.2164C40.657 11.9108 40.9408 11.6324 41.1335 11.381C41.3312 11.1248 41.43 10.8439 41.43 10.5383C41.43 9.79413 41.1005 9.42204 40.4415 9.42204C40.1374 9.42204 39.8915 9.53047 39.704 9.74731C39.3563 10.1493 38.977 10.627 38.4368 10.627H38.146C37.4254 10.627 36.804 10.0352 37.0579 9.37951C37.2173 8.96769 37.4632 8.61717 37.7955 8.32796C38.4241 7.77599 39.3061 7.5 40.4415 7.5C41.5719 7.5 42.4463 7.75381 43.0648 8.26142C43.6883 8.76904 44 9.49104 44 10.4274C44 10.8365 43.9164 11.2086 43.7491 11.5437C43.5818 11.8788 43.3131 12.2213 42.9431 12.5712L42.0687 13.3622C41.8203 13.5939 41.648 13.8329 41.5517 14.0793C41.3568 14.5678 40.9625 15.0034 40.4236 15.0034H40.319ZM38.9056 17.2507C38.9056 16.886 39.04 16.5878 39.3086 16.3562C39.5823 16.1196 39.922 16.0013 40.3275 16.0013C40.733 16.0013 41.0701 16.1196 41.3388 16.3562C41.6125 16.5878 41.7494 16.886 41.7494 17.2507C41.7494 17.6154 41.6125 17.916 41.3388 18.1526C41.0701 18.3842 40.733 18.5 40.3275 18.5C39.922 18.5 39.5823 18.3842 39.3086 18.1526C39.04 17.916 38.9056 17.6154 38.9056 17.2507Z"/>
        <path d="M9.31898 89.0034C8.71058 89.0034 8.19645 88.5197 8.2964 87.9363C8.33759 87.6958 8.39489 87.4847 8.46829 87.3031C8.63556 86.8842 8.90676 86.522 9.28187 86.2164C9.65697 85.9108 9.94084 85.6324 10.1335 85.3811C10.3312 85.1248 10.43 84.8439 10.43 84.5383C10.43 83.7941 10.1005 83.422 9.44154 83.422C9.1374 83.422 8.89155 83.5305 8.704 83.7473C8.3563 84.1493 7.977 84.627 7.43676 84.627H7.14601C6.42544 84.627 5.80398 84.0352 6.05785 83.3795C6.21731 82.9677 6.46319 82.6172 6.79551 82.328C7.42407 81.776 8.30608 81.5 9.44154 81.5C10.5719 81.5 11.4463 81.7538 12.0648 82.2614C12.6883 82.769 13 83.491 13 84.4274C13 84.8365 12.9164 85.2086 12.7491 85.5437C12.5818 85.8788 12.3131 86.2213 11.9431 86.5712L11.0687 87.3622C10.8203 87.5939 10.648 87.8329 10.5517 88.0793C10.3568 88.5678 9.96251 89.0034 9.42364 89.0034H9.31898ZM7.90562 91.2507C7.90562 90.886 8.03995 90.5878 8.30861 90.3562C8.58234 90.1196 8.92196 90.0013 9.32749 90.0013C9.73301 90.0013 10.0701 90.1196 10.3388 90.3562C10.6125 90.5878 10.7494 90.886 10.7494 91.2507C10.7494 91.6154 10.6125 91.916 10.3388 92.1525C10.0701 92.3842 9.73301 92.5 9.32749 92.5C8.92196 92.5 8.58234 92.3842 8.30861 92.1525C8.03995 91.916 7.90562 91.6154 7.90562 91.2507Z"/>
    </mask>
    <path d="M8.55426 27.3202C9.31446 26.2876 9.44556 25.4889 9.5 23.5C9.55444 25.4889 9.68554 26.2876 10.4457 27.3202C10.7432 27.7243 10.7432 28.2757 10.4457 28.6798C9.68554 29.7124 9.55444 30.5111 9.5 32.5C9.44556 30.5111 9.31446 29.7124 8.55426 28.6798C8.25678 28.2757 8.25678 27.7243 8.55426 27.3202Z" fill="url(#paint0_linear)"/>
    <path d="M88.5661 86.3298C90.1515 84.3641 90.4013 83.1051 90.5 79.5C90.5987 83.1051 90.8485 84.3641 92.4339 86.3298C92.7489 86.7203 92.7489 87.2797 92.4339 87.6702C90.8485 89.6359 90.5987 90.8949 90.5 94.5C90.4013 90.8949 90.1515 89.6359 88.5661 87.6702C88.2511 87.2797 88.2511 86.7203 88.5661 86.3298Z" fill="url(#paint1_linear)"/>
    <path fill-rule="evenodd" clip-rule="evenodd" d="M74.9358 39H65.0642C64.4764 39 64 39.4764 64 40.0642V50.4358C64 51.0236 64.4764 51.5 65.0642 51.5H74.9358C75.5236 51.5 76 51.0236 76 50.4358V40.0642C76 39.4764 75.5236 39 74.9358 39ZM72.2683 47.6304C71.9821 47.6304 71.7403 47.3964 71.7873 47.1141C71.8067 46.9978 71.8336 46.8957 71.8681 46.8078C71.9468 46.6051 72.0744 46.4298 72.2509 46.282C72.4273 46.1342 72.5608 45.9994 72.6515 45.8778C72.7445 45.7538 72.791 45.6179 72.791 45.4701C72.791 45.11 72.636 44.93 72.326 44.93C72.1829 44.93 72.0672 44.9824 71.979 45.0873L71.9517 45.1199C71.7955 45.3067 71.623 45.513 71.3829 45.513H71.2461C70.9072 45.513 70.6148 45.2266 70.7342 44.9094C70.8093 44.7101 70.9249 44.5405 71.0812 44.4006C71.3769 44.1335 71.7918 44 72.326 44C72.8577 44 73.269 44.1228 73.56 44.3684C73.8533 44.614 73.9999 44.9633 73.9999 45.4164C73.9999 45.6143 73.9606 45.7944 73.8819 45.9565C73.8032 46.1187 73.6768 46.2844 73.5027 46.4537L73.0914 46.8364C72.9746 46.9485 72.8935 47.0641 72.8482 47.1833C72.7565 47.4197 72.571 47.6304 72.3176 47.6304H72.2683ZM71.6035 48.7178C71.6035 48.5413 71.6666 48.3971 71.793 48.285C71.9218 48.1705 72.0816 48.1133 72.2723 48.1133C72.4631 48.1133 72.6217 48.1705 72.748 48.285C72.8768 48.3971 72.9412 48.5413 72.9412 48.7178C72.9412 48.8942 72.8768 49.0397 72.748 49.1542C72.6217 49.2662 72.4631 49.3223 72.2723 49.3223C72.0816 49.3223 71.9218 49.2662 71.793 49.1542C71.6666 49.0397 71.6035 48.8942 71.6035 48.7178ZM66.5 41C66.2239 41 66 41.2239 66 41.5C66 41.7761 66.2239 42 66.5 42H73.5C73.7761 42 74 41.7761 74 41.5C74 41.2239 73.7761 41 73.5 41H66.5ZM66.5 43.5C66.2239 43.5 66 43.7239 66 44C66 44.2761 66.2239 44.5 66.5 44.5H70C70.2761 44.5 70.5 44.2761 70.5 44C70.5 43.7239 70.2761 43.5 70 43.5H66.5ZM66.5 46C66.2239 46 66 46.2239 66 46.5C66 46.7761 66.2239 47 66.5 47H70C70.2761 47 70.5 46.7761 70.5 46.5C70.5 46.2239 70.2761 46 70 46H66.5ZM66.5 48.5C66.2239 48.5 66 48.7239 66 49C66 49.2761 66.2239 49.5 66.5 49.5H70.5C70.7761 49.5 71 49.2761 71 49C71 48.7239 70.7761 48.5 70.5 48.5H66.5Z" fill="url(#paint2_linear)"/>
    <path d="M40.319 15.0034C39.7106 15.0034 39.1965 14.5197 39.2964 13.9363C39.3376 13.6958 39.3949 13.4847 39.4683 13.3031C39.6356 12.8842 39.9068 12.522 40.2819 12.2164C40.657 11.9108 40.9408 11.6324 41.1335 11.381C41.3312 11.1248 41.43 10.8439 41.43 10.5383C41.43 9.79413 41.1005 9.42204 40.4415 9.42204C40.1374 9.42204 39.8915 9.53047 39.704 9.74731C39.3563 10.1493 38.977 10.627 38.4368 10.627H38.146C37.4254 10.627 36.804 10.0352 37.0579 9.37951C37.2173 8.96769 37.4632 8.61717 37.7955 8.32796C38.4241 7.77599 39.3061 7.5 40.4415 7.5C41.5719 7.5 42.4463 7.75381 43.0648 8.26142C43.6883 8.76904 44 9.49104 44 10.4274C44 10.8365 43.9164 11.2086 43.7491 11.5437C43.5818 11.8788 43.3131 12.2213 42.9431 12.5712L42.0687 13.3622C41.8203 13.5939 41.648 13.8329 41.5517 14.0793C41.3568 14.5678 40.9625 15.0034 40.4236 15.0034H40.319ZM38.9056 17.2507C38.9056 16.886 39.04 16.5878 39.3086 16.3562C39.5823 16.1196 39.922 16.0013 40.3275 16.0013C40.733 16.0013 41.0701 16.1196 41.3388 16.3562C41.6125 16.5878 41.7494 16.886 41.7494 17.2507C41.7494 17.6154 41.6125 17.916 41.3388 18.1526C41.0701 18.3842 40.733 18.5 40.3275 18.5C39.922 18.5 39.5823 18.3842 39.3086 18.1526C39.04 17.916 38.9056 17.6154 38.9056 17.2507Z" fill="url(#paint3_linear)"/>
    <path d="M9.31898 89.0034C8.71058 89.0034 8.19645 88.5197 8.2964 87.9363C8.33759 87.6958 8.39489 87.4847 8.46829 87.3031C8.63556 86.8842 8.90676 86.522 9.28187 86.2164C9.65697 85.9108 9.94084 85.6324 10.1335 85.3811C10.3312 85.1248 10.43 84.8439 10.43 84.5383C10.43 83.7941 10.1005 83.422 9.44154 83.422C9.1374 83.422 8.89155 83.5305 8.704 83.7473C8.3563 84.1493 7.977 84.627 7.43676 84.627H7.14601C6.42544 84.627 5.80398 84.0352 6.05785 83.3795C6.21731 82.9677 6.46319 82.6172 6.79551 82.328C7.42407 81.776 8.30608 81.5 9.44154 81.5C10.5719 81.5 11.4463 81.7538 12.0648 82.2614C12.6883 82.769 13 83.491 13 84.4274C13 84.8365 12.9164 85.2086 12.7491 85.5437C12.5818 85.8788 12.3131 86.2213 11.9431 86.5712L11.0687 87.3622C10.8203 87.5939 10.648 87.8329 10.5517 88.0793C10.3568 88.5678 9.96251 89.0034 9.42364 89.0034H9.31898ZM7.90562 91.2507C7.90562 90.886 8.03995 90.5878 8.30861 90.3562C8.58234 90.1196 8.92196 90.0013 9.32749 90.0013C9.73301 90.0013 10.0701 90.1196 10.3388 90.3562C10.6125 90.5878 10.7494 90.886 10.7494 91.2507C10.7494 91.6154 10.6125 91.916 10.3388 92.1525C10.0701 92.3842 9.73301 92.5 9.32749 92.5C8.92196 92.5 8.58234 92.3842 8.30861 92.1525C8.03995 91.916 7.90562 91.6154 7.90562 91.2507Z" fill="url(#paint4_linear)"/>
    <path d="M8.55426 27.3202L7.74897 26.7273L8.55426 27.3202ZM9.5 23.5L10.4996 23.4726C10.4848 22.9312 10.0416 22.5 9.5 22.5C8.95837 22.5 8.51519 22.9312 8.50037 23.4726L9.5 23.5ZM10.4457 27.3202L9.64045 27.9131L10.4457 27.3202ZM10.4457 28.6798L9.64045 28.0869H9.64045L10.4457 28.6798ZM9.5 32.5L8.50037 32.5274C8.51519 33.0688 8.95837 33.5 9.5 33.5C10.0416 33.5 10.4848 33.0688 10.4996 32.5274L9.5 32.5ZM8.55426 28.6798L9.35955 28.0869H9.35955L8.55426 28.6798ZM88.5661 86.3298L87.7877 85.702L88.5661 86.3298ZM90.5 79.5L91.4996 79.4726C91.4848 78.9312 91.0416 78.5 90.5 78.5C89.9584 78.5 89.5152 78.9312 89.5004 79.4726L90.5 79.5ZM92.4339 86.3298L91.6555 86.9576L92.4339 86.3298ZM92.4339 87.6702L93.2123 88.298V88.298L92.4339 87.6702ZM90.5 94.5L89.5004 94.5274C89.5152 95.0688 89.9584 95.5 90.5 95.5C91.0416 95.5 91.4848 95.0688 91.4996 94.5274L90.5 94.5ZM88.5661 87.6702L87.7877 88.298V88.298L88.5661 87.6702ZM71.7873 47.1141L72.7737 47.2784V47.2784L71.7873 47.1141ZM71.8681 46.8078L72.7989 47.1734L72.8004 47.1697L71.8681 46.8078ZM72.2509 46.282L71.6086 45.5155L72.2509 46.282ZM72.6515 45.8778L71.8515 45.2778L71.8496 45.2803L72.6515 45.8778ZM71.979 45.0873L71.2137 44.4437L71.2125 44.4451L71.979 45.0873ZM71.9517 45.1199L71.1852 44.4777L71.1846 44.4784L71.9517 45.1199ZM70.7342 44.9094L69.7984 44.5571L70.7342 44.9094ZM71.0812 44.4006L71.7482 45.1457L71.7515 45.1427L71.0812 44.4006ZM73.56 44.3684L72.9149 45.1325L72.9179 45.1351L73.56 44.3684ZM73.8819 45.9565L72.9822 45.5199L73.8819 45.9565ZM73.5027 46.4537L74.1839 47.1858L74.192 47.1783L74.2 47.1705L73.5027 46.4537ZM73.0914 46.8364L72.4102 46.1043L72.4047 46.1095L72.3992 46.1147L73.0914 46.8364ZM72.8482 47.1833L73.7806 47.5449L73.783 47.5386L72.8482 47.1833ZM71.793 48.285L72.4565 49.0332L72.4574 49.0324L71.793 48.285ZM72.748 48.285L72.0768 49.0262L72.0841 49.0328L72.0915 49.0393L72.748 48.285ZM72.748 49.1542L73.4115 49.9023L73.4124 49.9016L72.748 49.1542ZM71.793 49.1542L71.1217 49.8954L71.1291 49.902L71.1365 49.9085L71.793 49.1542ZM39.2964 13.9363L38.3108 13.7674L38.3108 13.7674L39.2964 13.9363ZM39.4683 13.3031L40.3955 13.6777L40.397 13.6739L39.4683 13.3031ZM40.2819 12.2164L40.9134 12.9917H40.9134L40.2819 12.2164ZM41.1335 11.381L40.3417 10.7702L40.3397 10.7728L41.1335 11.381ZM39.704 9.74731L38.9477 9.09314V9.09314L39.704 9.74731ZM37.0579 9.37951L37.9904 9.74059L37.0579 9.37951ZM37.7955 8.32796L38.452 9.08229L38.4553 9.07936L37.7955 8.32796ZM43.0648 8.26142L42.4303 9.03439L42.4334 9.03691L43.0648 8.26142ZM43.7491 11.5437L44.6438 11.9903V11.9903L43.7491 11.5437ZM42.9431 12.5712L43.614 13.3128L43.6222 13.3054L43.6302 13.2978L42.9431 12.5712ZM42.0687 13.3622L41.3979 12.6206L41.3922 12.6257L41.3867 12.6309L42.0687 13.3622ZM41.5517 14.0793L42.4805 14.4498L42.483 14.4433L41.5517 14.0793ZM39.3086 16.3562L39.9616 17.1136L39.9625 17.1128L39.3086 16.3562ZM41.3388 16.3562L40.6779 17.1067L40.6853 17.1132L40.6928 17.1195L41.3388 16.3562ZM41.3388 18.1526L41.9917 18.9099L41.9926 18.9092L41.3388 18.1526ZM39.3086 18.1526L38.6478 18.9031L38.6551 18.9096L38.6626 18.9159L39.3086 18.1526ZM8.2964 87.9363L7.31076 87.7674L8.2964 87.9363ZM8.46829 87.3031L9.39546 87.6777L9.39698 87.6739L8.46829 87.3031ZM9.28187 86.2164L9.91343 86.9917H9.91343L9.28187 86.2164ZM10.1335 85.3811L9.34167 84.7702L9.33974 84.7728L10.1335 85.3811ZM8.704 83.7473L7.94765 83.0931H7.94765L8.704 83.7473ZM6.05785 83.3795L6.99039 83.7406L6.05785 83.3795ZM6.79551 82.328L7.45201 83.0823L7.45535 83.0794L6.79551 82.328ZM12.0648 82.2614L11.4303 83.0344L11.4334 83.0369L12.0648 82.2614ZM12.7491 85.5437L13.6438 85.9903L13.6438 85.9903L12.7491 85.5437ZM11.9431 86.5712L12.614 87.3128L12.6221 87.3054L12.6302 87.2978L11.9431 86.5712ZM11.0687 87.3622L10.3979 86.6206L10.3922 86.6257L10.3867 86.6309L11.0687 87.3622ZM10.5517 88.0793L11.4805 88.4498L11.483 88.4433L10.5517 88.0793ZM8.30861 90.3562L8.9616 91.1136L8.96248 91.1128L8.30861 90.3562ZM10.3388 90.3562L9.67791 91.1067L9.68529 91.1132L9.69279 91.1196L10.3388 90.3562ZM10.3388 92.1525L10.9917 92.9099L10.9926 92.9092L10.3388 92.1525ZM8.30861 92.1525L7.64776 92.9031L7.65514 92.9096L7.66264 92.9159L8.30861 92.1525ZM9.35955 27.9131C9.80838 27.3034 10.0961 26.7232 10.2657 25.9958C10.4258 25.309 10.4725 24.5201 10.4996 23.5274L8.50037 23.4726C8.47311 24.4688 8.42701 25.0737 8.31791 25.5417C8.21829 25.969 8.06034 26.3044 7.74897 26.7273L9.35955 27.9131ZM8.50037 23.5274C8.52755 24.5201 8.57422 25.309 8.73432 25.9958C8.90392 26.7232 9.19162 27.3034 9.64045 27.9131L11.251 26.7273C10.9397 26.3044 10.7817 25.969 10.6821 25.5417C10.573 25.0737 10.5269 24.4688 10.4996 23.4726L8.50037 23.5274ZM9.64045 27.9131C9.67831 27.9645 9.67831 28.0355 9.64045 28.0869L11.251 29.2727C11.8081 28.516 11.8081 27.484 11.251 26.7273L9.64045 27.9131ZM9.64045 28.0869C9.19162 28.6966 8.90392 29.2768 8.73432 30.0042C8.57422 30.691 8.52755 31.4799 8.50037 32.4726L10.4996 32.5274C10.5269 31.5312 10.573 30.9263 10.6821 30.4583C10.7817 30.031 10.9397 29.6956 11.251 29.2727L9.64045 28.0869ZM10.4996 32.4726C10.4725 31.4799 10.4258 30.691 10.2657 30.0042C10.0961 29.2768 9.80838 28.6966 9.35955 28.0869L7.74897 29.2727C8.06034 29.6956 8.21829 30.031 8.31791 30.4583C8.42701 30.9263 8.47311 31.5312 8.50037 32.5274L10.4996 32.4726ZM9.35955 28.0869C9.32169 28.0355 9.32169 27.9645 9.35955 27.9131L7.74897 26.7273C7.19188 27.484 7.19188 28.516 7.74897 29.2727L9.35955 28.0869ZM89.3445 86.9576C90.1953 85.9027 90.7365 84.9739 91.056 83.7903C91.3636 82.6511 91.4504 81.3254 91.4996 79.5274L89.5004 79.4726C89.4509 81.2798 89.3635 82.3861 89.1251 83.269C88.8987 84.1076 88.5223 84.7912 87.7877 85.702L89.3445 86.9576ZM89.5004 79.5274C89.5496 81.3254 89.6364 82.6511 89.944 83.7903C90.2635 84.9739 90.8047 85.9027 91.6555 86.9576L93.2123 85.702C92.4777 84.7912 92.1013 84.1076 91.8749 83.269C91.6365 82.3861 91.5491 81.2798 91.4996 79.4726L89.5004 79.5274ZM91.6555 86.9576C91.675 86.9817 91.675 87.0183 91.6555 87.0424L93.2123 88.298C93.8228 87.5411 93.8228 86.4589 93.2123 85.702L91.6555 86.9576ZM91.6555 87.0424C90.8047 88.0973 90.2635 89.0261 89.944 90.2097C89.6364 91.3489 89.5496 92.6746 89.5004 94.4726L91.4996 94.5274C91.5491 92.7202 91.6365 91.6139 91.8749 90.731C92.1013 89.8924 92.4777 89.2088 93.2123 88.298L91.6555 87.0424ZM91.4996 94.4726C91.4504 92.6746 91.3636 91.3489 91.056 90.2097C90.7365 89.0261 90.1953 88.0973 89.3445 87.0424L87.7877 88.298C88.5223 89.2088 88.8987 89.8924 89.1251 90.731C89.3635 91.6139 89.4509 92.7202 89.5004 94.5274L91.4996 94.4726ZM89.3445 87.0424C89.325 87.0183 89.325 86.9817 89.3445 86.9576L87.7877 85.702C87.1772 86.4589 87.1772 87.5411 87.7877 88.298L89.3445 87.0424ZM65.0642 40H74.9358V38H65.0642V40ZM65 40.0642C65 40.0287 65.0287 40 65.0642 40V38C63.9242 38 63 38.9242 63 40.0642H65ZM65 50.4358V40.0642H63V50.4358H65ZM65.0642 50.5C65.0287 50.5 65 50.4713 65 50.4358H63C63 51.5758 63.9242 52.5 65.0642 52.5V50.5ZM74.9358 50.5H65.0642V52.5H74.9358V50.5ZM75 50.4358C75 50.4713 74.9713 50.5 74.9358 50.5V52.5C76.0758 52.5 77 51.5758 77 50.4358H75ZM75 40.0642V50.4358H77V40.0642H75ZM74.9358 40C74.9713 40 75 40.0287 75 40.0642H77C77 38.9242 76.0758 38 74.9358 38V40ZM70.8009 46.9499C70.6313 47.9681 71.4995 48.6304 72.2683 48.6304V46.6304C72.3951 46.6304 72.5236 46.6812 72.623 46.7843C72.7302 46.8957 72.8071 47.0777 72.7737 47.2784L70.8009 46.9499ZM70.9374 46.4421C70.8719 46.6087 70.829 46.7809 70.8009 46.9499L72.7737 47.2784C72.7843 47.2147 72.7953 47.1826 72.7989 47.1734L70.9374 46.4421ZM71.6086 45.5155C71.3108 45.765 71.0792 46.0767 70.9359 46.4459L72.8004 47.1697C72.8144 47.1334 72.838 47.0947 72.8931 47.0485L71.6086 45.5155ZM71.8496 45.2803C71.8228 45.3163 71.7528 45.3947 71.6086 45.5155L72.8931 47.0485C73.1018 46.8736 73.2989 46.6825 73.4533 46.4753L71.8496 45.2803ZM71.791 45.4701C71.791 45.4371 71.7965 45.3985 71.8099 45.3592C71.8232 45.3204 71.84 45.2931 71.8515 45.2778L73.4515 46.4778C73.6676 46.1897 73.791 45.8452 73.791 45.4701H71.791ZM72.326 45.93C72.2845 45.93 72.0835 45.9109 71.9169 45.7174C71.7749 45.5526 71.791 45.4106 71.791 45.4701H73.791C73.791 45.1695 73.7295 44.7574 73.4325 44.4125C73.1109 44.039 72.6774 43.93 72.326 43.93V45.93ZM72.7444 45.7309C72.7002 45.7834 72.6337 45.8398 72.545 45.88C72.4576 45.9197 72.3788 45.93 72.326 45.93V43.93C71.9025 43.93 71.5012 44.1018 71.2137 44.4437L72.7444 45.7309ZM72.7182 45.7622L72.7455 45.7296L71.2125 44.4451L71.1852 44.4777L72.7182 45.7622ZM71.3829 46.513C71.8116 46.513 72.1308 46.3232 72.3274 46.1642C72.5096 46.0169 72.6539 45.839 72.7188 45.7615L71.1846 44.4784C71.1431 44.528 71.1178 44.558 71.0943 44.5836C71.0717 44.6082 71.0647 44.6132 71.0701 44.6088C71.0759 44.6042 71.1061 44.5804 71.16 44.5575C71.218 44.5328 71.2948 44.513 71.3829 44.513V46.513ZM71.2461 46.513H71.3829V44.513H71.2461V46.513ZM69.7984 44.5571C69.5898 45.1111 69.7588 45.6493 70.0763 46.0006C70.3744 46.3304 70.8059 46.513 71.2461 46.513V44.513C71.3474 44.513 71.4633 44.5524 71.5602 44.6597C71.6125 44.7175 71.6665 44.8044 71.6923 44.9202C71.7192 45.0412 71.7078 45.1617 71.6701 45.2617L69.7984 44.5571ZM70.4143 43.6555C70.1362 43.9045 69.9292 44.2095 69.7984 44.5571L71.6701 45.2617C71.6893 45.2108 71.7137 45.1766 71.7482 45.1457L70.4143 43.6555ZM72.326 43C71.6298 43 70.9454 43.1758 70.411 43.6585L71.7515 45.1427C71.8085 45.0913 71.9538 45 72.326 45V43ZM74.2051 43.6043C73.6736 43.1556 73.001 43 72.326 43V45C72.7144 45 72.8645 45.09 72.9149 45.1325L74.2051 43.6043ZM74.9999 45.4164C74.9999 44.7278 74.7647 44.0729 74.202 43.6017L72.9179 45.1351C72.9418 45.1551 72.9999 45.1989 72.9999 45.4164H74.9999ZM74.7815 46.3931C74.9325 46.082 74.9999 45.7505 74.9999 45.4164H72.9999C72.9999 45.4781 72.9886 45.5067 72.9822 45.5199L74.7815 46.3931ZM74.2 47.1705C74.4302 46.9466 74.6379 46.689 74.7815 46.3931L72.9822 45.5199C72.9684 45.5483 72.9234 45.6222 72.8055 45.7368L74.2 47.1705ZM73.7726 47.5685L74.1839 47.1858L72.8215 45.7216L72.4102 46.1043L73.7726 47.5685ZM73.783 47.5386C73.7732 47.5642 73.7638 47.5784 73.7618 47.5812C73.7601 47.5837 73.7654 47.5755 73.7836 47.5581L72.3992 46.1147C72.2032 46.3027 72.0236 46.5382 71.9134 46.8281L73.783 47.5386ZM72.3176 48.6304C73.1895 48.6304 73.6313 47.9297 73.7805 47.5449L71.9158 46.8218C71.9158 46.8218 71.9159 46.8216 71.9161 46.8213C71.9162 46.8209 71.9165 46.8203 71.9169 46.8195C71.9177 46.8179 71.9194 46.8148 71.9223 46.8102C71.9276 46.8021 71.9411 46.783 71.967 46.7591C72.0235 46.7073 72.1459 46.6304 72.3176 46.6304V48.6304ZM72.2683 48.6304H72.3176V46.6304H72.2683V48.6304ZM71.1295 47.5368C70.7785 47.8481 70.6035 48.2698 70.6035 48.7178H72.6035C72.6035 48.751 72.597 48.8097 72.5668 48.8785C72.5362 48.9483 72.4936 49.0003 72.4565 49.0332L71.1295 47.5368ZM72.2723 47.1133C71.8649 47.1133 71.4606 47.2425 71.1287 47.5376L72.4574 49.0324C72.4276 49.0589 72.3891 49.0825 72.3466 49.0977C72.3058 49.1123 72.2777 49.1133 72.2723 49.1133V47.1133ZM73.4193 47.5438C73.0868 47.2426 72.6794 47.1133 72.2723 47.1133V49.1133C72.267 49.1133 72.2378 49.1123 72.1949 49.0969C72.1502 49.0807 72.109 49.0554 72.0768 49.0262L73.4193 47.5438ZM73.9412 48.7178C73.9412 48.2632 73.7598 47.8399 73.4046 47.5307L72.0915 49.0393C72.0551 49.0076 72.0115 48.956 71.9797 48.8848C71.9483 48.8144 71.9412 48.7535 71.9412 48.7178H73.9412ZM73.4124 49.9016C73.7605 49.5922 73.9412 49.172 73.9412 48.7178H71.9412C71.9412 48.6819 71.9483 48.6225 71.9785 48.5545C72.0089 48.4858 72.0501 48.4365 72.0837 48.4067L73.4124 49.9016ZM72.2723 50.3223C72.6737 50.3223 73.0784 50.1978 73.4115 49.9023L72.0845 48.406C72.1174 48.3768 72.1582 48.3525 72.2011 48.3374C72.2422 48.3229 72.2692 48.3223 72.2723 48.3223V50.3223ZM71.1365 49.9085C71.469 50.1978 71.8706 50.3223 72.2723 50.3223V48.3223C72.2755 48.3223 72.3014 48.3229 72.3404 48.3366C72.3811 48.3509 72.4192 48.3734 72.4496 48.3999L71.1365 49.9085ZM70.6035 48.7178C70.6035 49.1655 70.7779 49.584 71.1217 49.8954L72.4643 48.413C72.4985 48.4439 72.5388 48.4935 72.568 48.5608C72.5969 48.6272 72.6035 48.6844 72.6035 48.7178H70.6035ZM67 41.5C67 41.7761 66.7761 42 66.5 42V40C65.6716 40 65 40.6716 65 41.5H67ZM66.5 41C66.7761 41 67 41.2239 67 41.5H65C65 42.3284 65.6716 43 66.5 43V41ZM73.5 41H66.5V43H73.5V41ZM73 41.5C73 41.2239 73.2239 41 73.5 41V43C74.3284 43 75 42.3284 75 41.5H73ZM73.5 42C73.2239 42 73 41.7761 73 41.5H75C75 40.6716 74.3284 40 73.5 40V42ZM66.5 42H73.5V40H66.5V42ZM67 44C67 44.2761 66.7761 44.5 66.5 44.5V42.5C65.6716 42.5 65 43.1716 65 44H67ZM66.5 43.5C66.7761 43.5 67 43.7239 67 44H65C65 44.8284 65.6716 45.5 66.5 45.5V43.5ZM70 43.5H66.5V45.5H70V43.5ZM69.5 44C69.5 43.7239 69.7239 43.5 70 43.5V45.5C70.8284 45.5 71.5 44.8284 71.5 44H69.5ZM70 44.5C69.7239 44.5 69.5 44.2761 69.5 44H71.5C71.5 43.1716 70.8284 42.5 70 42.5V44.5ZM66.5 44.5H70V42.5H66.5V44.5ZM67 46.5C67 46.7761 66.7761 47 66.5 47V45C65.6716 45 65 45.6716 65 46.5H67ZM66.5 46C66.7761 46 67 46.2239 67 46.5H65C65 47.3284 65.6716 48 66.5 48V46ZM70 46H66.5V48H70V46ZM69.5 46.5C69.5 46.2239 69.7239 46 70 46V48C70.8284 48 71.5 47.3284 71.5 46.5H69.5ZM70 47C69.7239 47 69.5 46.7761 69.5 46.5H71.5C71.5 45.6716 70.8284 45 70 45V47ZM66.5 47H70V45H66.5V47ZM67 49C67 49.2761 66.7761 49.5 66.5 49.5V47.5C65.6716 47.5 65 48.1716 65 49H67ZM66.5 48.5C66.7761 48.5 67 48.7239 67 49H65C65 49.8284 65.6716 50.5 66.5 50.5V48.5ZM70.5 48.5H66.5V50.5H70.5V48.5ZM70 49C70 48.7239 70.2239 48.5 70.5 48.5V50.5C71.3284 50.5 72 49.8284 72 49H70ZM70.5 49.5C70.2239 49.5 70 49.2761 70 49H72C72 48.1716 71.3284 47.5 70.5 47.5V49.5ZM66.5 49.5H70.5V47.5H66.5V49.5ZM40.319 14.0034C40.2993 14.0034 40.2824 13.9994 40.2694 13.9941C40.2558 13.9885 40.2508 13.9832 40.2524 13.9847C40.2543 13.9866 40.2655 13.9989 40.2745 14.025C40.2843 14.0536 40.2858 14.0834 40.282 14.1051L38.3108 13.7674C38.0791 15.1197 39.2623 16.0034 40.319 16.0034V14.0034ZM40.282 14.1051C40.314 13.9187 40.3544 13.7792 40.3955 13.6777L38.5411 12.9284C38.4353 13.1902 38.3612 13.4729 38.3108 13.7674L40.282 14.1051ZM40.397 13.6739C40.4967 13.4243 40.6603 13.1979 40.9134 12.9917L39.6503 11.4411C39.1532 11.846 38.7745 12.344 38.5396 12.9322L40.397 13.6739ZM40.9134 12.9917C41.3208 12.6599 41.6693 12.3258 41.9272 11.9893L40.3397 10.7728C40.2124 10.939 39.9932 11.1618 39.6503 11.4411L40.9134 12.9917ZM41.9252 11.9918C42.2494 11.5717 42.43 11.0785 42.43 10.5383H40.43C40.43 10.6092 40.4129 10.6779 40.3417 10.7703L41.9252 11.9918ZM42.43 10.5383C42.43 10.04 42.3223 9.47945 41.9315 9.03816C41.5202 8.57368 40.9588 8.42204 40.4415 8.42204V10.422C40.5146 10.422 40.5348 10.4326 40.5217 10.4277C40.5144 10.425 40.5004 10.4187 40.4829 10.4069C40.4653 10.3949 40.4485 10.3802 40.4342 10.3641C40.4042 10.3302 40.4024 10.3102 40.4091 10.333C40.4169 10.3592 40.43 10.4228 40.43 10.5383H42.43ZM40.4415 8.42204C39.8671 8.42204 39.3379 8.64193 38.9477 9.09314L40.4603 10.4015C40.4632 10.3981 40.462 10.4002 40.4558 10.4048C40.4496 10.4095 40.4414 10.4144 40.4326 10.4183C40.4284 10.4202 40.4248 10.4215 40.422 10.4223C40.4193 10.4232 40.4178 10.4235 40.4178 10.4235C40.4178 10.4235 40.4196 10.4231 40.4234 10.4228C40.4273 10.4224 40.4332 10.422 40.4415 10.422V8.42204ZM38.9477 9.09314C38.7465 9.32573 38.6307 9.46391 38.5065 9.56631C38.3998 9.65423 38.3888 9.62702 38.4368 9.62702V11.627C39.0249 11.627 39.4737 11.361 39.7787 11.1095C40.0661 10.8726 40.3138 10.5709 40.4603 10.4015L38.9477 9.09314ZM38.4368 9.62702H38.146V11.627H38.4368V9.62702ZM38.146 9.62702C38.1019 9.62702 38.0601 9.61776 38.0254 9.60309C37.9897 9.58801 37.9724 9.57195 37.969 9.56833C37.9663 9.56544 37.9841 9.5836 37.9942 9.62781C37.9992 9.64971 38.0011 9.67314 37.9994 9.69584C37.9977 9.71856 37.9929 9.73401 37.9904 9.74059L36.1253 9.01843C35.8406 9.75366 36.0687 10.4616 36.504 10.9299C36.918 11.3753 37.5245 11.627 38.146 11.627V9.62702ZM37.9904 9.74059C38.0913 9.47995 38.2426 9.26453 38.452 9.08228L37.139 7.57363C36.6838 7.96982 36.3433 8.45543 36.1253 9.01843L37.9904 9.74059ZM38.4553 9.07936C38.845 8.73717 39.4615 8.5 40.4415 8.5V6.5C39.1506 6.5 38.0031 6.8148 37.1357 7.57656L38.4553 9.07936ZM40.4415 8.5C41.4345 8.5 42.0519 8.72379 42.4303 9.03438L43.6992 7.48847C42.8408 6.78383 41.7094 6.5 40.4415 6.5V8.5ZM42.4334 9.03691C42.7838 9.32223 43 9.73645 43 10.4274H45C45 9.24563 44.5927 8.21586 43.6961 7.48594L42.4334 9.03691ZM43 10.4274C43 10.696 42.9462 10.9131 42.8544 11.0971L44.6438 11.9903C44.8865 11.504 45 10.977 45 10.4274H43ZM42.8544 11.0971C42.7544 11.2972 42.5696 11.5482 42.256 11.8446L43.6302 13.2978C44.0567 12.8945 44.4092 12.4604 44.6438 11.9903L42.8544 11.0971ZM42.2723 11.8296L41.3979 12.6206L42.7395 14.1038L43.614 13.3128L42.2723 11.8296ZM41.3867 12.6309C41.0587 12.9367 40.7843 13.2955 40.6203 13.7153L42.483 14.4433C42.5116 14.3703 42.5819 14.251 42.7507 14.0936L41.3867 12.6309ZM40.6228 13.7088C40.5699 13.8416 40.502 13.9327 40.4505 13.9787C40.4081 14.0165 40.4037 14.0034 40.4236 14.0034V16.0034C41.5648 16.0034 42.2212 15.0999 42.4805 14.4498L40.6228 13.7088ZM40.4236 14.0034H40.319V16.0034H40.4236V14.0034ZM39.9056 17.2507C39.9056 17.1936 39.9155 17.1701 39.9181 17.1643C39.9204 17.1592 39.9283 17.1423 39.9616 17.1136L38.6556 15.5988C38.1596 16.0264 37.9056 16.6044 37.9056 17.2507H39.9056ZM39.9625 17.1128C40.0324 17.0524 40.131 17.0013 40.3275 17.0013V15.0013C39.7129 15.0013 39.1323 15.1868 38.6547 15.5996L39.9625 17.1128ZM40.3275 17.0013C40.5243 17.0013 40.6162 17.0524 40.6779 17.1067L41.9996 15.6057C41.524 15.1869 40.9418 15.0013 40.3275 15.0013V17.0013ZM40.6928 17.1195C40.7283 17.1496 40.7361 17.1669 40.7379 17.1707C40.7398 17.175 40.7494 17.1961 40.7494 17.2507H42.7494C42.7494 16.5976 42.4874 16.0182 41.9847 15.5928L40.6928 17.1195ZM40.7494 17.2507C40.7494 17.3051 40.7399 17.3281 40.7366 17.3353C40.7334 17.3423 40.7232 17.3629 40.6849 17.3959L41.9926 18.9092C42.4882 18.4809 42.7494 17.9032 42.7494 17.2507H40.7494ZM40.6858 17.3952C40.6245 17.448 40.5298 17.5 40.3275 17.5V19.5C40.9362 19.5 41.5157 19.3204 41.9917 18.9099L40.6858 17.3952ZM40.3275 17.5C40.1256 17.5 40.0241 17.448 39.9546 17.3892L38.6626 18.9159C39.1406 19.3203 39.7184 19.5 40.3275 19.5V17.5ZM39.9695 17.402C39.9333 17.3702 39.9231 17.35 39.9194 17.3417C39.9155 17.333 39.9056 17.3076 39.9056 17.2507H37.9056C37.9056 17.8965 38.1589 18.4726 38.6478 18.9031L39.9695 17.402ZM9.31898 88.0034C9.2993 88.0034 9.28237 87.9994 9.26936 87.9941C9.25577 87.9885 9.25082 87.9832 9.25237 87.9847C9.25426 87.9866 9.26553 87.9989 9.27446 88.025C9.28427 88.0536 9.28576 88.0834 9.28204 88.1051L7.31076 87.7674C7.07911 89.1197 8.26232 90.0034 9.31898 90.0034V88.0034ZM9.28204 88.1051C9.31397 87.9187 9.35444 87.7793 9.39545 87.6777L7.54112 86.9285C7.43534 87.1902 7.36122 87.4728 7.31076 87.7674L9.28204 88.1051ZM9.39698 87.6739C9.49665 87.4243 9.66027 87.1979 9.91343 86.9917L8.6503 85.4411C8.15324 85.846 7.77448 86.344 7.53959 86.9322L9.39698 87.6739ZM9.91343 86.9917C10.3208 86.6599 10.6693 86.3258 10.9272 85.9893L9.33974 84.7728C9.21238 84.939 8.99316 85.1618 8.6503 85.4411L9.91343 86.9917ZM10.9253 85.9918C11.2494 85.5717 11.43 85.0785 11.43 84.5383H9.43C9.43 84.6092 9.41293 84.6779 9.34167 84.7703L10.9253 85.9918ZM11.43 84.5383C11.43 84.04 11.3223 83.4795 10.9316 83.0382C10.5202 82.5737 9.95883 82.422 9.44154 82.422V84.422C9.51464 84.422 9.5348 84.4326 9.52169 84.4277C9.51442 84.425 9.50039 84.4187 9.48295 84.4069C9.46527 84.3949 9.44853 84.3802 9.43422 84.3641C9.40424 84.3302 9.40238 84.3102 9.40913 84.333C9.41686 84.3592 9.43 84.4228 9.43 84.5383H11.43ZM9.44154 82.422C8.8671 82.422 8.3379 82.6419 7.94765 83.0931L9.46034 84.4015C9.46324 84.3981 9.46196 84.4002 9.45585 84.4048C9.44957 84.4095 9.44145 84.4144 9.43257 84.4183C9.4284 84.4202 9.4248 84.4215 9.42204 84.4223C9.41929 84.4232 9.41778 84.4235 9.41778 84.4235C9.4178 84.4235 9.4196 84.4231 9.42342 84.4228C9.42726 84.4224 9.43323 84.422 9.44154 84.422V82.422ZM7.94765 83.0931C7.74648 83.3257 7.63069 83.4639 7.50647 83.5663C7.39983 83.6542 7.38885 83.627 7.43676 83.627V85.627C8.02491 85.627 8.47369 85.361 8.77869 85.1095C9.0661 84.8726 9.31381 84.5709 9.46034 84.4015L7.94765 83.0931ZM7.43676 83.627H7.14601V85.627H7.43676V83.627ZM7.14601 83.627C7.10192 83.627 7.0601 83.6178 7.02538 83.6031C6.98967 83.588 6.97235 83.5719 6.96899 83.5683C6.9663 83.5654 6.98409 83.5836 6.99421 83.6278C6.99923 83.6497 7.00108 83.6731 6.99939 83.6958C6.99769 83.7186 6.99293 83.734 6.99039 83.7406L5.12532 83.0184C4.84063 83.7537 5.06872 84.4616 5.50405 84.9299C5.91802 85.3753 6.52452 85.627 7.14601 85.627V83.627ZM6.99039 83.7406C7.0913 83.4799 7.24261 83.2645 7.452 83.0823L6.13901 81.5736C5.68378 81.9698 5.34331 82.4554 5.12532 83.0184L6.99039 83.7406ZM7.45535 83.0794C7.84502 82.7372 8.46152 82.5 9.44154 82.5V80.5C8.15064 80.5 7.00311 80.8148 6.13566 81.5766L7.45535 83.0794ZM9.44154 82.5C10.4345 82.5 11.0519 82.7238 11.4303 83.0344L12.6992 81.4885C11.8408 80.7838 10.7094 80.5 9.44154 80.5V82.5ZM11.4334 83.0369C11.7838 83.3222 12 83.7364 12 84.4274H14C14 83.2456 13.5927 82.2159 12.6961 81.4859L11.4334 83.0369ZM12 84.4274C12 84.696 11.9462 84.9131 11.8544 85.0971L13.6438 85.9903C13.8865 85.504 14 84.977 14 84.4274H12ZM11.8544 85.0971C11.7544 85.2972 11.5696 85.5482 11.256 85.8446L12.6302 87.2978C13.0567 86.8945 13.4092 86.4604 13.6438 85.9903L11.8544 85.0971ZM11.2723 85.8296L10.3979 86.6206L11.7395 88.1038L12.614 87.3128L11.2723 85.8296ZM10.3867 86.6309C10.0587 86.9367 9.78433 87.2955 9.62027 87.7153L11.483 88.4433C11.5116 88.3703 11.5819 88.251 11.7507 88.0936L10.3867 86.6309ZM9.62281 87.7088C9.56987 87.8416 9.50201 87.9327 9.45055 87.9787C9.40813 88.0165 9.40371 88.0034 9.42364 88.0034V90.0034C10.5648 90.0034 11.2212 89.0999 11.4805 88.4498L9.62281 87.7088ZM9.42364 88.0034H9.31898V90.0034H9.42364V88.0034ZM8.90562 91.2507C8.90562 91.1936 8.9155 91.1701 8.91811 91.1643C8.9204 91.1592 8.92827 91.1423 8.9616 91.1136L7.65563 89.5988C7.15964 90.0264 6.90562 90.6044 6.90562 91.2507H8.90562ZM8.96248 91.1128C9.03236 91.0524 9.13104 91.0013 9.32749 91.0013V89.0013C8.71289 89.0013 8.13232 89.1869 7.65474 89.5996L8.96248 91.1128ZM9.32749 91.0013C9.52425 91.0013 9.61621 91.0524 9.67791 91.1067L10.9996 89.6057C10.524 89.1869 9.94177 89.0013 9.32749 89.0013V91.0013ZM9.69279 91.1196C9.72826 91.1496 9.73613 91.1669 9.73788 91.1707C9.73983 91.175 9.74935 91.1961 9.74935 91.2507H11.7494C11.7494 90.5976 11.4874 90.0182 10.9847 89.5928L9.69279 91.1196ZM9.74935 91.2507C9.74935 91.3051 9.73987 91.3281 9.73658 91.3353C9.73339 91.3423 9.72317 91.3629 9.68489 91.3959L10.9926 92.9092C11.4882 92.4809 11.7494 91.9032 11.7494 91.2507H9.74935ZM9.68577 91.3952C9.6245 91.448 9.52978 91.5 9.32749 91.5V93.5C9.93624 93.5 10.5157 93.3204 10.9917 92.9099L9.68577 91.3952ZM9.32749 91.5C9.12557 91.5 9.02411 91.448 8.95458 91.3892L7.66264 92.9159C8.14057 93.3203 8.71836 93.5 9.32749 93.5V91.5ZM8.96946 91.402C8.93327 91.3702 8.92307 91.35 8.91937 91.3417C8.91546 91.333 8.90562 91.3076 8.90562 91.2507H6.90562C6.90562 91.8965 7.1589 92.4726 7.64776 92.9031L8.96946 91.402Z" fill="#FFDC5D" mask="url(#path-1-outside-1)"/>
    <path d="M4.99992 2.5L5.49971 2.48551C5.49187 2.21513 5.27042 2 4.99992 2C4.72942 2 4.50796 2.21513 4.50013 2.48551L4.99992 2.5ZM2.62065 10.3087L2.24197 9.98215H2.24197L2.62065 10.3087ZM7.37919 10.3087L7.75786 9.98215H7.75786L7.37919 10.3087ZM4.99992 19.5L4.50013 19.5145C4.50796 19.7849 4.72942 20 4.99992 20C5.27042 20 5.49187 19.7849 5.49971 19.5145L4.99992 19.5ZM2.62065 11.6913L2.24197 12.0178L2.24197 12.0179L2.62065 11.6913ZM7.37919 11.6913L7.75786 12.0179L7.75786 12.0178L7.37919 11.6913ZM14.4999 14.5L14.9997 14.4863C14.9923 14.2156 14.7707 14 14.4999 14C14.2291 14 14.0075 14.2156 14.0001 14.4863L14.4999 14.5ZM13.5542 18.3202L13.1515 18.0238L13.5542 18.3202ZM15.4457 18.3202L15.043 18.6166L15.4457 18.3202ZM14.4999 23.5L14.0001 23.5137C14.0075 23.7844 14.2291 24 14.4999 24C14.7707 24 14.9923 23.7844 14.9997 23.5137L14.4999 23.5ZM13.5542 19.6798L13.9568 19.3834L13.5542 19.6798ZM15.4457 19.6798L15.043 19.3834L15.4457 19.6798ZM71.4999 82.5L71.9997 82.4863C71.9923 82.2156 71.7707 82 71.4999 82C71.2291 82 71.0075 82.2156 71.0001 82.4863L71.4999 82.5ZM70.5542 86.3202L70.1515 86.0238L70.5542 86.3202ZM72.4457 86.3202L72.043 86.6166L72.4457 86.3202ZM71.4999 91.5L71.0001 91.5137C71.0075 91.7844 71.2291 92 71.4999 92C71.7707 92 71.9923 91.7844 71.9997 91.5137L71.4999 91.5ZM70.5542 87.6798L70.9568 87.3834L70.5542 87.6798ZM72.4457 87.6798L72.043 87.3834L72.4457 87.6798ZM82.4999 63.5L82.9997 63.4863C82.9923 63.2156 82.7707 63 82.4999 63C82.2291 63 82.0075 63.2156 82.0001 63.4863L82.4999 63.5ZM80.566 70.3298L80.1768 70.0159L80.566 70.3298ZM84.4338 70.3298L84.0446 70.6437L84.4338 70.3298ZM82.4999 78.5L82.0001 78.5137C82.0075 78.7844 82.2291 79 82.4999 79C82.7707 79 82.9923 78.7844 82.9997 78.5137L82.4999 78.5ZM80.566 71.6702L80.1768 71.9841L80.566 71.6702ZM84.4338 71.6702L84.823 71.9841L84.4338 71.6702ZM89.2382 31.5429L89.3102 32.0376L89.2382 31.5429ZM94.0172 34.9535L93.5233 35.0313L94.0172 34.9535ZM93.937 55.5466L94.4272 55.6448L93.937 55.5466ZM90.4968 58.5399L90.4628 58.041L90.462 58.0411L90.4968 58.5399ZM58.3359 63.2725L58.6872 63.6283L58.3359 63.2725ZM38.7235 77.3182L38.6903 77.8171L38.7235 77.3182ZM20.8781 76.5886L20.5189 76.9364L20.8781 76.5886ZM13.1038 68.1976L12.6158 68.0886L13.1038 68.1976ZM38.0265 69.792C38.3026 69.7866 38.522 69.5585 38.5167 69.2824C38.5113 69.0063 38.2831 68.7868 38.007 68.7922L38.0265 69.792ZM24.7652 70.2042L24.8574 70.6956L24.7652 70.2042ZM19.6412 59.4419L19.5042 58.9609L19.4945 58.9639L19.6412 59.4419ZM24.9021 58.4635C25.1677 58.3878 25.3217 58.1112 25.246 57.8456C25.1704 57.5801 24.8938 57.4261 24.6282 57.5017L24.9021 58.4635ZM17.8743 60.1813L18.1091 60.6227H18.1091L17.8743 60.1813ZM15.7541 54.5168L15.274 54.3772L15.7541 54.5168ZM24.277 48.0738C24.4461 47.8555 24.4063 47.5415 24.188 47.3723C23.9697 47.2032 23.6556 47.243 23.4865 47.4613L24.277 48.0738ZM20.878 43.0248L21.23 43.38L20.878 43.0248ZM21.9382 41.9654L22.2931 42.3176L21.9382 41.9654ZM26.7599 37.4815C26.9222 37.2581 26.8726 36.9454 26.6492 36.7831C26.4258 36.6208 26.1131 36.6704 25.9508 36.8938L26.7599 37.4815ZM22.6449 38.0997L23.0401 38.406L22.6449 38.0997ZM28.1222 31.1681L28.2472 31.6522L28.1222 31.1681ZM52.5051 31.1681L52.6857 30.7018L52.5051 31.1681ZM65.8078 26.09C65.9166 26.3439 66.2105 26.4614 66.4643 26.3527C66.7181 26.2439 66.8357 25.9499 66.7269 25.6961L65.8078 26.09ZM60.3419 10.7977C60.2331 10.5439 59.9392 10.4263 59.6854 10.5351C59.4315 10.6439 59.314 10.9378 59.4227 11.1916L60.3419 10.7977ZM70.0666 23.5629C69.9551 23.8156 70.0696 24.1107 70.3222 24.2222C70.5749 24.3337 70.87 24.2192 70.9815 23.9666L70.0666 23.5629ZM78.9628 5.87565C79.0742 5.623 78.9598 5.32784 78.7071 5.21637C78.4545 5.10491 78.1593 5.21936 78.0479 5.47201L78.9628 5.87565ZM66.7146 64.4269C66.8381 64.1799 66.7379 63.8795 66.491 63.756C66.244 63.6325 65.9436 63.7327 65.8201 63.9796L66.7146 64.4269ZM55.1784 85.2631C55.0549 85.5101 55.155 85.8104 55.402 85.9339C55.649 86.0574 55.9494 85.9573 56.0728 85.7103L55.1784 85.2631ZM71.0024 64.0577C70.922 63.7935 70.6426 63.6445 70.3784 63.7249C70.1143 63.8053 69.9653 64.0846 70.0457 64.3488L71.0024 64.0577ZM73.7703 76.5868C73.8507 76.851 74.13 77 74.3942 76.9196C74.6584 76.8392 74.8074 76.5598 74.727 76.2956L73.7703 76.5868ZM4.50013 2.48551C4.44025 4.55166 4.33399 5.87789 4.01845 6.96215C3.70945 8.02396 3.19057 8.882 2.24197 9.98215L2.99932 10.6352C4.00569 9.46801 4.61664 8.48542 4.97862 7.24158C5.33407 6.02018 5.43997 4.57574 5.49971 2.51449L4.50013 2.48551ZM4.50013 2.51449C4.55987 4.57574 4.66576 6.02018 5.02121 7.24158C5.38319 8.48542 5.99414 9.46801 7.00052 10.6352L7.75786 9.98215C6.80926 8.882 6.29039 8.02396 5.98138 6.96215C5.66584 5.87789 5.55959 4.55166 5.49971 2.48551L4.50013 2.51449ZM5.49971 19.4855C5.43997 17.4243 5.33407 15.9798 4.97862 14.7584C4.61664 13.5146 4.00569 12.532 2.99932 11.3648L2.24197 12.0179C3.19057 13.118 3.70945 13.976 4.01845 15.0378C4.33399 16.1221 4.44025 17.4483 4.50013 19.5145L5.49971 19.4855ZM5.49971 19.5145C5.55959 17.4483 5.66584 16.1221 5.98138 15.0378C6.29039 13.976 6.80926 13.118 7.75786 12.0179L7.00052 11.3648C5.99414 12.532 5.38319 13.5146 5.02121 14.7584C4.66576 15.9798 4.55987 17.4243 4.50013 19.4855L5.49971 19.5145ZM7.00052 10.6352C7.1806 10.844 7.1806 11.156 7.00052 11.3648L7.75786 12.0178C8.26148 11.4338 8.26148 10.5662 7.75786 9.98215L7.00052 10.6352ZM2.24197 9.98215C1.73835 10.5662 1.73835 11.4338 2.24197 12.0178L2.99932 11.3648C2.81924 11.156 2.81924 10.844 2.99932 10.6352L2.24197 9.98215ZM14.0001 14.4863C13.9729 15.4816 13.9266 16.1325 13.8048 16.6552C13.6877 17.1575 13.4973 17.5542 13.1515 18.0238L13.9568 18.6166C14.3713 18.0537 14.6266 17.5346 14.7787 16.8822C14.926 16.2502 14.9725 15.5073 14.9997 14.5137L14.0001 14.4863ZM14.0001 14.5137C14.0273 15.5073 14.0738 16.2502 14.2212 16.8822C14.3733 17.5346 14.6285 18.0537 15.043 18.6166L15.8483 18.0238C15.5026 17.5542 15.3122 17.1575 15.1951 16.6552C15.0732 16.1325 15.027 15.4816 14.9997 14.4863L14.0001 14.5137ZM14.9997 23.4863C14.9725 22.4927 14.926 21.7498 14.7787 21.1178C14.6266 20.4654 14.3713 19.9463 13.9568 19.3834L13.1515 19.9762C13.4973 20.4458 13.6877 20.8425 13.8048 21.3448C13.9266 21.8675 13.9729 22.5184 14.0001 23.5137L14.9997 23.4863ZM14.9997 23.5137C15.027 22.5184 15.0732 21.8675 15.1951 21.3448C15.3122 20.8425 15.5026 20.4458 15.8483 19.9762L15.043 19.3834C14.6285 19.9463 14.3733 20.4654 14.2212 21.1178C14.0738 21.7498 14.0273 22.4927 14.0001 23.4863L14.9997 23.5137ZM15.043 18.6166C15.2107 18.8444 15.2107 19.1556 15.043 19.3834L15.8483 19.9762C16.2756 19.3959 16.2756 18.6041 15.8483 18.0238L15.043 18.6166ZM13.1515 18.0238C12.7242 18.6041 12.7242 19.3959 13.1515 19.9762L13.9568 19.3834C13.7892 19.1556 13.7892 18.8444 13.9568 18.6166L13.1515 18.0238ZM71.0001 82.4863C70.9729 83.4816 70.9266 84.1325 70.8048 84.6552C70.6877 85.1575 70.4973 85.5542 70.1515 86.0238L70.9568 86.6166C71.3713 86.0537 71.6266 85.5346 71.7786 84.8822C71.926 84.2502 71.9725 83.5072 71.9997 82.5137L71.0001 82.4863ZM71.0001 82.5137C71.0273 83.5072 71.0738 84.2502 71.2212 84.8822C71.3733 85.5346 71.6285 86.0537 72.043 86.6166L72.8483 86.0238C72.5026 85.5542 72.3122 85.1575 72.1951 84.6552C72.0732 84.1325 72.027 83.4816 71.9997 82.4863L71.0001 82.5137ZM71.9997 91.4863C71.9725 90.4928 71.926 89.7498 71.7786 89.1178C71.6266 88.4653 71.3713 87.9463 70.9568 87.3834L70.1515 87.9762C70.4973 88.4458 70.6877 88.8425 70.8048 89.3448C70.9266 89.8675 70.9729 90.5184 71.0001 91.5137L71.9997 91.4863ZM71.9997 91.5137C72.027 90.5184 72.0732 89.8675 72.1951 89.3448C72.3122 88.8425 72.5026 88.4458 72.8483 87.9762L72.043 87.3834C71.6285 87.9463 71.3733 88.4653 71.2212 89.1178C71.0738 89.7498 71.0273 90.4928 71.0001 91.4863L71.9997 91.5137ZM72.043 86.6166C72.2107 86.8444 72.2107 87.1556 72.043 87.3834L72.8483 87.9762C73.2756 87.3959 73.2756 86.6041 72.8483 86.0238L72.043 86.6166ZM70.1515 86.0238C69.7243 86.6041 69.7243 87.3959 70.1515 87.9762L70.9568 87.3834C70.7892 87.1556 70.7892 86.8444 70.9568 86.6166L70.1515 86.0238ZM82.0001 63.4863C81.9507 65.2912 81.8634 66.4523 81.6078 67.3994C81.3581 68.3242 80.9405 69.069 80.1768 70.0159L80.9552 70.6437C81.777 69.6248 82.277 68.7573 82.5732 67.66C82.8635 66.5848 82.9505 65.314 82.9997 63.5137L82.0001 63.4863ZM82.0001 63.5137C82.0494 65.314 82.1364 66.5848 82.4266 67.66C82.7229 68.7573 83.2229 69.6248 84.0446 70.6437L84.823 70.0159C84.0593 69.069 83.6417 68.3242 83.3921 67.3994C83.1364 66.4523 83.0491 65.2912 82.9997 63.4863L82.0001 63.5137ZM82.9997 78.4863C82.9505 76.686 82.8635 75.4152 82.5732 74.34C82.277 73.2427 81.777 72.3752 80.9552 71.3563L80.1768 71.9841C80.9405 72.931 81.3581 73.6758 81.6078 74.6006C81.8634 75.5477 81.9507 76.7088 82.0001 78.5137L82.9997 78.4863ZM82.9997 78.5137C83.0491 76.7088 83.1364 75.5477 83.3921 74.6006C83.6417 73.6758 84.0593 72.931 84.823 71.9841L84.0446 71.3563C83.2229 72.3752 82.7229 73.2427 82.4266 74.34C82.1364 75.4152 82.0494 76.686 82.0001 78.4863L82.9997 78.5137ZM84.0446 70.6437C84.2119 70.851 84.2119 71.149 84.0446 71.3563L84.823 71.9841C85.2858 71.4104 85.2858 70.5896 84.823 70.0159L84.0446 70.6437ZM80.1768 70.0159C79.7141 70.5896 79.7141 71.4104 80.1768 71.9841L80.9552 71.3563C80.7879 71.149 80.7879 70.851 80.9552 70.6437L80.1768 70.0159ZM76.9411 39.8172V50.9449H77.9411V39.8172H76.9411ZM63.0528 50.7658V39.9963H62.0528V50.7658H63.0528ZM65.9229 32.7625H74.0678V31.7625H65.9229V32.7625ZM65.2031 37.8095H74.9675V36.8095H65.2031V37.8095ZM66.839 61.4012H73.7079V60.4012H66.839V61.4012ZM74.9675 52.9526H65.2031V53.9526H74.9675V52.9526ZM74.4675 33.1746V37.3095H75.4675V33.1746H74.4675ZM75.0114 33.6727C78.5351 33.3621 84.6992 32.7091 89.3102 32.0376L89.1661 31.0481C84.5797 31.716 78.4356 32.367 74.9236 32.6765L75.0114 33.6727ZM93.5233 35.0313C94.6938 42.4584 94.9786 47.7996 93.4467 55.4484L94.4272 55.6448C95.9894 47.8449 95.6935 42.378 94.5111 34.8756L93.5233 35.0313ZM75.4675 59.6243V53.4526H74.4675V59.6243H75.4675ZM90.462 58.0411L74.9326 59.1255L75.0023 60.1231L90.5317 59.0387L90.462 58.0411ZM64.7031 53.4526V59.6243H65.7031V53.4526H64.7031ZM65.2713 59.129C64.7028 59.0507 63.7009 59.1956 62.4566 59.7409C61.1957 60.2936 59.6496 61.2725 57.9845 62.9168L58.6872 63.6283C60.2732 62.0621 61.719 61.1561 62.8581 60.6568C64.0139 60.1503 64.8201 60.0763 65.1349 60.1196L65.2713 59.129ZM57.9845 62.9168C55.9445 64.9313 52.4305 68.5137 48.7419 71.5511C46.8978 73.0697 45.0249 74.4393 43.2847 75.4046C41.5291 76.3784 39.9781 76.9007 38.7568 76.8193L38.6903 77.8171C40.2076 77.9182 41.9695 77.2776 43.7697 76.2791C45.5854 75.272 47.5113 73.8599 49.3776 72.3231C53.1099 69.2496 56.6634 65.6268 58.6872 63.6283L57.9845 62.9168ZM38.7568 76.8193C37.3298 76.7243 35.7383 76.9029 34.1216 77.1459C32.4829 77.3921 30.8382 77.7005 29.2119 77.8934C25.9433 78.281 23.0854 78.1487 21.2372 76.2407L20.5189 76.9364C22.7346 79.2239 26.0607 79.2741 29.3296 78.8864C30.9719 78.6917 32.6843 78.373 34.2702 78.1348C35.878 77.8932 37.3785 77.7298 38.6903 77.8171L38.7568 76.8193ZM21.2372 76.2407C19.1835 74.1204 17.057 72.5736 15.5921 71.3281C14.845 70.6929 14.283 70.1484 13.9373 69.6385C13.6005 69.1418 13.4986 68.7234 13.5918 68.3067L12.6158 68.0886C12.444 68.8575 12.6734 69.5564 13.1096 70.1997C13.5369 70.83 14.1896 71.4483 14.9444 72.09C16.4831 73.3983 18.5088 74.8612 20.5189 76.9364L21.2372 76.2407ZM13.5918 68.3067C13.9814 66.5637 14.8789 66.3263 15.0473 66.3263V65.3263C14.2735 65.3263 13.0743 66.0375 12.6158 68.0886L13.5918 68.3067ZM38.007 68.7922C34.8954 68.8528 27.8312 69.1199 24.6729 69.7128L24.8574 70.6956C27.9185 70.121 34.8951 69.853 38.0265 69.792L38.007 68.7922ZM24.6729 69.7128C22.791 70.066 20.9475 70.0139 19.3586 69.3961C17.7826 68.7834 16.4204 67.6007 15.501 65.6161L14.5937 66.0365C15.6179 68.2474 17.1709 69.6185 18.9962 70.3282C20.8085 71.0328 22.8522 71.072 24.8574 70.6956L24.6729 69.7128ZM19.7782 59.9228L24.9021 58.4635L24.6282 57.5017L19.5043 58.961L19.7782 59.9228ZM15.5043 65.6234C14.9861 64.4561 15.1683 63.4866 15.6908 62.6709C16.2313 61.8271 17.1502 61.1326 18.1091 60.6227L17.6396 59.7398C16.606 60.2894 15.5196 61.0842 14.8487 62.1315C14.16 63.2068 13.9249 64.5301 14.5904 66.0292L15.5043 65.6234ZM18.1091 60.6227C18.7048 60.306 19.2973 60.0705 19.7879 59.9199L19.4945 58.9639C18.9449 59.1326 18.2932 59.3923 17.6396 59.7398L18.1091 60.6227ZM18.1421 59.759C17.18 59.1491 15.4736 57.274 16.2342 54.6563L15.274 54.3772C14.3384 57.5967 16.4484 59.8693 17.6066 60.6036L18.1421 59.759ZM16.2342 54.6563C16.668 53.1635 17.991 52.0679 19.5615 51.1134L19.0422 50.2588C17.4473 51.2281 15.8214 52.4934 15.274 54.3772L16.2342 54.6563ZM19.5615 51.1134C20.4785 50.5561 21.3881 50.0976 22.2436 49.61C23.057 49.1464 23.8282 48.6529 24.277 48.0738L23.4865 47.4613C23.1758 47.8622 22.5758 48.2696 21.7484 48.7412C20.9631 49.1888 19.9625 49.6995 19.0422 50.2588L19.5615 51.1134ZM19.6799 50.359C19.2887 49.9068 18.8452 48.993 18.909 47.7847C18.972 46.5895 19.5349 45.06 21.23 43.38L20.5261 42.6697C18.6874 44.492 17.9887 46.2459 17.9103 47.7321C17.8327 49.2053 18.3679 50.3709 18.9237 51.0133L19.6799 50.359ZM21.23 43.38C21.606 43.0074 21.9601 42.6533 22.2931 42.3176L21.5832 41.6133C21.2522 41.947 20.9001 42.299 20.5261 42.6697L21.23 43.38ZM22.2931 42.3176C25.0898 39.4982 26.419 37.9508 26.7599 37.4815L25.9508 36.8938C25.66 37.2941 24.3809 38.7929 21.5832 41.6133L22.2931 42.3176ZM22.2503 41.5748C22.0966 41.452 21.4157 40.5023 23.0401 38.406L22.2497 37.7935C20.4817 40.075 20.8374 41.7258 21.626 42.356L22.2503 41.5748ZM23.0401 38.406C24.1104 37.0249 25.1543 35.3424 26.0602 34.0285C26.5214 33.3596 26.9473 32.7844 27.3373 32.3576C27.7432 31.9134 28.0454 31.7043 28.2472 31.6522L27.9973 30.6839C27.4924 30.8143 27.0215 31.2208 26.5991 31.683C26.1609 32.1625 25.7034 32.7844 25.237 33.4608C24.2877 34.8375 23.2997 36.4384 22.2497 37.7935L23.0401 38.406ZM28.2472 31.6522C28.5321 31.5787 29.2192 31.5315 30.2126 31.5141C31.1807 31.4971 32.3772 31.5084 33.6347 31.5312C36.1377 31.5765 38.8953 31.6681 40.4904 31.6681V30.6681C38.905 30.6681 36.1854 30.5772 33.6528 30.5313C32.3925 30.5085 31.1816 30.497 30.1951 30.5142C29.2339 30.5311 28.4192 30.5751 27.9973 30.6839L28.2472 31.6522ZM40.4904 31.6681C42.0963 31.6681 44.4594 31.3904 46.6606 31.2567C47.7795 31.1888 48.8737 31.1558 49.8571 31.2057C50.8464 31.2559 51.6905 31.3888 52.3246 31.6344L52.6857 30.7018C51.9063 30.4001 50.9394 30.2594 49.9078 30.207C48.8703 30.1543 47.7339 30.1897 46.6 30.2586C44.2956 30.3985 42.0649 30.6681 40.4904 30.6681V31.6681ZM52.3246 31.6344C55.0718 32.6979 56.0928 33.4923 58.8659 33.4923V32.4923C56.3384 32.4923 55.5925 31.8272 52.6857 30.7018L52.3246 31.6344ZM65.7031 37.3095V32.9923H64.7031V37.3095H65.7031ZM58.8659 33.4923H65.2031V32.4923H58.8659V33.4923ZM76.9411 50.9449C76.9411 52.0602 76.051 52.9526 74.9675 52.9526V53.9526C76.6162 53.9526 77.9411 52.5995 77.9411 50.9449H76.9411ZM89.3102 32.0376C91.2794 31.7509 93.2157 33.0795 93.5233 35.0313L94.5111 34.8756C94.1116 32.3403 91.6338 30.6887 89.1661 31.0481L89.3102 32.0376ZM93.4467 55.4484C93.1573 56.8933 91.9252 57.9414 90.4628 58.0411L90.5308 59.0387C92.4289 58.9093 94.0465 57.5461 94.4272 55.6448L93.4467 55.4484ZM62.0528 50.7658C62.0528 52.5193 63.4568 53.9526 65.2031 53.9526V52.9526C64.022 52.9526 63.0528 51.98 63.0528 50.7658H62.0528ZM77.9411 39.8172C77.9411 38.1625 76.6162 36.8095 74.9675 36.8095V37.8095C76.051 37.8095 76.9411 38.7019 76.9411 39.8172H77.9411ZM63.0528 39.9963C63.0528 38.7821 64.022 37.8095 65.2031 37.8095V36.8095C63.4568 36.8095 62.0528 38.2428 62.0528 39.9963H63.0528ZM66.839 60.4012C66.6114 60.4012 66.3024 60.3009 66.0517 60.121C65.7932 59.9355 65.7031 59.7478 65.7031 59.6243H64.7031C64.7031 60.206 65.0832 60.6568 65.4687 60.9334C65.862 61.2157 66.3709 61.4012 66.839 61.4012V60.4012ZM74.0678 32.7625C74.2821 32.7625 74.4675 32.9406 74.4675 33.1746H75.4675C75.4675 32.4012 74.8473 31.7625 74.0678 31.7625V32.7625ZM73.7079 61.4012C74.6861 61.4012 75.4675 60.5992 75.4675 59.6243H74.4675C74.4675 60.0598 74.121 60.4012 73.7079 60.4012V61.4012ZM65.9229 31.7625C65.2428 31.7625 64.7031 32.3196 64.7031 32.9923H65.7031C65.7031 32.8589 65.808 32.7625 65.9229 32.7625V31.7625ZM66.7269 25.6961L60.3419 10.7977L59.4227 11.1916L65.8078 26.09L66.7269 25.6961ZM70.9815 23.9666L78.9628 5.87565L78.0479 5.47201L70.0666 23.5629L70.9815 23.9666ZM65.8201 63.9796L55.1784 85.2631L56.0728 85.7103L66.7146 64.4269L65.8201 63.9796ZM70.0457 64.3488L73.7703 76.5868L74.727 76.2956L71.0024 64.0577L70.0457 64.3488Z" fill="url(#paint5_linear)"/>
    <defs>
        <linearGradient id="paint0_linear" x1="6" y1="51" x2="92.6702" y2="51" gradientUnits="userSpaceOnUse">
            <stop stop-color="#16A7D8"/>
            <stop offset="1" stop-color="#1290B4"/>
        </linearGradient>
        <linearGradient id="paint1_linear" x1="6" y1="51" x2="92.6702" y2="51" gradientUnits="userSpaceOnUse">
            <stop stop-color="#16A7D8"/>
            <stop offset="1" stop-color="#1290B4"/>
        </linearGradient>
        <linearGradient id="paint2_linear" x1="6" y1="51" x2="92.6702" y2="51" gradientUnits="userSpaceOnUse">
            <stop stop-color="#16A7D8"/>
            <stop offset="1" stop-color="#1290B4"/>
        </linearGradient>
        <linearGradient id="paint3_linear" x1="6" y1="51" x2="92.6702" y2="51" gradientUnits="userSpaceOnUse">
            <stop stop-color="#16A7D8"/>
            <stop offset="1" stop-color="#1290B4"/>
        </linearGradient>
        <linearGradient id="paint4_linear" x1="6" y1="51" x2="92.6702" y2="51" gradientUnits="userSpaceOnUse">
            <stop stop-color="#16A7D8"/>
            <stop offset="1" stop-color="#1290B4"/>
        </linearGradient>
        <linearGradient id="paint5_linear" x1="2.36426" y1="47" x2="94.9999" y2="47" gradientUnits="userSpaceOnUse">
            <stop stop-color="#16A7D8"/>
            <stop offset="1" stop-color="#1290B4"/>
        </linearGradient>
    </defs>
</svg>
